<?xml version="1.0" encoding="UTF-8"?>
<svg width="15px" height="18px" viewBox="0 0 15 18" version="1.1" xmlns="http://www.w3.org/2000/svg" xmlns:xlink="http://www.w3.org/1999/xlink">
    <!-- Generator: sketchtool 52.2 (67145) - http://www.bohemiancoding.com/sketch -->
    <title>64364BD7-EEAB-486E-AF50-65A2574E1094@1x</title>
    <desc>Created with sketchtool.</desc>
    <g id="Search" stroke="none" stroke-width="1" fill="none" fill-rule="evenodd">
        <g id="SP-06-05-Search_Detail_close" transform="translate(-446.000000, -290.000000)" fill="#FF6B00" fill-rule="nonzero">
            <g id="Group" transform="translate(344.000000, 128.000000)">
                <g id="Group-7" transform="translate(24.000000, 133.000000)">
                    <g transform="translate(0.000000, 24.000000)" id="ic_professino">
                        <g transform="translate(78.000000, 5.000000)">
                            <path d="M15,12.6956927 C15,15.1797452 15,16.8343434 15,17.6594872 C15,17.7804396 14.8702914,18 14.5858946,18 L0.355532906,18 C0.168319665,18 0.0165082585,17.8526267 0.0165082585,17.6709381 L0.0165082585,12.6956927 C-0.080800037,11.6974614 0.255213798,10.7149903 0.941605562,9.97918747 C1.62821117,9.2430062 2.60207597,8.82083389 3.62493984,8.81589154 L4.52138859,8.7447302 C4.5946752,8.73892781 5.29725582,8.73796955 6.62913046,8.74185543 C7.13953942,10.2195587 7.42982927,10.9584104 7.5,10.9584104 C7.57651411,10.9584104 7.84260246,10.2262211 8.29826506,8.76184245 C9.55519051,8.79787604 10.2180511,8.81589284 10.2868469,8.81589284 L11.0897863,8.81589284 C12.1628115,8.81646584 13.1701872,9.26115133 13.8206163,10.0118102 C14.5858946,10.8950164 15,11.8860653 15,12.6956927 Z M11,4.61213729 C10.9975933,6.48224921 9.43191027,7.99784673 7.50000003,8 C5.56800292,7.99784663 4.00215987,6.48216801 4,4.6120211 L4.00000007,3.38780121 C4.00000007,1.51663502 5.56698576,-4.54747351e-13 7.50000003,-4.54747351e-13 C9.4330143,-4.54747351e-13 11,1.51663502 11,3.38780121 L11,4.61213729 Z M4.67465796,3.38780121 L4.67465796,4.61213729 C4.67465796,6.1226735 5.93946271,7.34712468 7.50000003,7.34712468 C9.06058276,7.34712468 10.3255965,6.12262953 10.3255965,4.61213729 L10.3255965,3.38780121 C10.3255965,1.87736065 9.06057254,0.652875391 7.50000003,0.652875391 C5.93947294,0.652875391 4.67465796,1.87731667 4.67465796,3.38780121 Z" id="Combined-Shape"></path>
                            <path d="M11.0082092,3.00259399 C10.7573197,2.82831828 10.5725765,3.74118042 10.4539795,3.74118042 C10.225708,3.88699341 9.87487277,4.00259399 9.7147522,4.00259399 C9.3109436,4.00259399 8.99957275,3.00259399 7.48278809,3.00259399 C6.00739792,3.02117861 5.6983683,4 5.29885864,4 C5.13873807,4 4.78790283,3.88439941 4.55963135,3.73858643 C4.44103437,3.73858643 4.25629112,2.82572428 4.00540161,3 C4.00540161,1 5.18054199,-8.8817842e-16 7.53082275,-8.8817842e-16 C9.8490804,0.0163126837 11.0082092,1.01626595 11.0082092,3.00259399 Z M6.5651982,2.70775657 C6.77758338,2.57345819 7.08772884,2.5 7.50192261,2.5 C7.91434588,2.5 8.21840534,2.57278794 8.42040259,2.70423597 L8.96582788,1.86607653 C8.58355592,1.61731623 8.09348697,1.5 7.50192261,1.5 C6.91212875,1.5 6.41964155,1.61664597 6.03074907,1.86255593 L6.5651982,2.70775657 Z" id="Combined-Shape"></path>
                        </g>
                    </g>
                </g>
            </g>
        </g>
    </g>
</svg>