<?xml version="1.0" encoding="UTF-8"?>
<svg width="26px" height="26px" viewBox="0 0 26 26" version="1.1" xmlns="http://www.w3.org/2000/svg" xmlns:xlink="http://www.w3.org/1999/xlink">
    <!-- Generator: sketchtool 52.2 (67145) - http://www.bohemiancoding.com/sketch -->
    <title>F60B1C55-F8CF-4706-B358-1FCE89FF470E@1x</title>
    <desc>Created with sketchtool.</desc>
    <g id="Search" stroke="none" stroke-width="1" fill="none" fill-rule="evenodd">
        <g id="SP-06-02-Work-detail_jobinfo" transform="translate(-830.000000, -191.000000)">
            <g id="ic_map1" transform="translate(831.000000, 191.000000)">
                <g id="Group-4" transform="translate(0.000000, 6.925869)">
                    <path d="M18.7184554,16.2480434 C19.7478416,16.6266736 22.5930297,17.7157299 23.6036436,18.0628535 C23.7159802,18.1103889 23.9779604,18.0945604 23.9405941,17.8892917 C23.7159802,15.8377564 22.3496436,4.07993484 22.106198,1.99669254 C22.0688317,1.69670365 21.9565545,1.64936862 21.6945149,1.57052699 C20.889802,1.31812357 18.9430693,0.734074398 18.1380594,0.49729906 C17.8573069,0.402628996 17.6890693,0.402628996 17.3894851,0.49729906 C16.1354257,0.797237864 12.1672871,1.82313076 12.1672871,1.82313076 C12.1672871,1.82313076 8.03073267,0.765580996 6.73930693,0.465792462 C6.45855446,0.386950832 6.30885149,0.371122398 5.99049505,0.481670986 C5.1669505,0.702567801 3.25782178,1.30224505 2.43427723,1.55469855 C2.09732673,1.66524714 2.0599604,1.7914238 2.02235644,1.98081402 C1.76037624,4.01672128 0.263168317,15.8219279 0.000950495049,17.8892917 C-0.0176435644,18.126067 0.225564356,18.1103889 0.450178218,18.0471753 C1.57330693,17.6683949 4.41831683,16.6266736 5.42916832,16.27955 C5.6349505,16.2007084 5.84079208,16.1533733 6.17774257,16.27955 C7.31946535,16.6740086 10.6698416,17.9525053 11.774198,18.3312857 C12.0176436,18.4260058 12.2422574,18.4416339 12.5230693,18.3312857 C13.6274257,17.9366267 16.8654653,16.6740086 17.9510495,16.2637216 C18.1568911,16.1690014 18.4750099,16.1533733 18.7184554,16.2480434 Z" id="Fill-1" stroke="#373737" stroke-width="0.6" fill="#373737"></path>
                    <path d="M7.08842867,16.6066663 C6.72063532,16.471922 6.40531435,16.3581747 6.17774257,16.27955 C5.84079208,16.1533733 5.6349505,16.2007084 5.42916832,16.27955 C4.41831683,16.6266736 1.57330693,17.6683949 0.450178218,18.0471753 C0.225564356,18.1103889 -0.0176435644,18.126067 0.000950495049,17.8892917 C0.189841704,16.4000457 1.01959202,9.85765372 1.56681418,5.55404212 L10.7452148,13.1835065 L7.08842867,16.6066663 Z" id="Combined-Shape" stroke="#373737" stroke-width="0.6" fill="#FFFFFF"></path>
                    <path d="M1.81177869,3.62905664 C1.90685979,2.88272063 1.98042788,2.30665031 2.02235644,1.98081402 C2.0599604,1.7914238 2.09732673,1.66524714 2.43427723,1.55469855 C3.25782178,1.30224505 5.1669505,0.702567801 5.99049505,0.481670986 C6.30885149,0.371122398 6.45855446,0.386950832 6.73930693,0.465792462 C7.16770278,0.565239266 7.90917734,0.748070316 8.7088789,0.948021486 L9.15908203,1.08634988 L3.94086914,5.47361369 L1.81177869,3.62905664 Z" id="Combined-Shape" stroke="#373737" stroke-width="0.6" fill="#FFFFFF"></path>
                    <path d="M17.2194504,16.543172 L5.28618164,6.50754356 L11.1547718,1.56522001 C11.7571167,1.71826676 12.1672871,1.82313076 12.1672871,1.82313076 C12.1672871,1.82313076 16.1354257,0.797237864 17.3894851,0.49729906 C17.6890693,0.402628996 17.8573069,0.402628996 18.1380594,0.49729906 C18.9430693,0.734074398 20.889802,1.31812357 21.6945149,1.57052699 C21.9565545,1.64936862 22.0688317,1.69670365 22.106198,1.99669254 C22.3496436,4.07993484 23.7159802,15.8377564 23.9405941,17.8892917 C23.9779604,18.0945604 23.7159802,18.1103889 23.6036436,18.0628535 C22.5930297,17.7157299 19.7478416,16.6266736 18.7184554,16.2480434 C18.4750099,16.1533733 18.1568911,16.1690014 17.9510495,16.2637216 C17.763858,16.334469 17.5126665,16.4305591 17.2194504,16.543172 Z" id="Combined-Shape" stroke="#373737" stroke-width="0.6" fill="#FFFFFF"></path>
                    <path d="M6.49592079,0.41845743 C6.34621782,0.402628996 6.19657426,0.41845743 5.99073267,0.481670986 C5.16712871,0.702567801 3.25782178,1.30224505 2.43427723,1.55469855 C2.09732673,1.66524714 2.0599604,1.7914238 2.02259406,1.98081402 C1.76037624,4.01672128 0.263168317,15.8219279 0.000950495049,17.8892917 C-0.0176435644,18.126067 0.225564356,18.1103889 0.450178218,18.0471753 C1.57330693,17.6683949 4.41831683,16.6266736 5.42916832,16.27955 C5.57881188,16.232215 5.70992079,16.1848799 5.91576238,16.2163865 L6.49592079,0.41845743 Z M17.6702376,0.41845743 C17.595505,0.434285864 17.5205941,0.449964028 17.4270297,0.481670986 C16.1727921,0.797237864 12.3545941,1.77579573 12.1861188,1.82313076 L12.1861188,18.3942989 C12.298396,18.3942989 12.4293267,18.3627923 12.5604356,18.3154573 C13.6647327,17.9207983 16.9028317,16.6583805 17.9884158,16.247843 C18.0633267,16.2163865 18.1568911,16.200508 18.2506337,16.1848799 L17.6702376,0.41845743 Z" id="Fill-3" fill="#000000" opacity="0.048290308"></path>
                </g>
                <path d="M14.6734752,0.0259537181 C17.5020381,0.0259537181 19.8,2.53324203 19.8,5.63832283 C19.8,5.69616779 19.7824947,7.14253666 19.3404301,8.16470916 C18.2974066,10.8070915 15.7873053,13.6034822 14.9564213,14.5099035 C14.7442819,14.7222466 14.6557455,14.7607487 14.3907536,14.4908055 C13.5421399,13.5843229 11.0671053,10.8262507 10.0243062,8.2034561 C9.65304825,7.43182268 9.5469505,5.77317198 9.5469505,5.63832283 C9.5469505,2.53324203 11.8451368,0.0259537181 14.6734752,0.0259537181 Z" id="Fill-7" fill="#FF6B00"></path>
                <ellipse id="Oval-3" fill="#F8F8F8" cx="14.7" cy="5.13953488" rx="2.1" ry="2.11627907"></ellipse>
            </g>
        </g>
    </g>
</svg>