<?xml version="1.0" encoding="UTF-8"?>
<svg width="105px" height="19px" viewBox="0 0 105 19" version="1.1" xmlns="http://www.w3.org/2000/svg" xmlns:xlink="http://www.w3.org/1999/xlink">
    <!-- Generator: sketchtool 52.2 (67145) - http://www.bohemiancoding.com/sketch -->
    <title>2B66E785-BEBA-4145-A286-8CBB16CFC57E@1x</title>
    <desc>Created with sketchtool.</desc>
    <defs>
        <polygon id="path-1" points="0 18.5882051 23.8953846 18.5882051 23.8953846 0.000102564103 0 0.000102564103"></polygon>
    </defs>
    <g id="Company" stroke="none" stroke-width="1" fill="none" fill-rule="evenodd">
        <g id="SO-01-05-Owner_register_paymentway_card" transform="translate(-894.000000, -474.000000)">
            <g id="img_cards" transform="translate(894.000000, 474.000000)">
                <g id="ic_master">
                    <path d="M23.4217846,18.336041 L23.4217846,18.3842462 L23.4662974,18.3842462 C23.4763487,18.3842462 23.4845538,18.3824 23.4905026,18.3782974 C23.4964513,18.3744 23.4995282,18.368041 23.4995282,18.3598359 C23.4995282,18.3518359 23.4964513,18.3458872 23.4905026,18.3417846 C23.4845538,18.3380923 23.4763487,18.336041 23.4662974,18.336041 L23.4217846,18.336041 Z M23.4667077,18.3019897 C23.4898872,18.3019897 23.5077333,18.3071179 23.5202462,18.3175795 C23.5329641,18.328041 23.5391179,18.3419897 23.5391179,18.3598359 C23.5391179,18.3748103 23.5341949,18.3871179 23.5241436,18.3969641 C23.5140923,18.4066051 23.4999385,18.4125538 23.4814769,18.4148103 L23.5405538,18.4831179 L23.4944,18.4831179 L23.4394256,18.4152205 L23.4217846,18.4152205 L23.4217846,18.4831179 L23.3832205,18.4831179 L23.3832205,18.3019897 L23.4667077,18.3019897 Z M23.4552205,18.5452718 C23.4763487,18.5452718 23.4956308,18.5411692 23.5138872,18.5333744 C23.5321436,18.5253744 23.5479385,18.5145026 23.5616821,18.500759 C23.5754256,18.4870154 23.5860923,18.4710154 23.5938872,18.4525538 C23.6016821,18.4340923 23.6055795,18.4144 23.6055795,18.3932718 C23.6055795,18.3723487 23.6016821,18.3526564 23.5938872,18.3339897 C23.5860923,18.3155282 23.5754256,18.2995282 23.5616821,18.2857846 C23.5479385,18.272041 23.5321436,18.2613744 23.5138872,18.2535795 C23.4956308,18.2457846 23.4763487,18.2418872 23.4552205,18.2418872 C23.4338872,18.2418872 23.4137846,18.2457846 23.3951179,18.2535795 C23.3764513,18.2613744 23.3604513,18.272041 23.3467077,18.2857846 C23.3329641,18.2995282 23.3222974,18.3155282 23.3145026,18.3339897 C23.3065026,18.3526564 23.3028103,18.3723487 23.3028103,18.3932718 C23.3028103,18.4144 23.3065026,18.4340923 23.3145026,18.4525538 C23.3222974,18.4710154 23.3329641,18.4870154 23.3467077,18.500759 C23.3604513,18.5145026 23.3764513,18.5253744 23.3951179,18.5333744 C23.4137846,18.5411692 23.4338872,18.5452718 23.4552205,18.5452718 Z M23.4552205,18.1984 C23.4825026,18.1984 23.5083487,18.2035282 23.5323487,18.2135795 C23.5563487,18.2238359 23.5774769,18.2377846 23.5955282,18.2554256 C23.6133744,18.2730667 23.6275282,18.2937846 23.6379897,18.3175795 C23.6482462,18.3411692 23.6533744,18.3664 23.6533744,18.3932718 C23.6533744,18.4199385 23.6482462,18.4451692 23.6379897,18.468759 C23.6275282,18.4923487 23.6133744,18.5128615 23.5955282,18.5305026 C23.5774769,18.5483487 23.5563487,18.5622974 23.5323487,18.5725538 C23.5083487,18.5830154 23.4825026,18.5881436 23.4552205,18.5881436 C23.4271179,18.5881436 23.4008615,18.5830154 23.3764513,18.5725538 C23.3522462,18.5622974 23.3311179,18.5483487 23.3134769,18.5305026 C23.2954256,18.5128615 23.2812718,18.4923487 23.2710154,18.468759 C23.260759,18.4451692 23.2554256,18.4199385 23.2554256,18.3932718 C23.2554256,18.3664 23.260759,18.3411692 23.2710154,18.3175795 C23.2812718,18.2937846 23.2954256,18.2730667 23.3134769,18.2554256 C23.3311179,18.2377846 23.3522462,18.2238359 23.3764513,18.2135795 C23.4008615,18.2035282 23.4271179,18.1984 23.4552205,18.1984 Z M5.16291282,17.5021949 C5.16291282,17.1575795 5.38834872,16.8745026 5.75757949,16.8745026 C6.1104,16.8745026 6.34834872,17.1452718 6.34834872,17.5021949 C6.34834872,17.8591179 6.1104,18.1296821 5.75757949,18.1296821 C5.38834872,18.1296821 5.16291282,17.8466051 5.16291282,17.5021949 Z M6.7504,17.5021949 L6.7504,16.5216821 L6.32373333,16.5216821 L6.32373333,16.7596308 C6.18834872,16.5834256 5.98322051,16.4726564 5.70424615,16.4726564 C5.15470769,16.4726564 4.72393846,16.9034256 4.72393846,17.5021949 C4.72393846,18.1009641 5.15470769,18.5317333 5.70424615,18.5317333 C5.98322051,18.5317333 6.18834872,18.4209641 6.32373333,18.244759 L6.32373333,18.4827077 L6.7504,18.4827077 L6.7504,17.5021949 Z M21.1565538,17.5021949 C21.1565538,17.1575795 21.3821949,16.8745026 21.7512205,16.8745026 C22.104041,16.8745026 22.3419897,17.1452718 22.3419897,17.5021949 C22.3419897,17.8591179 22.104041,18.1296821 21.7512205,18.1296821 C21.3821949,18.1296821 21.1565538,17.8466051 21.1565538,17.5021949 Z M22.744041,17.5021949 L22.744041,15.7341949 L22.3173744,15.7341949 L22.3173744,16.7596308 C22.1819897,16.5834256 21.9768615,16.4726564 21.6980923,16.4726564 C21.1483487,16.4726564 20.7175795,16.9034256 20.7175795,17.5021949 C20.7175795,18.1009641 21.1483487,18.5317333 21.6980923,18.5317333 C21.9768615,18.5317333 22.1819897,18.4209641 22.3173744,18.244759 L22.3173744,18.4827077 L22.744041,18.4827077 L22.744041,17.5021949 Z M12.0418872,16.8539897 C12.316759,16.8539897 12.4931692,17.0262974 12.5380923,17.3298872 L11.5208615,17.3298872 C11.5659897,17.0468103 11.7382974,16.8539897 12.0418872,16.8539897 Z M12.0500923,16.4726564 C11.4757333,16.4726564 11.0738872,16.8909128 11.0738872,17.5021949 C11.0738872,18.1257846 11.4921436,18.5317333 12.0788103,18.5317333 C12.3741949,18.5317333 12.6449641,18.4580923 12.8827077,18.2568615 L12.6736821,17.9409641 C12.5095795,18.0724513 12.3003487,18.1460923 12.1034256,18.1460923 C11.8285538,18.1460923 11.5782974,18.0189128 11.516759,17.6660923 L12.9729641,17.6660923 C12.9770667,17.6129641 12.9813744,17.5596308 12.9813744,17.5021949 C12.9770667,16.8909128 12.5996308,16.4726564 12.0500923,16.4726564 Z M17.1979897,17.5021949 C17.1979897,17.1575795 17.4238359,16.8745026 17.7930667,16.8745026 C18.1456821,16.8745026 18.3834256,17.1452718 18.3834256,17.5021949 C18.3834256,17.8591179 18.1456821,18.1296821 17.7930667,18.1296821 C17.4238359,18.1296821 17.1979897,17.8466051 17.1979897,17.5021949 Z M18.7854769,17.5021949 L18.7854769,16.5216821 L18.3588103,16.5216821 L18.3588103,16.7596308 C18.2236308,16.5834256 18.0185026,16.4726564 17.7395282,16.4726564 C17.1897846,16.4726564 16.7592205,16.9034256 16.7592205,17.5021949 C16.7592205,18.1009641 17.1897846,18.5317333 17.7395282,18.5317333 C18.0185026,18.5317333 18.2236308,18.4209641 18.3588103,18.244759 L18.3588103,18.4827077 L18.7854769,18.4827077 L18.7854769,17.5021949 Z M14.7901949,17.5021949 C14.7901949,18.0970667 15.2045538,18.5317333 15.8363487,18.5317333 C16.1315282,18.5317333 16.3284513,18.4662974 16.5417846,18.2978872 L16.3366564,17.9534769 C16.1768615,18.0681436 16.0084513,18.1296821 15.824041,18.1296821 C15.4835282,18.1257846 15.2332718,17.8794256 15.2332718,17.5021949 C15.2332718,17.1249641 15.4835282,16.8786051 15.824041,16.8745026 C16.0084513,16.8745026 16.1768615,16.936041 16.3366564,17.0509128 L16.5417846,16.7065026 C16.3284513,16.5380923 16.1315282,16.4726564 15.8363487,16.4726564 C15.2045538,16.4726564 14.7901949,16.9073231 14.7901949,17.5021949 Z M20.2870154,16.4726564 C20.0408615,16.4726564 19.8806564,16.5875282 19.7700923,16.7596308 L19.7700923,16.5216821 L19.3475282,16.5216821 L19.3475282,18.4827077 L19.7741949,18.4827077 L19.7741949,17.3832205 C19.7741949,17.0591179 19.9134769,16.8786051 20.1926564,16.8786051 C20.2788103,16.8786051 20.3688615,16.8909128 20.4593231,16.928041 L20.5904,16.5259897 C20.496041,16.4890667 20.3731692,16.4726564 20.2870154,16.4726564 Z M8.85870769,16.6775795 C8.65357949,16.5424 8.37050256,16.4726564 8.05870769,16.4726564 C7.56250256,16.4726564 7.24250256,16.7104 7.24250256,17.1003487 C7.24250256,17.4201436 7.48045128,17.6170667 7.91942564,17.6786051 L8.12045128,17.7073231 C8.35409231,17.7401436 8.46486154,17.8016821 8.46486154,17.9124513 C8.46486154,18.0642462 8.3089641,18.1504 8.01788718,18.1504 C7.72250256,18.1504 7.50916923,18.056041 7.36557949,17.9452718 L7.16455385,18.2775795 C7.3984,18.4496821 7.69378462,18.5317333 8.01378462,18.5317333 C8.57973333,18.5317333 8.90793846,18.2650667 8.90793846,17.8919385 C8.90793846,17.5473231 8.64947692,17.3668103 8.22301538,17.3052718 L8.02198974,17.2765538 C7.83737436,17.2519385 7.68968205,17.2150154 7.68968205,17.0839385 C7.68968205,16.9401436 7.82916923,16.8539897 8.06281026,16.8539897 C8.31306667,16.8539897 8.55511795,16.9483487 8.67409231,17.0224 L8.85870769,16.6775795 Z M14.3594256,16.4726564 C14.1134769,16.4726564 13.9534769,16.5875282 13.8427077,16.7596308 L13.8427077,16.5216821 L13.4201436,16.5216821 L13.4201436,18.4827077 L13.8466051,18.4827077 L13.8466051,17.3832205 C13.8466051,17.0591179 13.9862974,16.8786051 14.2650667,16.8786051 C14.3512205,16.8786051 14.4416821,16.8909128 14.5317333,16.928041 L14.6630154,16.5259897 C14.5686564,16.4890667 14.4455795,16.4726564 14.3594256,16.4726564 Z M10.7210667,16.5216821 L10.0238359,16.5216821 L10.0238359,15.9270154 L9.59286154,15.9270154 L9.59286154,16.5216821 L9.19511795,16.5216821 L9.19511795,16.9116308 L9.59286154,16.9116308 L9.59286154,17.8057846 C9.59286154,18.2611692 9.76927179,18.5317333 10.2738872,18.5317333 C10.4585026,18.5317333 10.6718359,18.4742974 10.8072205,18.3801436 L10.6841436,18.0150154 C10.5569641,18.0888615 10.4174769,18.1257846 10.3067077,18.1257846 C10.0933744,18.1257846 10.0238359,17.9945026 10.0238359,17.7975795 L10.0238359,16.9116308 L10.7210667,16.9116308 L10.7210667,16.5216821 Z M4.34650256,18.4827077 L4.34650256,17.2519385 C4.34650256,16.7883487 4.05111795,16.476759 3.57542564,16.4726564 C3.32516923,16.4683487 3.06670769,16.5462974 2.88619487,16.8211692 C2.75081026,16.6039385 2.53747692,16.4726564 2.23798974,16.4726564 C2.02875897,16.4726564 1.8238359,16.5341949 1.6638359,16.7639385 L1.6638359,16.5216821 L1.23716923,16.5216821 L1.23716923,18.4827077 L1.66793846,18.4827077 L1.66793846,17.3955282 C1.66793846,17.0550154 1.85665641,16.8745026 2.14793846,16.8745026 C2.43081026,16.8745026 2.5744,17.0591179 2.5744,17.3914256 L2.5744,18.4827077 L3.00516923,18.4827077 L3.00516923,17.3955282 C3.00516923,17.0550154 3.20209231,16.8745026 3.48516923,16.8745026 C3.77645128,16.8745026 3.91573333,17.0591179 3.91573333,17.3914256 L3.91573333,18.4827077 L4.34650256,18.4827077 Z" id="Fill-1" fill="#000000"></path>
                    <mask id="mask-2" fill="white">
                        <use xlink:href="#path-1"></use>
                    </mask>
                    <g id="Clip-4"></g>
                    <polygon id="Fill-3" fill="#FF5F00" mask="url(#mask-2)" points="8.71692308 13.1904615 15.1784615 13.1904615 15.1784615 1.57897436 8.71692308 1.57897436"></polygon>
                    <path d="M9.1272,7.38461538 C9.1272,5.02892308 10.2301744,2.93107692 11.9477128,1.57887179 C10.6915077,0.589948718 9.10668718,0 7.38402051,0 C3.30607179,0 2.05128205e-05,3.30625641 2.05128205e-05,7.38461538 C2.05128205e-05,11.4629744 3.30607179,14.7692308 7.38402051,14.7692308 C9.10668718,14.7692308 10.6915077,14.1792821 11.9477128,13.190359 C10.2301744,11.8381538 9.1272,9.74030769 9.1272,7.38461538" id="Fill-5" fill="#EB001B" mask="url(#mask-2)"></path>
                    <path d="M23.6649641,11.9606359 L23.6649641,11.6740718 L23.5900923,11.6740718 L23.5039385,11.8709949 L23.4179897,11.6740718 L23.3431179,11.6740718 L23.3431179,11.9606359 L23.3958359,11.9606359 L23.3958359,11.7442256 L23.4766564,11.9306872 L23.5314256,11.9306872 L23.612041,11.7438154 L23.612041,11.9606359 L23.6649641,11.9606359 Z M23.1909128,11.9606359 L23.1909128,11.7228923 L23.2867077,11.7228923 L23.2867077,11.6742769 L23.0426051,11.6742769 L23.0426051,11.7228923 L23.1386051,11.7228923 L23.1386051,11.9606359 L23.1909128,11.9606359 Z M23.8955282,7.3846359 C23.8955282,11.4629949 20.5894769,14.7690462 16.5113231,14.7690462 C14.7888615,14.7690462 13.2038359,14.1790974 11.9476308,13.1903795 C13.6653744,11.8381744 14.7681436,9.74032821 14.7681436,7.3846359 C14.7681436,5.02894359 13.6653744,2.93089231 11.9476308,1.57889231 C13.2038359,0.589969231 14.7888615,2.05128205e-05 16.5113231,2.05128205e-05 C20.5894769,2.05128205e-05 23.8955282,3.30627692 23.8955282,7.3846359 L23.8955282,7.3846359 Z" id="Fill-6" fill="#F79E1B" mask="url(#mask-2)"></path>
                </g>
                <g id="ic_visa" transform="translate(34.000000, 0.000000)">
                    <polygon id="Fill-1" fill="#FEFEFE" points="0 18.8912319 30.0833333 18.8912319 30.0833333 0 0 0"></polygon>
                    <polygon id="Fill-2" fill="#FBB216" points="0.52269958 18.901219 29.6035337 18.901219 29.6035337 16.3238277 0.52269958 16.3238277"></polygon>
                    <polygon id="Fill-3" fill="#0F357F" points="0.500971065 3.0729058 29.5818052 3.0729058 29.5818052 0.495514493 0.500971065 0.495514493"></polygon>
                    <path d="M14.7905962,5.9124971 L13.2577389,12.9968812 L11.4037142,12.9968812 L12.9367108,5.9124971 L14.7905962,5.9124971 Z M22.590536,10.4870913 L23.566573,7.82654058 L24.1279893,10.4870913 L22.590536,10.4870913 Z M24.6600186,12.9968812 L26.3743508,12.9968812 L24.8765908,5.9124971 L23.2951267,5.9124971 C22.9387227,5.9124971 22.6384465,6.11681594 22.5054392,6.43183043 L19.7234272,12.9968812 L21.6704874,12.9968812 L22.0571139,11.9389391 L24.4353686,11.9389391 L24.6600186,12.9968812 Z M19.8199446,10.6839754 C19.8281618,8.8144029 17.2056193,8.71072899 17.2230287,7.87541739 C17.2287389,7.62153333 17.4735838,7.35112754 18.009095,7.28201159 C18.2746919,7.24814203 19.0071375,7.22088116 19.8376324,7.5990913 L20.162421,6.09616377 C19.7163242,5.93672899 19.1423732,5.78307681 18.4283118,5.78307681 C16.5954569,5.78307681 15.3060518,6.74546812 15.2957455,8.12475797 C15.2840464,9.1447 16.216769,9.71332319 16.9180171,10.0529826 C17.6411313,10.4002145 17.8834693,10.6229826 17.8799874,10.9331783 C17.8749735,11.4084536 17.3032509,11.6188304 16.7712216,11.6268159 C15.8383597,11.6411348 15.2979739,11.377613 14.867058,11.1790768 L14.5305703,12.7321203 C14.964411,12.9284536 15.7638477,13.0993159 16.5916965,13.1081275 C18.5401494,13.1081275 19.8142343,12.1568884 19.8199446,10.6839754 L19.8199446,10.6839754 Z M12.1414523,5.9124971 L9.13743646,12.9968812 L7.17784155,12.9968812 L5.6994407,7.34300435 C5.60988708,6.99535942 5.53175397,6.8675913 5.2591934,6.72068551 C4.81337512,6.48125797 4.07730837,6.25738841 3.43023816,6.11805507 L3.47397041,5.9124971 L6.62882072,5.9124971 C7.0306282,5.9124971 7.3921853,6.17684493 7.4841066,6.63435942 L8.26501979,10.734229 L10.1936957,5.9124971 L12.1414523,5.9124971 Z" id="Fill-4" fill="#0F357F"></path>
                </g>
                <path d="M100.673782,11.5988183 L100.31365,11.5884362 C100.202042,11.5884362 100.126123,11.5806496 100.055394,11.5553431 C99.9716881,11.5248455 99.9106929,11.454117 99.9106929,11.3476999 C99.9106929,11.2613982 99.9359995,11.1932653 100.009972,11.1471944 C100.07551,11.1017725 100.15662,11.0965814 100.278611,11.0965814 L101.497866,11.0965814 L101.497866,10.5041494 L100.164407,10.5041494 C99.464909,10.5041494 99.2105461,10.9291691 99.2105461,11.3347222 C99.2105461,12.2146102 99.9918036,12.1763259 100.612786,12.1964414 C100.729586,12.1964414 100.800314,12.2146102 100.850927,12.2574366 C100.896998,12.2983163 100.932038,12.3612582 100.932038,12.4423688 C100.932038,12.5189372 100.899594,12.581879 100.853523,12.6253543 C100.797719,12.6759674 100.70947,12.6934872 100.582289,12.6934872 L99.2897101,12.6934872 L99.2897101,13.2891636 L100.58748,13.2891636 C101.259076,13.2891636 101.634131,13.0101431 101.634131,12.4125201 C101.634131,12.1257129 101.563403,11.9557051 101.434275,11.8213859 C101.281787,11.6695468 101.033913,11.6059561 100.673782,11.5988183 L100.673782,11.5988183 Z M93.9467914,13.2917592 L96.1698712,13.2917592 L96.1698712,12.7136027 L94.6106007,12.7110071 L94.6106007,12.1562105 L96.131587,12.1562105 L96.131587,11.5884362 L94.6106007,11.5884362 L94.6106007,11.081657 L96.1698712,11.081657 L96.1698712,10.5041494 L93.9467914,10.5041494 L93.9467914,13.2917592 Z M92.8417404,11.3833885 C92.8417404,11.2639937 92.7911274,11.177692 92.7048257,11.1322701 C92.623715,11.0842526 92.5043202,11.081657 92.3875209,11.081657 L91.5666815,11.081657 L91.5666815,11.707831 L92.3751921,11.707831 C92.5043202,11.707831 92.6159284,11.7026399 92.7048257,11.6494314 C92.7911274,11.5988183 92.8417404,11.5021345 92.8417404,11.3833885 L92.8417404,11.3833885 Z M93.1051877,11.9965848 C93.2544312,12.0497934 93.3764216,12.1484239 93.4322257,12.2295345 C93.5256651,12.3664492 93.5412383,12.4936307 93.5438339,12.7389092 L93.5438339,13.2917592 L92.8741846,13.2917592 L92.8741846,12.9420102 C92.8741846,12.7745979 92.8897579,12.5260749 92.765172,12.3969468 C92.669137,12.2983163 92.5218401,12.2730098 92.2785082,12.2730098 L91.5666815,12.2730098 L91.5666815,13.2917592 L90.8976811,13.2917592 L90.8976811,10.5041494 L92.4361873,10.5041494 C92.7729586,10.5041494 93.0162904,10.5190738 93.2369113,10.6352242 C93.44715,10.7624057 93.5788737,10.9369557 93.5788737,11.2536116 C93.5788737,11.7000444 93.2797377,11.9258564 93.1051877,11.9965848 L93.1051877,11.9965848 Z M97.9517093,11.5988183 L97.5941737,11.5884362 C97.4799699,11.5884362 97.4066459,11.5806496 97.3352686,11.5553431 C97.2522113,11.5248455 97.1886206,11.454117 97.1886206,11.3476999 C97.1886206,11.2613982 97.2165227,11.1932653 97.2898467,11.1471944 C97.3560329,11.1017725 97.434548,11.0965814 97.5558895,11.0965814 L98.7777398,11.0965814 L98.7777398,10.5041494 L97.4423346,10.5041494 C96.7447833,10.5041494 96.4917182,10.9291691 96.4917182,11.3347222 C96.4917182,12.2146102 97.2723268,12.1763259 97.8933097,12.1964414 C98.0101089,12.1964414 98.0782419,12.2146102 98.1314504,12.2574366 C98.1768724,12.2983163 98.212561,12.3612582 98.212561,12.4423688 C98.212561,12.5189372 98.1794679,12.581879 98.134046,12.6253543 C98.0782419,12.6759674 97.9867491,12.6934872 97.8628121,12.6934872 L96.5702333,12.6934872 L96.5702333,13.2891636 L97.8680031,13.2891636 C98.5370035,13.2891636 98.912059,13.0101431 98.912059,12.4125201 C98.912059,12.1257129 98.8439261,11.9557051 98.7122025,11.8213859 C98.56231,11.6695468 98.3137871,11.6059561 97.9517093,11.5988183 L97.9517093,11.5988183 Z M102.093542,12.4125201 C102.093542,12.0218913 101.989071,11.7331375 101.761313,11.499539 C101.756122,11.4943479 101.750931,11.4898057 101.74574,11.4846146 C101.872921,11.403504 101.956627,11.2588026 101.956627,11.0965814 L101.956627,10.5041494 C101.956627,10.2497866 101.750931,10.0447389 101.497866,10.0447389 L100.161811,10.0447389 C99.7458762,10.0447389 99.4344114,10.1667293 99.2060039,10.3516615 C99.1430621,10.173867 98.9782453,10.0447389 98.7751443,10.0447389 L97.4423346,10.0447389 C97.0744169,10.0447389 96.7856631,10.1362317 96.5650422,10.2828797 C96.4865271,10.1433694 96.3418258,10.0447389 96.1698712,10.0447389 L93.9467914,10.0447389 C93.7664014,10.0447389 93.6171579,10.1485605 93.5412383,10.2984529 C93.5107408,10.2757419 93.4880298,10.2497866 93.4523411,10.2296711 C93.1304942,10.0577166 92.7885318,10.0447389 92.4335917,10.0447389 L90.8976811,10.0447389 C90.7172911,10.0447389 90.565452,10.1485605 90.4895325,10.3010485 C90.2559339,10.1485605 89.9288959,10.0447389 89.4629965,10.0447389 L87.3366005,10.0447389 C87.2068235,10.0447389 87.0854821,10.0979475 86.9991804,10.1920358 L86.4943479,10.7345036 L86.0102797,10.196578 C85.9246269,10.100543 85.8006899,10.0447389 85.6683173,10.0447389 L82.9890714,10.0447389 C82.7353574,10.0447389 82.5303098,10.2497866 82.5303098,10.5041494 L82.5303098,13.2917592 C82.5303098,13.5454732 82.7353574,13.7505208 82.9890714,13.7505208 L85.6280865,13.7505208 C85.7572146,13.7505208 85.8792049,13.6973123 85.9648578,13.6032239 L86.4748813,13.0536184 L86.9557051,13.5960862 C87.0426556,13.6947167 87.1691882,13.7505208 87.3009119,13.7505208 L88.5934907,13.7505208 C88.8491513,13.7505208 89.0548479,13.5454732 89.0548479,13.2891636 L89.0548479,12.8154776 L89.4247123,12.8154776 C89.8730918,12.8154776 90.2001298,12.7239848 90.4363239,12.581879 L90.4363239,13.2891636 C90.4363239,13.5454732 90.6413715,13.7505208 90.8976811,13.7505208 L91.5666815,13.7505208 C91.8197466,13.7505208 92.0254431,13.5454732 92.0254431,13.2891636 L92.0254431,12.7317715 L92.2765616,12.7317715 C92.3395034,12.7317715 92.3829787,12.734367 92.4134763,12.7369625 C92.415423,12.78498 92.415423,12.8453263 92.4134763,12.8862061 L92.4134763,13.2891636 C92.4134763,13.5454732 92.618524,13.7505208 92.8741846,13.7505208 L93.5412383,13.7505208 C93.6171579,13.7505208 93.6833441,13.7304054 93.7436904,13.6973123 C93.8072812,13.7304054 93.8734674,13.7505208 93.9467914,13.7505208 L96.1698712,13.7505208 C96.2431952,13.7505208 96.3087326,13.7304054 96.3697278,13.6999078 C96.430723,13.7304054 96.4969093,13.7505208 96.5702333,13.7505208 L97.8654076,13.7505208 C98.2787473,13.7505208 98.6129231,13.6492948 98.8666371,13.4689048 C98.9373655,13.6337215 99.0995868,13.7505208 99.2897101,13.7505208 L100.58748,13.7505208 C101.53031,13.7505208 102.093542,13.2508794 102.093542,12.4125201 L102.093542,12.4125201 Z M82.6321847,8.95461221 L83.2174789,8.95461221 C83.3991667,8.95461221 83.5646324,8.84819508 83.6379564,8.68143165 L83.7268536,8.48352174 L83.7268536,8.49585055 C83.7268536,8.74956456 83.9325501,8.95461221 84.1849664,8.95461221 L84.8675933,8.95461221 C84.9616816,8.95461221 85.0427923,8.91957242 85.1154674,8.87350159 C85.1894403,8.91957242 85.2705509,8.95461221 85.3646392,8.95461221 L87.5890168,8.95461221 C87.6759674,8.95461221 87.751238,8.9247635 87.8200198,8.88388375 C87.8881527,8.9247635 87.9647212,8.95461221 88.050374,8.95461221 L88.7180766,8.95461221 C88.9711417,8.95461221 89.1768382,8.74956456 89.1768382,8.49585055 L89.1768382,7.94105393 L89.4292545,7.94105393 C89.488303,7.94105393 89.5291827,7.94364947 89.5596803,7.94624501 C89.561627,7.99426249 89.561627,8.0500666 89.561627,8.08575527 L89.561627,8.14869711 L89.5635736,8.49844609 C89.5635736,8.7521601 89.7725146,8.95461221 90.0229842,8.95461221 L90.6945801,8.95461221 C90.7704996,8.95461221 90.8392814,8.93190123 90.9022233,8.8988081 C90.965814,8.93190123 91.0345958,8.95461221 91.1105154,8.95461221 L91.7898979,8.95461221 C92.0124654,8.95461221 92.1902599,8.79498651 92.2330863,8.58474779 C92.6107373,8.90140364 93.1408763,8.95461221 93.4374168,8.95461221 L94.2180253,8.95461221 C94.4029575,8.95461221 94.5729654,8.84105734 94.6436939,8.66845395 L94.778013,8.33362932 L95.5462928,8.33362932 L95.6858031,8.67104949 C95.7591271,8.84365288 95.9239439,8.95461221 96.1114716,8.95461221 L97.4676411,8.95461221 C97.7207063,8.95461221 97.9264028,8.74956456 97.9264028,8.49585055 L97.9264028,8.05525768 L98.3345514,8.73204467 C98.4176087,8.87090605 98.5675011,8.95461221 98.7297223,8.95461221 L99.6725522,8.95461221 C99.9262662,8.95461221 100.131314,8.74956456 100.131314,8.49585055 L100.131314,5.70759195 C100.131314,5.45452683 99.9262662,5.2488303 99.6725522,5.2488303 L98.9905741,5.2488303 C98.737509,5.2488303 98.5292169,5.45452683 98.5292169,5.70759195 L98.5292169,5.99699464 L98.212561,5.47204672 C98.1288549,5.33253646 97.9822069,5.2488303 97.8199857,5.2488303 L96.8057785,5.2488303 C96.5520645,5.2488303 96.3470168,5.45452683 96.3470168,5.71018749 L96.3470168,6.10081623 L96.1010894,5.52785082 C96.0277654,5.36043851 95.8629487,5.2488303 95.6780165,5.2488303 L94.6819781,5.2488303 C94.5801031,5.2488303 94.4840682,5.28192343 94.4055531,5.34032308 C94.3296336,5.28192343 94.2329497,5.2488303 94.1317236,5.2488303 L93.4880298,5.2488303 C92.9403709,5.2488303 92.5348178,5.38314948 92.2382774,5.63945903 C92.2025887,5.42143369 92.020252,5.2488303 91.7898979,5.2488303 L91.1105154,5.2488303 C90.9301253,5.2488303 90.7756907,5.35784297 90.7023667,5.50773539 C90.6744647,5.48761996 90.6517537,5.4642601 90.6186606,5.44414467 C90.3065469,5.26440354 89.9775622,5.2488303 89.5823913,5.2488303 L88.050374,5.2488303 C87.9647212,5.2488303 87.8881527,5.27932789 87.8200198,5.32020764 C87.751238,5.27932789 87.6759674,5.2488303 87.5890168,5.2488303 L85.3646392,5.2488303 C85.2705509,5.2488303 85.1894403,5.28451897 85.1180629,5.33253646 C85.0447389,5.28451897 84.9636283,5.2488303 84.8701889,5.2488303 L83.7599467,5.2488303 C83.5743656,5.2488303 83.4076022,5.36043851 83.3368737,5.53044636 L82.940405,6.46354291 L82.5050032,5.51811755 C82.4290837,5.35589632 82.2668625,5.2488303 82.0864725,5.2488303 L80.9995902,5.2488303 C80.7458762,5.2488303 80.5408285,5.45452683 80.5408285,5.71018749 L80.5408285,6.11119839 L80.2916567,5.52785082 C80.2189816,5.35784297 80.0515693,5.2488303 79.8685837,5.2488303 L78.880332,5.2488303 C78.6947509,5.2488303 78.5286363,5.36043851 78.457259,5.52785082 L77.2659062,8.31351388 C77.2029644,8.45561969 77.2178887,8.61784092 77.3035415,8.74956456 C77.3878966,8.87609713 77.5313002,8.95461221 77.6870325,8.95461221 L78.4111881,8.95461221 C78.5967692,8.95461221 78.7635327,8.84365288 78.83491,8.67104949 L78.9744203,8.33362932 L79.7472422,8.33362932 L79.8835081,8.67104949 C79.9555343,8.84365288 80.1248933,8.95461221 80.3104744,8.95461221 L81.665995,8.95461221 C81.919709,8.95461221 82.1247567,8.74956456 82.1247567,8.49585055 L82.1247567,8.48352174 L82.2104095,8.68143165 C82.2850312,8.84819508 82.4491991,8.95461221 82.6321847,8.95461221 L82.6321847,8.95461221 Z M104.318568,0.755302073 L104.318568,18.2472935 C104.318568,18.6625798 103.981797,19 103.563266,19 L75.7553021,19 C75.3374202,19 75,18.6625798 75,18.2472935 L75,0.755302073 C75,0.336771285 75.3374202,0 75.7553021,0 L103.563266,0 C103.981797,0 104.318568,0.336771285 104.318568,0.755302073 L104.318568,0.755302073 Z M93.3076398,6.8003142 C93.3030976,6.81069636 93.2544312,6.90932687 93.2544312,7.1020457 C93.2544312,7.29476452 93.2849288,7.38560842 93.3076398,7.42648817 C93.3309996,7.43427479 93.373826,7.44141252 93.4400123,7.44141252 L93.7287661,6.76722106 L93.5003586,6.76722106 C93.3433284,6.76722106 93.3284041,6.7827943 93.3076398,6.8003142 L93.3076398,6.8003142 Z M94.7072846,7.29476452 L95.6248079,7.29476452 L95.1634507,6.18452239 L94.7072846,7.29476452 Z M92.4738226,8.18698132 C92.2382774,7.95143608 92.116287,7.62894027 92.116287,7.12475667 C92.116287,6.71141696 92.1902599,6.33376592 92.4738226,6.03462996 C92.6892524,5.81206243 93.0266726,5.71018749 93.4854342,5.71018749 L94.1291281,5.71018749 L94.1291281,6.30586387 L93.5003586,6.30586387 C93.2544312,6.30586387 93.1175165,6.34414808 92.9857928,6.47068065 C92.8741846,6.59007548 92.7956695,6.81069636 92.7956695,7.1020457 C92.7956695,7.40118165 92.8540692,7.61661145 92.9786551,7.75612172 C93.0824767,7.86772993 93.2700044,7.90017417 93.4419589,7.90017417 L93.7410949,7.90017417 L94.6819781,5.71018749 L95.6780165,5.71018749 L96.8057785,8.34401148 L96.8057785,5.71018749 L97.8199857,5.71018749 L98.9905741,7.64970459 L98.9905741,5.71018749 L99.6725522,5.71018749 L99.6725522,8.49585055 L98.7297223,8.49585055 L97.4676411,6.40514327 L97.4676411,8.49585055 L96.1114716,8.49585055 L95.849971,7.87486766 L94.4684949,7.87486766 L94.2180253,8.49585055 L93.4374168,8.49585055 C93.1129743,8.49585055 92.7048257,8.42252655 92.4738226,8.18698132 L92.4738226,8.18698132 Z M91.1105154,8.49585055 L91.7898979,8.49585055 L91.7898979,5.71018749 L91.1105154,5.71018749 L91.1105154,8.49585055 Z M88.715481,6.90932687 L89.5265872,6.90932687 C89.6557153,6.90932687 89.7621324,6.90673133 89.8562208,6.85092722 C89.939278,6.80550528 89.9924866,6.70882142 89.9924866,6.58747994 C89.9924866,6.46808511 89.939278,6.38243229 89.8536252,6.34155254 C89.7725146,6.2961306 89.6505242,6.29093952 89.5356716,6.29093952 L88.715481,6.29093952 L88.715481,6.90932687 Z M88.7180766,8.49585055 L88.050374,8.49585055 L88.050374,5.71018749 L89.5823913,5.71018749 C89.9217581,5.71018749 90.1722277,5.71797411 90.3876575,5.84256002 C90.5985451,5.96649705 90.7250777,6.14883371 90.7250777,6.46094737 C90.7250777,6.90413579 90.4285373,7.13513883 90.2559339,7.20327175 C90.4006352,7.25907585 90.5245722,7.35575971 90.5855674,7.43687033 C90.6796557,7.5757317 90.6945801,7.70031761 90.6945801,7.94884055 L90.6945801,8.49585055 L90.0229842,8.49585055 L90.0203886,8.14350603 C90.0203886,7.9767426 90.035313,7.7353574 89.9159182,7.60103822 C89.8179365,7.50500324 89.6699908,7.48229227 89.4292545,7.48229227 L88.7180766,7.48229227 L88.7180766,8.49585055 Z M89.8685496,11.4236194 C89.8685496,11.177692 89.7037328,11.081657 89.4629965,11.081657 L88.5960862,11.081657 L88.5960862,11.7908883 L89.454561,11.7908883 C89.7108705,11.7908883 89.8685496,11.6643557 89.8685496,11.4236194 L89.8685496,11.4236194 Z M87.9322769,10.8052321 L86.9083365,11.9024965 L87.9322769,13.0380451 L87.9322769,10.8052321 Z M86.0511595,11.8927632 L85.3237594,11.081657 L83.6554762,11.081657 L83.6554762,11.5884362 L85.1154674,11.5884362 L85.1154674,12.1562105 L83.6554762,12.1562105 L83.6554762,12.7110071 L85.2900174,12.7110071 L86.0511595,11.8927632 Z M90.5855674,11.4236194 C90.5855674,12.1964414 90.0080598,12.356716 89.4247123,12.356716 L88.5960862,12.356716 L88.5960862,13.2917592 L87.3009119,13.2917592 L86.4794235,12.3690448 L85.6280865,13.2917592 L82.9890714,13.2917592 L82.9890714,10.5041494 L85.6683173,10.5041494 L86.4872101,11.4184283 L87.3366005,10.5041494 L89.4629965,10.5041494 C89.9898911,10.5060961 90.5855674,10.6507974 90.5855674,11.4236194 L90.5855674,11.4236194 Z M79.8134285,7.29476452 L79.359209,6.18452239 L78.9062874,7.29476452 L79.8134285,7.29476452 Z M82.6321847,8.49585055 L81.665995,6.31105495 L81.665995,8.49585055 L80.3104744,8.49585055 L80.0541648,7.87486766 L78.6668488,7.87486766 L78.4085926,8.49585055 L77.6870325,8.49585055 L78.8783853,5.71018749 L79.8666371,5.71018749 L80.9995902,8.34920255 L80.9995902,5.71018749 L82.0864725,5.71018749 L82.9592227,7.59909156 L83.7599467,5.71018749 L84.8701889,5.71018749 L84.8701889,8.49585055 L84.1849664,8.49585055 L84.1823708,6.31365049 L83.2174789,8.49585055 L82.6321847,8.49585055 Z M87.5870701,8.49585055 L85.3646392,8.49585055 L85.3646392,5.71018749 L87.5870701,5.71018749 L87.5870701,6.29093952 L86.031044,6.29093952 L86.031044,6.79252758 L87.5513814,6.79252758 L87.5513814,7.36289744 L86.031044,7.36289744 L86.031044,7.91834295 L87.5870701,7.91834295 L87.5870701,8.49585055 Z" id="ic_amex" fill="#0074BF"></path>
            </g>
        </g>
    </g>
</svg>