<?xml version="1.0" encoding="UTF-8"?>
<svg width="30px" height="30px" viewBox="0 0 30 30" version="1.1" xmlns="http://www.w3.org/2000/svg" xmlns:xlink="http://www.w3.org/1999/xlink">
    <!-- Generator: sketchtool 52.2 (67145) - http://www.bohemiancoding.com/sketch -->
    <title>4C4B436C-2FE1-41B8-A245-399ACDA17D1D@1x</title>
    <desc>Created with sketchtool.</desc>
    <g id="Search" stroke="none" stroke-width="1" fill="none" fill-rule="evenodd">
        <g id="SP-06-02-Work-detail_jobinfo" transform="translate(-150.000000, -542.000000)" fill-rule="nonzero">
            <g id="Group-7" transform="translate(150.000000, 247.000000)">
                <g id="img_logocafe1" transform="translate(0.000000, 295.000000)">
                    <rect id="Rectangle-7" fill="#FFFFFF" x="0" y="0" width="30" height="30"></rect>
                    <path d="M14.8486575,5.3968102 C15.3723125,5.69754201 15.9276703,6.08475154 16.3503764,6.49496636 L16.184353,6.66126966 C15.3500648,6.57285174 14.4712811,6.68316627 13.6803759,6.69536184 C13.5922194,6.60666675 13.414516,6.47334693 13.5799832,6.36192371 L14.8486575,5.3968102 Z M29.6008205,15.7261857 C29.6119443,16.1014768 29.6472625,16.423828 29.5004278,16.8079887 C27.9761831,17.2401001 26.9750372,15.63167 25.4961223,15.8741956 L25.663258,16.7079295 C27.0314907,16.7528314 27.88608,18.0605297 29.2996424,18.0042638 C29.098857,18.4039461 29.3891893,19.4572003 28.49956,19.0361758 C27.5760029,18.8149924 26.9082942,18.0042638 25.8963025,18.0042638 C25.7742184,18.2276646 25.8515291,18.5369887 25.8301157,18.801411 C26.8977265,18.9682686 27.6655498,19.8676923 28.7328826,20.0337185 C28.6324899,20.3993086 28.5329315,20.8086919 28.2323096,21.0315383 C27.3640937,20.8208874 26.6858173,20.0436967 25.7614259,20.0658704 L25.5967931,20.83142 C26.4752986,20.8538709 27.0428927,21.6285672 27.8324075,21.8611146 C27.854099,22.1840202 27.5646009,22.4725564 27.3977433,22.7608155 C26.6969412,22.5509962 26.1624405,21.9509184 25.3615238,21.995266 C25.3503999,21.6945341 25.5294938,21.353058 25.4619165,21.0315383 C24.5625537,21.2981779 23.9593633,20.4652755 23.292767,19.9655341 C23.2735784,18.3304954 21.5466017,17.2578391 21.4553862,15.7261857 C21.4378661,15.4207419 21.4845863,15.0947875 21.6241905,14.7444418 C22.1917846,13.4364663 22.013525,11.7382324 21.391146,10.5186748 C21.2020407,10.1977095 20.8669349,9.94437409 20.554633,9.75561984 C21.0115448,10.7207334 21.5682932,11.8610197 21.2904752,13.0473166 C21.2582161,13.9633706 20.7159287,14.8431151 20.7098106,15.7261857 C20.7075858,16.0410533 20.7751632,16.3559209 20.9567599,16.6738374 C21.6803659,17.9726662 22.9821337,19.2022019 22.4926846,20.8311428 C22.3580861,21.3314386 21.9573496,21.718371 21.857235,22.2275362 C22.7037595,22.9262873 23.50412,23.7137334 24.6273501,23.758081 C25.0275304,23.5033598 24.8053316,22.373606 25.628496,22.8946897 L26.8307054,23.4939359 C26.7431051,23.8146241 26.47363,24.1020517 26.2297397,24.3229579 C25.7736622,24.1017745 25.3287084,23.8365207 24.7600019,23.8581402 C24.59231,24.0355303 24.4479781,24.23454 24.4607706,24.488984 C24.8609508,24.5546738 25.2280376,24.7229173 25.5623091,24.9562963 C25.4071315,25.2894573 25.104563,25.4981679 24.8264669,25.7534435 L23.8940107,25.4211141 C23.7382769,25.643129 23.4148512,25.8765079 23.5283144,26.1201423 C23.7388331,26.2099461 23.9721557,26.3313475 24.1270553,26.4868411 C23.7154731,26.9303166 23.1937648,27.2155267 22.6918014,27.5165357 C22.259362,26.1079467 20.8346757,25.1203822 20.957038,23.4914414 L20.8908511,23.4254744 C20.5560235,23.8007655 20.6678181,24.4008433 20.6895096,24.8878348 C21.090246,25.9081056 22.0463404,26.6961061 22.1912284,27.8150501 C22.0238146,28.103032 21.6464382,28.1604067 21.3569402,28.2823624 C21.3905898,26.2651033 18.320409,24.7351129 20.2893293,22.6945714 C20.9459142,21.6953657 22.0460623,20.7418934 21.6561716,19.3662879 C21.2559913,18.0380788 19.8404822,17.2151546 19.8529966,15.7261857 L19.8552213,15.6100505 C20.1775347,14.057332 21.1569891,12.4051087 20.3557943,10.7534397 C20.1324831,10.089058 19.6335787,9.33404096 18.9550243,9.05631444 C19.9667379,10.2104594 20.3677524,12.0935671 19.7890345,13.6465628 C19.4973117,14.2643796 19.0957409,15.0002718 19.055417,15.7264629 L19.0529141,15.7264629 C19.0315007,16.1056344 19.1090895,16.4828657 19.3546484,16.8404178 C20.1227498,18.0827035 21.4570548,19.4472221 20.6895096,21.0661848 C19.8218498,22.3627963 18.3090071,23.6818586 19.153863,25.3897936 C19.7656744,26.4097872 20.7120354,27.4275634 20.4567431,28.6814904 L19.4555972,29.0138198 C20.1230278,26.675041 16.8520617,25.3008213 18.2214068,22.961211 C19.0668189,21.7083928 20.5788273,20.5329056 19.7228476,18.8701497 C19.2111508,17.8399007 18.1538295,17.2301219 18.187201,15.9426571 L18.2236316,15.7264629 C18.5681926,13.9004526 19.9608978,12.1720069 18.9870053,10.2207147 C18.731157,9.64447379 18.2197383,9.05714595 17.6521441,8.72426217 L17.6179383,8.75835435 C18.7531265,9.85595616 19.0985219,11.6620101 18.4864324,13.1138379 C18.2008277,13.965588 17.5739992,14.814012 17.4466311,15.72674 C17.3860062,16.1571884 17.4371759,16.6031584 17.6866281,17.0729653 C18.4096779,18.2140831 19.6775179,19.424494 18.8863346,20.8998815 C18.0531587,22.1183304 16.6621221,23.304073 17.2177581,24.8886663 C17.8298475,26.2750815 19.107699,27.5958069 18.4177427,29.3148288 L17.3846157,29.5473762 C18.207502,27.8721476 16.9735897,26.2096689 16.250818,24.7567323 C15.3714782,22.6721204 18.1399247,21.6740234 18.1844201,19.7681875 C18.1738524,18.5380974 16.8617951,17.8396235 16.5845333,16.708761 C16.0166611,16.2311934 15.4279317,16.898624 14.7490991,16.774728 C14.24797,16.8750643 13.4782,16.0870639 13.1789687,16.9413085 C12.8227276,18.1935724 11.1994807,19.1140612 11.9127972,20.5994269 C12.5916297,21.9193208 14.2251661,22.8844343 13.6795416,24.5926464 C13.1909268,26.1880495 11.5768571,27.7072302 12.578003,29.5473762 C12.1666989,29.4146108 11.3988756,29.6687777 11.4099995,29.014097 C10.7762185,26.7856327 13.4790343,25.4873582 12.6441899,23.2600026 C12.2556897,21.8957611 10.4856081,21.14213 10.8752207,19.5012707 C11.1633282,18.1506107 12.6839576,17.2062851 12.4706579,15.72674 C12.453416,15.6028441 12.4228254,15.4761764 12.3791643,15.3439652 C11.8115702,13.7474535 10.6535781,12.1503874 11.3438126,10.2869589 C11.533196,9.75478832 11.9116848,9.30022595 12.2442877,8.8245985 C11.1430272,9.41192634 10.5873913,10.654212 10.6101951,11.91784 C10.5620845,13.2920596 11.5807505,14.4692099 11.7256385,15.72674 C11.7826482,16.2342423 11.6992194,16.7539401 11.3438126,17.3052356 C10.621319,18.2822675 9.67634848,19.3125165 10.1096222,20.5991497 C10.5214825,21.8968698 12.1455636,22.6832073 12.045449,24.1915783 C12.0343252,25.9760127 9.95416647,27.0869188 10.5437302,29.0825585 L9.50837845,28.7477345 C9.09735244,26.9743869 10.9881277,26.0672024 11.0098192,24.4263431 C11.2773476,22.5396321 8.86291744,21.8394952 9.0078055,20.0001806 C8.99751594,18.6026785 10.2317064,17.7176678 10.7767747,16.5421806 C10.870215,16.2561389 10.9013617,15.985896 10.8888474,15.72674 C10.8221043,14.4270797 9.64714839,13.4109665 9.84209375,11.9497148 C9.90772442,10.8742867 10.2748113,9.93162417 10.9758915,9.12283576 C10.0086733,9.51004529 9.60904923,10.6198427 9.34179889,11.5514184 C8.87821272,13.0450992 9.98503513,14.3885528 10.0959955,15.72674 C10.1452185,16.3176711 10.0003304,16.9052761 9.44246968,17.5059082 C8.64099676,18.4471849 7.82840001,19.6348677 8.40683986,20.8998815 C9.01948553,22.2957206 10.9444666,23.3822355 10.1096222,25.123154 C9.65410079,26.221033 8.56340796,27.0519951 8.60818143,28.3488837 C8.3192396,28.226928 8.01945202,28.1052494 7.77389318,27.884066 C7.77389318,26.232397 10.1313137,25.2007622 9.00808359,23.4601209 C8.9085252,23.8035372 8.8871118,24.2702952 8.80924489,24.6583362 C8.41935419,25.6677973 7.58534403,26.4757542 7.27332023,27.5193074 C6.75133388,27.3186348 6.20570936,26.8967787 5.77160138,26.4533032 L6.37284511,26.0866044 C6.30610205,25.8643124 6.12839865,25.6761125 5.97294294,25.4876354 C5.58249604,25.4330325 5.32609145,25.688308 5.00405619,25.7883672 C4.7259601,25.5439013 4.45759738,25.3221636 4.2359548,25.0228176 C4.43562779,24.4562777 5.99519063,24.9246987 5.20511965,23.993123 C4.67173137,23.6607936 4.13639641,24.1355895 3.66919499,24.3573272 L3.03597021,23.5601801 C3.58103853,23.2278506 4.12471637,22.7610927 4.80271462,22.8949668 C4.96985037,23.1948671 4.9815304,23.6358481 5.30328757,23.7924503 C6.44932153,23.7702766 7.26136209,22.9063309 8.13986762,22.2297536 C7.52750005,21.3217376 7.02915186,20.0680878 7.5731078,18.9699317 C8.00888437,17.8695581 9.14435067,16.9426944 9.19579845,15.7261857 C9.20747849,15.4492907 9.1640955,15.1579827 9.04256751,14.844501 C8.44215806,13.3031465 8.23024885,11.2199204 9.37628281,9.85567899 C8.75306949,10.0225366 8.38570456,10.7966785 8.17407344,11.3842835 C7.48522944,12.8893285 8.35650447,14.2837817 8.38653885,15.7261857 C8.39071029,15.9856188 8.36957499,16.2456063 8.30644718,16.507534 C7.71660538,17.693831 6.76106724,18.7346125 6.60588963,20.0996854 C5.92705709,20.5312425 5.36975254,21.2859824 4.40253436,21.0312611 C4.36860664,21.2859824 4.44647354,21.6743006 4.53518619,21.9628368 C3.76819719,21.9306848 3.24509846,22.4941759 2.59935935,22.7602612 C2.2553545,22.6502238 2.16580756,22.2070255 2.03259954,21.8968698 C2.78846469,21.6424258 3.33381111,20.8871316 4.20174899,20.89905 C4.30241977,20.620492 4.14529548,20.3652164 4.1010782,20.0994083 C3.02150921,19.6218406 1.31010591,22.4603609 1.16633024,19.9993491 C2.24506494,19.9328278 2.93446513,18.9347308 4.00291029,18.835226 L4.03489134,18.0380788 C2.82239241,17.916123 2.0423329,19.1584087 0.830390169,19.0358986 L0.563139833,17.9721118 C1.96502219,18.0594211 2.80042282,16.8071572 4.13556212,16.7398043 C4.31298742,16.5072569 4.33440082,16.1635634 4.36860664,15.8423208 C2.91110506,15.6530122 1.91107155,17.2628282 0.364301133,16.7738965 C0.364301133,16.7738965 0.310906685,16.1039714 0.281984693,15.7261857 L0.284209461,15.7261857 C0.27364181,15.5784529 0.263630351,15.475622 0.263630351,15.475622 C1.64298692,16.0089013 2.85492966,15.021614 4.03489134,14.5118944 C4.33495701,14.4223678 4.80299272,14.5775842 4.93759122,14.2452547 C4.92591119,13.9902563 5.39255641,13.6920191 5.00405619,13.5140745 C3.27902618,13.2806956 2.13299222,15.3544978 0.364023037,14.411558 L0.231371206,14.1449184 C0.599014228,9.13392265 3.43448189,4.28950735 8.13958953,1.90554947 C10.0451039,0.820143227 12.4125358,0.266907563 14.7999907,0.247228339 C17.6813442,0.223391532 20.5927321,0.976745506 22.7585444,2.50479571 C24.8617851,3.79059744 26.8735322,5.90957872 27.9653374,8.06071198 C29.0095882,9.94548278 29.4901382,12.0603065 29.6336358,14.3117761 C27.8087693,15.6859957 26.5845903,13.0171048 24.7263523,13.6144109 C24.8264669,13.9032243 24.881808,14.2020159 25.0942734,14.4459274 C26.7411584,14.4342862 27.8752343,16.1530308 29.5991519,15.475622 L29.6008205,15.7261857 Z M8.63960628,9.55494718 C7.48244848,8.80076169 6.01549164,9.51087681 4.93703503,9.92164597 C4.83692044,8.91218491 4.42561633,7.99252763 3.56796801,7.3273144 C3.48481728,7.28601575 3.36968551,7.19926086 3.26623376,7.1928859 C3.20421834,7.18900549 3.14526197,7.21395098 3.09937611,7.29294505 C3.48815444,9.67634859 1.93359733,11.3393817 0.832058745,13.1473758 C1.19886748,13.4461674 1.78815308,13.4015426 2.23310681,13.3136791 C3.40083227,12.848307 4.5132166,12.0381327 5.90369702,12.3158592 C6.31500112,11.6173853 7.00579179,10.9408081 7.57227352,10.3864637 C7.91850314,10.0879493 8.39404744,9.89836351 8.63960628,9.55494718 Z M12.1778228,11.0516769 C12.1555751,11.1952521 12.1889466,11.451082 12.4108673,11.3521316 C12.7562626,10.8753954 13.3677959,11.2526268 13.7457285,11.2861646 L13.7457285,11.1520133 C13.5382688,10.8274446 13.1116694,10.6644674 12.6783957,10.6805434 C12.5782811,10.6841466 12.476776,10.6985596 12.3788862,10.7212877 C12.2339982,10.7534397 12.1330493,10.8856508 12.1778228,11.0516769 Z M17.6173821,9.62340871 C17.3067488,8.93574454 16.5948228,8.65746368 15.9488056,8.49116037 C15.6320542,8.45235627 15.3033446,8.42602491 14.977416,8.42297601 C14.9162349,8.42242167 14.8553318,8.42159015 14.7944288,8.42297601 C13.8825517,8.44126938 13.0112767,8.67464835 12.4790008,9.42273605 C12.4025244,9.63394125 12.0665843,9.93051548 12.3786081,10.1198241 C13.0794103,10.0751994 13.8792146,9.98761295 14.346416,10.5871364 C14.346416,11.1198613 14.6915332,11.8285905 14.1133715,12.0835889 C13.6342119,11.6414993 13.0668959,12.2717889 12.5454658,11.9170085 C12.3004631,11.7726018 12.1452855,11.9411224 12.0448928,12.1517733 C11.9000048,13.5262701 12.6222203,15.0432334 13.912308,15.8079515 C14.4351287,15.9958742 15.1381556,16.1746503 15.6837801,15.9080106 C16.9963936,15.2987862 17.5400714,13.9026699 17.7845179,12.6163139 C17.7517025,12.3715708 17.7633826,11.8945575 17.4188215,11.8829163 C17.0297651,12.1282137 16.462171,11.9832526 16.0497545,11.8829163 C15.8058643,11.961356 15.7947404,12.3169679 15.5172005,12.3843208 L15.3481181,12.2498922 C15.20323,11.640945 15.1139612,10.7758906 15.6818334,10.3545889 C16.3164487,10.0995905 17.0617462,9.98816729 17.7180529,10.1882856 C17.8406933,9.97763475 17.651588,9.81188579 17.6173821,9.62340871 Z M16.9477268,10.7165758 C16.9035095,10.7176845 16.8606827,10.7199018 16.8172997,10.7212877 C16.5842552,10.8762269 15.9048665,10.7648037 16.1501472,11.2861646 C16.5731313,10.9527265 17.162695,11.1863826 17.5854011,11.3521316 C17.7416911,11.2748005 17.7077634,11.1195841 17.7180529,10.98571 C17.582342,10.7340376 17.258082,10.710478 16.9477268,10.7165758 Z M21.7910482,6.02876276 C20.9676057,5.98524673 20.2782055,6.45117315 19.521506,6.66182401 C19.4555972,6.02017042 19.9447683,5.34248445 20.0562848,4.69833631 C18.8329401,4.77677604 17.8640534,5.51072796 16.8520617,6.09694711 C16.6179048,5.53290174 16.3829136,4.96608464 16.1504253,4.39982188 L17.4852865,3.13563958 L17.5194923,2.96905911 L15.7163173,2.86899995 C15.405684,2.326574 15.2833217,1.67327918 14.9162349,1.17436927 C14.6158911,1.73980051 14.4139934,2.33821523 14.1139277,2.90309213 L12.3129774,3.00342846 L12.3129774,3.13563958 L13.6798197,4.3657297 C13.512684,4.99795944 13.3575063,5.68506926 12.9462022,6.16291409 C12.1452855,5.68479209 11.3557707,5.16453991 10.4778214,4.83248765 C10.2664684,4.76458046 9.96529031,4.65398877 9.77618498,4.79839547 C10.054003,5.40845143 10.4427813,6.06451797 10.3774287,6.73028554 C10.0100638,6.6629327 9.72140005,6.42816786 9.37628281,6.32949457 C8.96358822,6.21723984 8.47386102,5.99799665 8.07340266,6.13131646 C8.74111135,7.06206063 9.28590158,8.03632083 9.47445073,9.15637359 C11.6892079,8.09092375 14.2718863,7.50498177 16.9530106,7.96037565 C18.2097268,8.15966245 19.365216,8.66993642 20.4890023,9.09012944 C20.5329415,7.91575093 21.278239,6.97197967 21.7910482,6.02876276 Z M25.5942902,12.4159184 C26.7280879,12.7149872 27.8655009,13.946186 29.0660417,13.1473758 C28.0204004,11.4180985 26.4641747,9.82103247 26.8968922,7.55958469 C26.9422219,7.40519978 26.8421073,7.24887468 26.6980535,7.22697808 C26.0197772,7.50331873 25.4944537,8.16936347 25.226091,8.82404415 C25.1156868,9.21125368 25.0503343,9.62285436 24.8948785,9.98789012 C24.0822818,9.56631124 23.2151782,9.15803663 22.2251561,9.25670992 C21.8680808,9.30105747 21.356384,9.32433993 21.2904752,9.68965286 C22.4139834,10.2880676 23.3378186,11.2867189 24.0263845,12.3502286 C24.5058221,12.2723432 25.0937172,12.3388645 25.5942902,12.4159184 Z M13.7137474,13.9788923 L13.7457285,14.1792878 C14.1803926,14.467824 14.3141569,14.9570329 14.9159568,14.9126853 C15.4496232,14.944283 15.8500815,14.4459274 16.1159414,14.0470766 C15.3937259,13.9475718 14.5149422,14.1014024 13.7137474,13.9788923 Z M14.3147131,13.0814088 C14.3364045,13.1701039 14.25965,13.3031465 14.3808999,13.3480484 C14.7368629,13.2709945 15.3817677,13.5368027 15.5806064,13.115501 C15.4418365,12.9605617 15.2151882,12.89016 14.977416,12.89016 C14.7396439,12.89016 14.4929726,12.9591758 14.3147131,13.0814088 Z" id="inner_artwork" fill="#067655"></path>
                    <polygon id="path3032" fill="#067655" points="24.8860768 29.6296908 24.8860768 27.6515906 24.1772572 27.6515906 24.1772572 27.2488234 26.0755911 27.2488234 26.0755911 27.6515906 25.3684011 27.6515906 25.3684011 29.6296908"></polygon>
                    <polygon id="path3034" fill="#067655" points="26.3819306 29.6296908 26.3819306 27.2488234 27.1037846 27.2488234 27.5372224 28.8728805 27.965774 27.2488234 28.6892577 27.2488234 28.6892577 29.6296908 28.2411531 29.6296908 28.2411531 27.7555302 27.7669798 29.6296908 27.3025788 29.6296908 26.8300352 27.7555302 26.8300352 29.6296908"></polygon>
                </g>
            </g>
        </g>
    </g>
</svg>