<?xml version="1.0" encoding="UTF-8"?>
<svg width="99px" height="15px" viewBox="0 0 99 15" version="1.1" xmlns="http://www.w3.org/2000/svg" xmlns:xlink="http://www.w3.org/1999/xlink">
    <!-- Generator: sketchtool 52.2 (67145) - http://www.bohemiancoding.com/sketch -->
    <title>ADD8C35C-A4D1-40DD-AA54-598C67D163EC</title>
    <desc>Created with sketchtool.</desc>
    <defs>
        <rect id="path-1" x="0" y="0.292899408" width="21" height="12.8060281"></rect>
    </defs>
    <g id="Login&amp;Signup" stroke="none" stroke-width="1" fill="none" fill-rule="evenodd">
        <g id="SO-02-01-Login" transform="translate(-669.000000, -913.000000)">
            <g id="Group-7" transform="translate(0.000000, 900.000000)">
                <g id="img_logofooter" transform="translate(669.000000, 13.000000)">
                    <path d="M4.6525,10.557 L2.0395,4.759 C1.8445,4.343 1.7015,3.94 1.4545,3.147 C1.4935,3.706 1.5455,4.512 1.5455,4.824 L1.5455,10.388 C1.5455,11.077 1.5715,11.48 1.6495,11.922 L0.4665,11.922 C0.5445,11.441 0.5705,11.064 0.5705,10.388 L0.5705,3.589 C0.5705,2.939 0.5445,2.523 0.4665,2.042 L1.9745,2.042 C2.0525,2.432 2.2085,2.9 2.4035,3.329 L5.6145,10.492 L8.8125,3.329 C9.0335,2.822 9.1765,2.419 9.2545,2.042 L10.7495,2.042 C10.6715,2.536 10.6455,2.913 10.6455,3.589 L10.6455,10.388 C10.6455,11.103 10.6715,11.454 10.7495,11.922 L9.5665,11.922 C9.6445,11.48 9.6705,11.012 9.6705,10.388 L9.6705,4.746 C9.6705,4.382 9.7095,3.68 9.7615,3.147 C9.6315,3.68 9.4495,4.2 9.2025,4.733 L6.5505,10.57 C6.2905,11.155 6.1605,11.493 6.0565,11.922 L5.1335,11.922 C5.0685,11.584 4.9125,11.142 4.6525,10.557 Z M18.3015,11.922 L18.3015,10.999 C17.7945,11.454 17.5475,11.623 17.1055,11.792 C16.6635,11.961 16.1955,12.052 15.7535,12.052 C14.3235,12.052 13.4525,11.311 13.4525,10.076 C13.4525,9.036 14.1025,8.282 15.3115,7.944 C16.0785,7.723 16.7025,7.645 18.3015,7.606 L18.3015,6.852 C18.3015,5.968 17.7425,5.513 16.6635,5.513 C15.9485,5.513 15.4155,5.695 15.0515,6.072 C14.8825,6.254 14.7785,6.436 14.6485,6.826 L13.6345,6.605 C13.8685,6.007 14.0375,5.734 14.3625,5.448 C14.8955,4.954 15.6755,4.707 16.6505,4.707 C18.3665,4.707 19.2505,5.435 19.2505,6.839 L19.2505,10.492 C19.2505,11.077 19.2765,11.402 19.3545,11.922 L18.3015,11.922 Z M18.3015,9.218 L18.3015,8.373 C16.7545,8.412 16.0135,8.503 15.4285,8.75 C14.7655,9.023 14.4405,9.465 14.4405,10.089 C14.4405,10.804 14.9735,11.259 15.8185,11.259 C16.5725,11.259 17.3915,10.895 17.8985,10.336 C18.1975,10.011 18.3015,9.738 18.3015,9.218 Z M22.9675,2.978 L24.1375,2.978 C24.0725,3.394 24.0465,3.862 24.0465,4.421 L24.0465,4.915 L24.6705,4.915 C25.2685,4.915 25.5415,4.902 25.9965,4.837 L25.9965,5.825 C25.5805,5.76 25.2555,5.747 24.6705,5.747 L24.0465,5.747 L24.0465,10.271 C24.0465,10.648 24.0985,10.843 24.2155,10.96 C24.3585,11.103 24.5795,11.181 24.8525,11.181 C25.1905,11.181 25.4505,11.103 25.8795,10.843 L26.1655,11.753 C25.6325,11.974 25.2295,12.052 24.6965,12.052 C24.1245,12.052 23.6825,11.909 23.4225,11.649 C23.1625,11.389 23.0585,11.012 23.0585,10.401 L23.0585,5.747 L22.5385,5.747 C22.0965,5.747 21.7975,5.773 21.3685,5.825 L21.3685,4.837 C21.7325,4.902 21.9925,4.915 22.5385,4.915 L23.0585,4.915 L23.0585,4.421 C23.0585,3.901 23.0325,3.407 22.9675,2.978 Z M34.1725,6.761 L33.2235,7.06 C32.8465,6.046 32.2225,5.565 31.2605,5.565 C29.8305,5.565 28.9205,6.683 28.9205,8.425 C28.9205,10.141 29.8565,11.233 31.3125,11.233 C32.0535,11.233 32.6645,10.934 33.0025,10.401 C33.1325,10.206 33.1975,10.05 33.2885,9.738 L34.2635,9.998 C34.0815,10.466 33.9515,10.713 33.7305,10.999 C33.1585,11.714 32.3265,12.091 31.2735,12.091 C29.2325,12.091 27.9195,10.674 27.9195,8.451 C27.9195,6.202 29.2195,4.733 31.2085,4.733 C32.2875,4.733 33.1585,5.149 33.7175,5.929 C33.8995,6.176 34.0165,6.384 34.1725,6.761 Z M37.9155,11.922 L36.7585,11.922 C36.8235,11.454 36.8495,11.103 36.8495,10.453 L36.8495,3.511 C36.8495,2.861 36.8235,2.523 36.7585,2.042 L37.9155,2.042 C37.8375,2.523 37.8115,2.861 37.8115,3.524 L37.8115,5.721 C37.8115,5.929 37.8115,6.033 37.7725,6.371 C38.0325,5.942 38.1755,5.747 38.4875,5.487 C39.0465,5.006 39.6445,4.785 40.4375,4.785 C41.9585,4.785 42.8685,5.682 42.8685,7.203 L42.8685,10.466 C42.8685,11.064 42.8945,11.441 42.9595,11.922 L41.7895,11.922 C41.8545,11.493 41.8805,11.103 41.8805,10.453 L41.8805,7.385 C41.8805,6.254 41.3215,5.643 40.3075,5.643 C39.5795,5.643 38.9815,5.955 38.4745,6.592 C38.1105,7.06 37.9415,7.411 37.8245,7.957 L37.8245,10.453 C37.8245,11.025 37.8505,11.415 37.9155,11.922 Z M55.5285,11.922 L52.6165,11.922 C52.0445,11.922 51.6415,11.935 51.1865,11.961 C51.2775,11.441 51.3035,11.103 51.3035,10.349 L51.3035,3.394 C51.3035,2.835 51.2775,2.484 51.1995,2.016 C51.6025,2.042 51.8625,2.042 52.6165,2.042 L55.3855,2.042 C57.2705,2.042 58.3235,2.9 58.3235,4.434 C58.3235,5.188 58.0895,5.76 57.6215,6.176 C57.3485,6.41 57.1145,6.527 56.5945,6.696 C57.1925,6.813 57.5045,6.943 57.8555,7.242 C58.3885,7.697 58.6615,8.36 58.6615,9.192 C58.6615,10.934 57.5175,11.922 55.5285,11.922 Z M52.3045,6.28 L55.3725,6.28 C56.5815,6.28 57.2965,5.643 57.2965,4.551 C57.2965,3.472 56.6465,2.926 55.3595,2.926 L52.3045,2.926 L52.3045,6.28 Z M52.3045,7.164 L52.3045,11.038 L55.4375,11.038 C56.8545,11.038 57.6085,10.362 57.6085,9.114 C57.6085,7.827 56.8545,7.164 55.4115,7.164 L52.3045,7.164 Z M64.5235,12.091 C62.3915,12.091 61.0395,10.674 61.0395,8.425 C61.0395,6.176 62.3915,4.746 64.5105,4.746 C66.6295,4.746 67.9685,6.176 67.9685,8.412 C67.9685,10.635 66.6165,12.091 64.5235,12.091 Z M64.5365,5.565 C62.9895,5.565 62.0405,6.644 62.0405,8.399 C62.0405,10.167 62.9895,11.246 64.5105,11.246 C66.0315,11.246 66.9675,10.167 66.9675,8.412 C66.9675,6.657 66.0315,5.565 64.5365,5.565 Z M76.3005,11.922 L75.0135,11.922 C74.8315,11.584 74.7015,11.376 74.4285,10.96 L73.0505,8.971 L71.6075,11.077 C71.3995,11.363 71.2955,11.558 71.1005,11.922 L69.8135,11.922 C70.0215,11.662 70.3725,11.207 70.6585,10.791 L72.4655,8.295 L70.7885,5.955 C70.7105,5.838 70.6065,5.708 70.0085,4.915 L71.2825,4.915 C71.4125,5.214 71.5425,5.435 71.7895,5.786 L73.0635,7.619 L74.3245,5.786 C74.5455,5.461 74.7145,5.175 74.8315,4.915 L76.0795,4.915 C75.7805,5.331 75.5075,5.682 75.2865,5.994 L73.6485,8.295 L75.3645,10.687 C75.4945,10.856 75.4945,10.856 76.3005,11.922 Z" id="Match-Box" fill="#373737"></path>
                    <g id="Group-8" transform="translate(81.000000, 0.000000)">
                        <g id="Group">
                            <mask id="mask-2" fill="white">
                                <use xlink:href="#path-1"></use>
                            </mask>
                            <g id="Mask" fill-rule="nonzero" transform="translate(10.500000, 6.695913) scale(1, -1) translate(-10.500000, -6.695913) "></g>
                            <g mask="url(#mask-2)" fill-rule="nonzero">
                                <g transform="translate(11.093162, 8.697200) rotate(-10.000000) translate(-11.093162, -8.697200) translate(3.737057, -0.428170)">
                                    <path d="M7.32238723,6.20455275 C7.89496029,6.30650473 8.52472139,6.43412033 9.21167055,6.58739955 C10.6625542,4.80616777 11.9761045,3.57146738 13.1523217,2.88329838 C14.9166474,1.85104489 14.6831223,2.42243472 14.6769738,2.92825775 C14.6708253,3.43408078 14.2627659,6.14474324 14.1397859,6.48146196 C14.0168058,6.81818068 13.7590855,7.61915462 13.4038982,7.8863637 C13.7118201,8.325717 13.5060371,8.82661653 13.1875289,9.08873572 C12.8690208,9.3508549 12.6700469,9.41229403 12.6952129,9.5850647 C12.720379,9.75783537 12.6884927,9.95910031 12.5958545,10.0987827 C12.5340956,10.1919043 12.4353839,10.3066978 12.2997193,10.4431634 C12.0447991,11.7529102 11.9176685,12.634233 11.9183275,13.087132 C11.9193161,13.7664805 12.0927984,14.5957978 11.404593,15.4869172 C10.7197147,16.3737285 9.6765093,18.2642566 5.2775163,17.2720779 C0.803406819,16.7047123 0.47830624,14.536743 0.139090349,13.4699837 C-0.201774827,12.3980376 0.245870924,11.6778639 0.479955524,11.0398221 C0.636011924,10.6144609 0.819022455,9.74295718 1.02898712,8.42531093 C0.948339732,8.25083535 0.894978764,8.1093198 0.86890421,8.00076428 C0.829792379,7.837931 0.86890421,7.63793573 0.951848265,7.48416199 C1.03479232,7.33038825 0.86890421,7.20483617 0.659565026,6.84996452 C0.450225842,6.49509287 0.428764177,5.95426228 0.86890421,5.64635719 C0.626844784,5.27420089 0.659565026,4.43369032 0.659565026,4.07536174 C0.659565026,3.71703316 1.20642699,1.03076088 1.37425017,0.553347057 C1.54207335,0.0759332347 1.51873526,-0.540592181 2.82238476,1.03076088 C3.69148443,2.07832959 4.50206296,3.68627841 5.25412033,5.85460736 C6.0061764,5.95388553 6.6955987,6.070534 7.32238723,6.20455275 Z" id="Combined-Shape" stroke="none" fill="#373737"></path>
                                    <path d="M6.38367428,11.3961875 C9.73535218,11.8343502 10.1374749,15.9549994 9.79634189,16.8922546 C9.45228114,17.8375538 8.56709995,17.9612718 7.57729854,17.8360754 C6.93684167,17.7550663 6.14947866,17.6167041 5.21520951,17.4209888 C4.25115914,17.2735643 3.44674426,17.1266593 2.80196487,16.9802739 C1.82903609,16.759388 1.03955192,16.3403813 1.03955192,15.3344149 C1.03955192,14.3284486 3.03148939,10.5692626 6.38537286,11.3880779 C6.38480671,11.3907805 6.38424052,11.3934837 6.38367428,11.3961875 Z" id="Combined-Shape" stroke="none" fill="#FFFFFF"></path>
                                    <path d="M3.24247045,11.2910455 C3.80623043,11.2910455 4.43810798,11.020809 4.43810798,10.25349 C4.43810798,9.48617093 3.80623043,9.21593444 3.24247045,9.21593444 C2.67871048,9.21593444 2.22169272,9.68046388 2.22169272,10.25349 C2.22169272,10.8265161 2.67871048,11.2910455 3.24247045,11.2910455 Z" id="Oval" stroke="none" fill="#FFFFFF"></path>
                                    <ellipse id="Oval-2" stroke="none" fill="#373737" cx="3.36256195" cy="10.3755553" rx="1" ry="1"></ellipse>
                                    <ellipse id="Oval-2" stroke="none" fill="#FFFFFF" cx="3.51267632" cy="10.8943331" rx="1" ry="1"></ellipse>
                                    <path d="M9.45626728,12.4618716 C10.0200273,12.4618716 10.6519048,12.1916351 10.6519048,11.4243161 C10.6519048,10.656997 10.0200273,10.3867606 9.45626728,10.3867606 C8.8925073,10.3867606 8.43548954,10.85129 8.43548954,11.4243161 C8.43548954,11.9973422 8.8925073,12.4618716 9.45626728,12.4618716 Z" id="Oval" stroke="none" fill="#FFFFFF" transform="translate(9.543697, 11.424316) scale(-1, 1) rotate(-24.000000) translate(-9.543697, -11.424316) "></path>
                                    <ellipse id="Oval-2" stroke="none" fill="#373737" cx="9.44870292" cy="11.5133618" rx="1" ry="1"></ellipse>
                                    <ellipse id="Oval-2" stroke="none" fill="#FFFFFF" cx="9.15697674" cy="11.9318886" rx="1" ry="1"></ellipse>
                                    <path d="M5.89126737,13.7947416 C5.80598775,14.2115552 5.72922634,14.6678411 5.6825867,14.904038 C5.62818445,15.1795471 5.69774467,14.8097816 5.89126737,13.7947416 Z" id="Line-2" stroke="#373737" stroke-width="0.5" fill="none" stroke-linecap="square"></path>
                                    <path d="M6.1488824,11.8630535 C6.58342882,11.8788634 6.96321037,11.9323219 7.28822704,12.0234292 C7.84998316,12.1808983 7.59280663,13.1327458 7.06821566,13.1327458 C6.83738066,13.4258685 6.81708514,13.8301872 6.1488824,13.896436 C6.1488824,13.8995995 6.1488824,13.9027561 6.1488824,13.9059059 C6.11328795,13.9059059 6.07915063,13.9051453 6.04639344,13.9036645 C6.01445394,13.9050669 5.98120637,13.9057867 5.94657983,13.9057867 L5.94657983,13.8965552 C5.27837708,13.8303064 5.25808157,13.4259877 5.02724657,13.132865 C4.50265559,13.132865 4.24547906,12.1810175 4.80723519,12.0235484 C5.13225186,11.9324411 5.5120334,11.8789826 5.94657983,11.8631727 L5.94657983,11.8584503 C5.98150297,11.8587865 6.01609805,11.8593484 6.05036508,11.8601357 C6.08290888,11.8594106 6.11574798,11.8588885 6.1488824,11.8585695 C6.1488824,11.8600647 6.1488824,11.8615593 6.1488824,11.8630535 Z" id="Combined-Shape" stroke="none" fill="#373737" transform="translate(6.047731, 12.882178) rotate(11.000000) translate(-6.047731, -12.882178) "></path>
                                    <path d="M7.32970455,6.20883362 L8.54948774,6.44503527 C8.76564269,6.57173169 8.84654425,6.95462224 8.79219242,7.59370691 C8.71066468,8.55233393 8.34261271,9.81361615 7.83186679,10.3951147 C7.49136951,10.7827804 7.43865105,11.2881244 7.67371142,11.9111466 L6.32856016,11.420975 L4.87091821,11.4075994 C5.34327028,10.8934098 5.49420559,10.3928201 5.32372414,9.9058302 C5.06800196,9.17534533 5.19923476,7.86803012 5.48275155,6.9486658 C5.67176275,6.33575625 5.88540208,6.01501185 6.12366956,5.98643258 L7.32953818,6.20967056 Z" id="Combined-Shape" stroke="none" fill="#FFFFFF"></path>
                                    <path d="M5.60184702,15.1188368 C5.1920426,15.0239898 4.85023921,15.1115058 4.57643685,15.3813846 C4.1657333,15.786203 2.99071901,17.3643274 1.71687532,16.5061978 C1.11641783,16.1016974 0.930573108,15.4054639 1.15934116,14.4174975" id="Path-6" stroke="#373737" stroke-width="0.5" fill="none" stroke-linecap="square"></path>
                                    <path d="M9.81395863,15.9356972 C9.37463131,15.8333977 9.01806647,15.9171875 8.7442641,16.1870663 C8.33356056,16.5918847 7.33916589,18.0005978 6.10304852,17.2673317 C5.45594761,16.8834708 5.23105988,16.1985555 5.42838533,15.2125858" id="Path-6" stroke="#373737" stroke-width="0.5" fill="none" stroke-linecap="square" transform="translate(7.586589, 16.344005) scale(-1, 1) rotate(-22.000000) translate(-7.586589, -16.344005) "></path>
                                    <path d="M5.65037261,12.483931 L5.57677529,12.8998815 C5.5732534,12.9197862 5.56013549,12.9366705 5.54171898,12.9450032 L5.12986981,13.1313475" id="Path-7" stroke="#FFFFFF" stroke-width="0.5" fill="none"></path>
                                    <path d="M6.97943083,12.7147058 L6.90583351,13.1306563 C6.90231161,13.150561 6.88919371,13.1674453 6.87077719,13.175778 L6.45892802,13.3621223" id="Path-7" stroke="#FFFFFF" stroke-width="0.5" fill="none" transform="translate(6.719179, 13.038414) scale(-1, 1) rotate(-20.000000) translate(-6.719179, -13.038414) "></path>
                                </g>
                            </g>
                        </g>
                        <ellipse id="Oval-3" fill="#000000" fill-rule="nonzero" opacity="0.202287946" cx="13.7659884" cy="10.6350777" rx="1.80087209" ry="1.79465607"></ellipse>
                        <path d="M15.5191679,11.9725147 L17.0930233,13.5409376 L16.6208666,14.0114645 L15.061319,12.4430416 L15.061319,12.2006489 L14.9611646,12.1150986 C14.579622,12.4382904 14.1360854,12.5998839 13.6305414,12.5998839 C13.0677661,12.5998839 12.5884604,12.4026448 12.1926099,12.0081607 C11.7967595,11.6136765 11.5988372,11.1360252 11.5988372,10.5751924 C11.5988372,10.0143596 11.7967595,9.53433192 12.1926099,9.135095 C12.5884604,8.73585807 13.0629969,8.5362426 13.6162336,8.5362426 C14.179009,8.5362426 14.6583147,8.73585807 15.0541652,9.135095 C15.4500156,9.53433192 15.6479379,10.0143596 15.6479379,10.5751924 C15.6479379,11.0789914 15.4857847,11.5209971 15.1614735,11.9012227 L15.2616279,11.9725147 L15.5191679,11.9725147 Z M12.6289971,11.5732797 C12.9056155,11.8394377 13.2394603,11.9725147 13.6305414,11.9725147 C14.0216226,11.9725147 14.3554674,11.8370613 14.6320858,11.5661506 C14.9087041,11.2952398 15.0470113,10.9649237 15.0470113,10.5751924 C15.0470113,10.1854611 14.9087041,9.85276869 14.6320858,9.5771051 C14.3554674,9.30144151 14.0216226,9.16361178 13.6305414,9.16361178 C13.2394603,9.16361178 12.9080001,9.30144151 12.636151,9.5771051 C12.3643019,9.85276869 12.2283794,10.1854611 12.2283794,10.5751924 C12.2283794,10.9649237 12.3619173,11.2976162 12.6289971,11.5732797 Z" id="" stroke="#FF6B00" stroke-width="0.4" fill="#FFFFFF"></path>
                    </g>
                </g>
            </g>
        </g>
    </g>
</svg>