<?xml version="1.0" encoding="UTF-8"?>
<svg width="84px" height="84px" viewBox="0 0 84 84" version="1.1" xmlns="http://www.w3.org/2000/svg" xmlns:xlink="http://www.w3.org/1999/xlink">
    <!-- Generator: sketchtool 52.2 (67145) - http://www.bohemiancoding.com/sketch -->
    <title>76031465-1C3E-4740-B2E5-46DB98DADA4B@1x</title>
    <desc>Created with sketchtool.</desc>
    <g id="Signup" stroke="none" stroke-width="1" fill="none" fill-rule="evenodd">
        <g id="SPM-02-10-Sign-Up-finish_middlebox" transform="translate(-678.000000, -190.000000)" fill="#FF6B00">
            <g id="ic_sent" transform="translate(678.000000, 190.000000)">
                <path d="M41.1310345,2.77111667e-13 L42.8689655,2.77111667e-13 L42.8689655,10.4275862 L41.1310345,10.4275862 L41.1310345,2.77111667e-13 Z M84,41.1310345 L84,42.8689655 L73.5724138,42.8689655 L73.5724138,41.1310345 L84,41.1310345 Z M74.0643887,72.8354859 L72.8354859,74.0643887 L65.462069,66.6909718 L66.6909718,65.462069 L74.0643887,72.8354859 Z M9.84827586,72.8354859 L17.2216928,65.462069 L18.4505956,66.6909718 L11.0771787,74.0643887 L9.84827586,72.8354859 Z M74.0643887,11.4105016 L66.6909718,18.7839185 L65.462069,17.5550157 L72.8354859,10.1815988 L74.0643887,11.4105016 Z M9.84827586,11.4105016 L11.0771787,10.1815988 L18.4505956,17.5550157 L17.2216928,18.7839185 L9.84827586,11.4105016 Z M10.4275862,41.1310345 L10.4275862,42.8689655 L2.77111667e-13,42.8689655 L2.77111667e-13,41.1310345 L10.4275862,41.1310345 Z M41.1310345,73.5724138 L42.8689655,73.5724138 L42.8689655,84 L41.1310345,84 L41.1310345,73.5724138 Z" id="bg_blingbling"></path>
            </g>
        </g>
    </g>
</svg>