<?xml version="1.0" encoding="UTF-8"?>
<svg width="95px" height="290px" viewBox="0 0 95 290" version="1.1" xmlns="http://www.w3.org/2000/svg" xmlns:xlink="http://www.w3.org/1999/xlink">
    <!-- Generator: sketchtool 52.2 (67145) - http://www.bohemiancoding.com/sketch -->
    <title>7DAA38C6-F5B0-4452-8E54-31931D6DA36D@1x</title>
    <desc>Created with sketchtool.</desc>
    <g id="Post_work" stroke="none" stroke-width="1" fill="none" fill-rule="evenodd">
        <g id="SO-06-02-2-Post_detail_wantead_1" transform="translate(-471.000000, -350.000000)" fill="#FC8B38" fill-rule="nonzero">
            <g id="Group-7" transform="translate(312.000000, 344.000000)">
                <g id="Group-6" transform="translate(159.000000, 6.000000)">
                    <path d="M90.7071068,-6.44484466e-14 L94.2426407,3.53553391 L93.5355339,4.24264069 L90,0.707106781 L90.7071068,-6.44484466e-14 Z M85.7071068,-1.01085806e-13 L94.1923882,8.48528137 L93.4852814,9.19238816 L85,0.707106781 L85.7071068,-1.01085806e-13 Z M80.7071068,-1.37501122e-13 L94.1421356,13.4350288 L93.4350288,14.1421356 L80,0.707106781 L80.7071068,-1.37501122e-13 Z M75.7071068,-6.11177775e-14 L94.0918831,18.3847763 L93.3847763,19.0918831 L75,0.707106781 L75.7071068,-6.11177775e-14 Z M70.7071068,-9.84212711e-14 L94.0416306,23.3345238 L93.3345238,24.0416306 L70,0.707106781 L70.7071068,-9.84212711e-14 Z M65.7071068,-1.33948408e-13 L93.991378,28.2842712 L93.2842712,28.991378 L65,0.707106781 L65.7071068,-1.33948408e-13 Z M60.7071068,-6.11177775e-14 L93.9411255,33.2340187 L93.2340187,33.9411255 L60,0.707106781 L60.7071068,-6.11177775e-14 Z M55.7071068,-9.66449143e-14 L93.890873,38.1837662 L93.1837662,38.890873 L55,0.707106781 L55.7071068,-9.66449143e-14 Z M50.7071068,-1.32172051e-13 L93.8406204,43.1335137 L93.1335137,43.8406204 L50,0.707106781 L50.7071068,-1.32172051e-13 Z M45.7071068,-5.04596365e-14 L93.7903679,48.0832611 L93.0832611,48.7903679 L45,0.707106781 L45.7071068,-5.04596365e-14 Z M40.7071068,-8.59867733e-14 L93.7401154,53.0330086 L93.0330086,53.7401154 L40,0.707106781 L40.7071068,-8.59867733e-14 Z M35.7071068,-1.2151391e-13 L93.6898628,57.9827561 L92.9827561,58.6898628 L35,0.707106781 L35.7071068,-1.2151391e-13 Z M30.7071068,-1.67699188e-13 L93.6396103,62.9325035 L92.9325035,63.6396103 L30,0.707106781 L30.7071068,-1.67699188e-13 Z M25.7071068,-8.59867733e-14 L93.5893578,67.882251 L92.882251,68.5893578 L25,0.707106781 L25.7071068,-8.59867733e-14 Z M20.7071068,-6.46704912e-14 L94.246212,73.5391052 L93.5391052,74.246212 L20,0.707106781 L20.7071068,-6.46704912e-14 Z M15.7071068,-1.00197628e-13 L94.1959595,78.4888527 L93.4888527,79.1959595 L15,0.707106781 L15.7071068,-1.00197628e-13 Z M10.7071068,-1.35724765e-13 L94.145707,83.4386002 L93.4386002,84.145707 L10,0.707106781 L10.7071068,-1.35724765e-13 Z M5.70710678,-5.75650638e-14 L94.0954544,88.3883476 L93.3883476,89.0954544 L5,0.707106781 L5.70710678,-5.75650638e-14 Z M0.707106781,-9.30922006e-14 L94.0452019,93.3380951 L93.3380951,94.0452019 L1.82076576e-14,0.707106781 L0.707106781,-9.30922006e-14 Z M0.707106781,5 L94.0452019,98.3380951 L93.3380951,99.0452019 L-3.10862447e-15,5.70710678 L0.707106781,5 Z M0.707106781,10 L94.0452019,103.338095 L93.3380951,104.045202 L-3.10862447e-15,10.7071068 L0.707106781,10 Z M0.707106781,15 L94.0452019,108.338095 L93.3380951,109.045202 L-3.10862447e-15,15.7071068 L0.707106781,15 Z M0.707106781,20 L94.0452019,113.338095 L93.3380951,114.045202 L-3.10862447e-15,20.7071068 L0.707106781,20 Z M0.707106781,25 L94.0452019,118.338095 L93.3380951,119.045202 L-3.10862447e-15,25.7071068 L0.707106781,25 Z M0.707106781,30 L94.0452019,123.338095 L93.3380951,124.045202 L-3.10862447e-15,30.7071068 L0.707106781,30 Z M0.707106781,35 L94.0452019,128.338095 L93.3380951,129.045202 L-3.10862447e-15,35.7071068 L0.707106781,35 Z M0.707106781,40 L94.0452019,133.338095 L93.3380951,134.045202 L-3.10862447e-15,40.7071068 L0.707106781,40 Z M0.707106781,45 L94.0452019,138.338095 L93.3380951,139.045202 L-3.10862447e-15,45.7071068 L0.707106781,45 Z M0.707106781,50 L94.0452019,143.338095 L93.3380951,144.045202 L-3.10862447e-15,50.7071068 L0.707106781,50 Z M0.707106781,55 L94.0452019,148.338095 L93.3380951,149.045202 L-3.10862447e-15,55.7071068 L0.707106781,55 Z M0.707106781,60 L94.0452019,153.338095 L93.3380951,154.045202 L-3.10862447e-15,60.7071068 L0.707106781,60 Z M0.707106781,65 L94.0452019,158.338095 L93.3380951,159.045202 L-3.10862447e-15,65.7071068 L0.707106781,65 Z M0.707106781,70 L94.0452019,163.338095 L93.3380951,164.045202 L-3.10862447e-15,70.7071068 L0.707106781,70 Z M0.707106781,75 L94.0452019,168.338095 L93.3380951,169.045202 L-3.10862447e-15,75.7071068 L0.707106781,75 Z M0.707106781,80 L94.0452019,173.338095 L93.3380951,174.045202 L-3.10862447e-15,80.7071068 L0.707106781,80 Z M0.707106781,85 L94.0452019,178.338095 L93.3380951,179.045202 L-3.10862447e-15,85.7071068 L0.707106781,85 Z M0.707106781,90 L94.0452019,183.338095 L93.3380951,184.045202 L-3.10862447e-15,90.7071068 L0.707106781,90 Z M0.707106781,95 L94.0452019,188.338095 L93.3380951,189.045202 L-3.10862447e-15,95.7071068 L0.707106781,95 Z M0.707106781,100 L94.0452019,193.338095 L93.3380951,194.045202 L-3.10862447e-15,100.707107 L0.707106781,100 Z M0.707106781,105 L94.0452019,198.338095 L93.3380951,199.045202 L-3.10862447e-15,105.707107 L0.707106781,105 Z M0.707106781,110 L94.0452019,203.338095 L93.3380951,204.045202 L-3.10862447e-15,110.707107 L0.707106781,110 Z M0.707106781,115 L94.0452019,208.338095 L93.3380951,209.045202 L-3.10862447e-15,115.707107 L0.707106781,115 Z M0.707106781,120 L94.0452019,213.338095 L93.3380951,214.045202 L-3.10862447e-15,120.707107 L0.707106781,120 Z M0.707106781,125 L94.0452019,218.338095 L93.3380951,219.045202 L-3.10862447e-15,125.707107 L0.707106781,125 Z M0.707106781,130 L94.0452019,223.338095 L93.3380951,224.045202 L-3.10862447e-15,130.707107 L0.707106781,130 Z M0.707106781,135 L94.0452019,228.338095 L93.3380951,229.045202 L-3.10862447e-15,135.707107 L0.707106781,135 Z M0.707106781,140 L94.0452019,233.338095 L93.3380951,234.045202 L-3.10862447e-15,140.707107 L0.707106781,140 Z M0.707106781,145 L94.0452019,238.338095 L93.3380951,239.045202 L-3.10862447e-15,145.707107 L0.707106781,145 Z M0.707106781,150 L94.0452019,243.338095 L93.3380951,244.045202 L-3.10862447e-15,150.707107 L0.707106781,150 Z M0.707106781,155 L94.0452019,248.338095 L93.3380951,249.045202 L5.93747274e-13,155.707107 L0.707106781,155 Z M0.707106781,160 L94.0452019,253.338095 L93.3380951,254.045202 L5.93747274e-13,160.707107 L0.707106781,160 Z M0.707106781,165 L94.0452019,258.338095 L93.3380951,259.045202 L5.93747274e-13,165.707107 L0.707106781,165 Z M0.707106781,170 L94.0452019,263.338095 L93.3380951,264.045202 L5.93747274e-13,170.707107 L0.707106781,170 Z M0.707106781,175 L94.0452019,268.338095 L93.3380951,269.045202 L5.93747274e-13,175.707107 L0.707106781,175 Z M0.707106781,180 L94.0452019,273.338095 L93.3380951,274.045202 L5.93747274e-13,180.707107 L0.707106781,180 Z M0.707106781,185 L94.0452019,278.338095 L93.3380951,279.045202 L5.93747274e-13,185.707107 L0.707106781,185 Z M0.707106781,190 L94.0452019,283.338095 L93.3380951,284.045202 L5.93747274e-13,190.707107 L0.707106781,190 Z M0.707106781,195 L93.3380951,287.630988 L92.6309883,288.338095 L6.43485265e-13,195.707107 L0.707106781,195 Z M0.707106781,200 L89.0954544,288.388348 L88.3883476,289.095454 L6.2927441e-13,200.707107 L0.707106781,200 Z M0.707106781,205 L83.4386002,287.731493 L82.7314934,288.4386 L6.07958128e-13,205.707107 L0.707106781,205 Z M0.707106781,210 L79.1959595,288.488853 L78.4888527,289.195959 L7.00328684e-13,210.707107 L0.707106781,210 Z M0.707106781,215 L74.246212,288.539105 L73.5391052,289.246212 L6.22168983e-13,215.707107 L0.707106781,215 Z M0.707106781,220 L69.2964646,288.589358 L68.5893578,289.296465 L6.64801547e-13,220.707107 L0.707106781,220 Z M0.707106781,225 L63.6396103,287.932504 L62.9325035,288.63961 L6.39932551e-13,225.707107 L0.707106781,225 Z M0.707106781,230 L58.6898628,287.982756 L57.9827561,288.689863 L4.44533299e-13,230.707107 L0.707106781,230 Z M0.707106781,235 L54.4472222,288.740115 L53.7401154,289.447222 L5.47561996e-13,235.707107 L0.707106781,235 Z M0.707106781,240 L49.4974747,288.790368 L48.7903679,289.497475 L4.69402295e-13,240.707107 L0.707106781,240 Z M0.707106781,245 L43.8406204,288.133514 L43.1335137,288.84062 L4.48086013e-13,245.707107 L0.707106781,245 Z M0.707106781,250 L38.890873,288.183766 L38.1837662,288.890873 L5.97299987e-13,250.707107 L0.707106781,250 Z M0.707106781,255 L33.9411255,288.234019 L33.2340187,288.941125 L5.19140286e-13,255.707107 L0.707106781,255 Z M0.707106781,260 L28.991378,288.284271 L28.2842712,288.991378 L5.58220137e-13,260.707107 L0.707106781,260 Z M0.707106781,265 L23.3345238,287.627417 L22.627417,288.334524 L-3.33066907e-14,265.707107 L0.707106781,265 Z M0.707106781,270 L18.3847763,287.67767 L17.6776695,288.384776 L1.17683641e-13,270.707107 L0.707106781,270 Z M0.707106781,275 L14.1421356,288.435029 L13.4350288,289.142136 L1.00808251e-13,275.707107 L0.707106781,275 Z M0.707106781,280 L8.48528137,287.778175 L7.77817459,288.485281 L7.77156117e-14,280.707107 L0.707106781,280 Z M0.707106781,285 L4.24264069,288.535534 L3.53553391,289.242641 L6.08402217e-14,285.707107 L0.707106781,285 Z" id="bg_nothire"></path>
                </g>
            </g>
        </g>
    </g>
</svg>