<?xml version="1.0" encoding="UTF-8"?>
<svg width="121px" height="96px" viewBox="0 0 121 96" version="1.1" xmlns="http://www.w3.org/2000/svg" xmlns:xlink="http://www.w3.org/1999/xlink">
    <!-- Generator: sketchtool 52.2 (67145) - http://www.bohemiancoding.com/sketch -->
    <title>594BE5F7-63BD-4046-8593-A95CA007DC96@1x</title>
    <desc>Created with sketchtool.</desc>
    <defs>
        <circle id="path-1" cx="48" cy="48" r="48"></circle>
    </defs>
    <g id="Work_detail" stroke="none" stroke-width="1" fill="none" fill-rule="evenodd">
        <g id="SP-06-06-Sent_entry_2" transform="translate(-647.000000, -174.000000)">
            <g id="icon_dog_sent" transform="translate(647.000000, 174.000000)">
                <g id="Group-11-+-Group-11-Mask" transform="translate(25.000000, 0.000000)">
                    <mask id="mask-2" fill="white">
                        <use xlink:href="#path-1"></use>
                    </mask>
                    <g id="Mask" fill-rule="nonzero"></g>
                    <g id="Group-11" mask="url(#mask-2)" fill-rule="nonzero">
                        <g transform="translate(20.500000, 83.000000) rotate(-15.000000) translate(-20.500000, -83.000000) translate(12.000000, 65.000000)">
                            <path d="M1.06665845,27.7022531 C2.06491962,20.5344887 2.5640502,16.2296763 2.5640502,14.7878158 C2.5640502,12.6250251 2.70013406,10.693087 1.81535432,9.52509555 C0.930574593,8.35710409 0.148536874,8.19869657 0.013037554,6.70248472 C-0.122461766,5.20627288 0.814519634,4.23935336 2.06474805,4.41539692 C1.66280318,2.67618794 2.27629799,1.23203937 3.19892152,0.542227411 C4.12154505,-0.147584544 6.59545738,-0.147584544 7.50878067,1.35760373 C8.30270209,0.542227411 9.38459725,-0.197430111 10.9561585,0.047679128 C12.5277198,0.292788367 13.4489034,2.14615637 12.8905667,3.97386236 C14.0869868,3.60308315 15.2211602,4.16374017 15.6748296,4.81331662 C16.128499,5.46289306 16.5024218,6.87398727 15.1812869,8.56852533 C13.8601521,10.2630634 13.3614726,10.8577252 13.6108123,14.4029912 C13.7770388,16.7665018 14.7298797,23.7720881 16.4693349,35.4197501 L1.06665845,27.7022531 Z" id="Path-13" stroke="#373737" stroke-width="1.3" fill="#FFFFFF"></path>
                            <path d="M3.98686485,11.347482 C4.79349968,9.03033827 5.512641,8.16278357 6.40676933,7.15210568 C7.30089767,6.14142779 9.02843099,5.72865221 10.8076161,8.43243596 C12.5868013,11.1362197 12.8598479,13.453882 11.0449196,13.1704358 C9.22999123,12.8869897 8.62501511,12.8530757 6.40676933,13.1704358 C4.18852356,13.4877959 3.62910709,12.3751789 3.98686485,11.347482 Z" id="Path-14" stroke="none" fill="#373737"></path>
                            <path d="M5.96409961,6.31900056 C5.01797022,6.57767409 3.94857613,5.78183566 3.57554105,4.54144569 C3.20250598,3.30105571 3.66709071,2.08582464 4.6132201,1.82715111 C5.55934949,1.56847758 6.62874359,2.364316 7.00177866,3.60470598 C7.37481374,4.84509595 6.910229,6.06032703 5.96409961,6.31900056 Z" id="Oval" stroke="none" fill="#373737"></path>
                            <path d="M9.54430584,6.0701893 C8.58155636,5.87507332 8.02919584,4.6937022 8.31057408,3.43152305 C8.59195232,2.16934389 9.6005171,1.30431826 10.5632666,1.49943423 C11.526016,1.69455021 12.0783766,2.87592133 11.7969983,4.13810049 C11.5156201,5.40027964 10.5070553,6.26530527 9.54430584,6.0701893 Z" id="Oval" stroke="none" fill="#373737"></path>
                            <path d="M12.2891047,8.50561405 C11.6563495,8.14310863 11.5800324,7.15637706 12.1186459,6.3016874 C12.6572593,5.44699775 13.6068412,5.0480036 14.2395964,5.41050903 C14.8723517,5.77301445 14.9486687,6.75974602 14.4100553,7.61443568 C13.8714419,8.46912533 12.92186,8.86811948 12.2891047,8.50561405 Z" id="Oval" stroke="none" fill="#373737"></path>
                            <path d="M3.79803506,8.83044224 C3.17201155,9.20342167 2.21527099,8.82028959 1.66109521,7.97469278 C1.10691943,7.12909597 1.16516352,6.14124475 1.79118703,5.76826532 C2.41721054,5.39528589 3.3739511,5.77841797 3.92812688,6.62401478 C4.48230266,7.46961158 4.42405857,8.45746281 3.79803506,8.83044224 Z" id="Oval" stroke="none" fill="#373737"></path>
                            <path d="M4.016983,2.47016119 C4.03402429,1.58004638 4.11063759,1.13498897 4.24682289,1.13498897 C4.45110084,1.13498897 4.67387041,1.40814563 5.11940954,2.04535497 C5.41643562,2.47016119 5.04896011,2.61176326 4.016983,2.47016119 Z" id="Path-15" stroke="none" fill="#373737"></path>
                            <path d="M11.0109942,2.04535497 C9.97901707,2.18695704 9.61154156,2.04535497 9.90856765,1.62054874 C10.3541068,0.983339409 10.5768763,0.710182747 10.7811543,0.710182747 C10.9173396,0.710182747 10.9939529,1.15524015 11.0109942,2.04535497 Z" id="Path-15" stroke="none" fill="#373737"></path>
                            <path d="M14.323646,6.09990549 C13.482885,5.98023794 13.2333732,5.78208697 13.5751106,5.50545257 C14.0877168,5.09050097 14.3322158,4.91983769 14.4913628,4.96622962 C14.5974608,4.99715758 14.5415552,5.37504953 14.323646,6.09990549 Z" id="Path-15" stroke="none" fill="#373737"></path>
                            <path d="M1.45232495,6.43861197 C1.23441574,5.71375602 1.17851013,5.33586406 1.28460813,5.30493611 C1.44375513,5.25854417 1.68825417,5.42920745 2.20086028,5.84415905 C2.54259769,6.12079345 2.29308591,6.31894442 1.45232495,6.43861197 Z" id="Path-15" stroke="none" fill="#373737"></path>
                        </g>
                    </g>
                    <g id="Group-11" mask="url(#mask-2)" fill-rule="nonzero">
                        <g transform="translate(76.500000, 83.000000) scale(-1, 1) rotate(-15.000000) translate(-76.500000, -83.000000) translate(68.000000, 65.000000)">
                            <path d="M1.06665845,27.7022531 C2.06491962,20.5344887 2.5640502,16.2296763 2.5640502,14.7878158 C2.5640502,12.6250251 2.70013406,10.693087 1.81535432,9.52509555 C0.930574593,8.35710409 0.148536874,8.19869657 0.013037554,6.70248472 C-0.122461766,5.20627288 0.814519634,4.23935336 2.06474805,4.41539692 C1.66280318,2.67618794 2.27629799,1.23203937 3.19892152,0.542227411 C4.12154505,-0.147584544 6.59545738,-0.147584544 7.50878067,1.35760373 C8.30270209,0.542227411 9.38459725,-0.197430111 10.9561585,0.047679128 C12.5277198,0.292788367 13.4489034,2.14615637 12.8905667,3.97386236 C14.0869868,3.60308315 15.2211602,4.16374017 15.6748296,4.81331662 C16.128499,5.46289306 16.5024218,6.87398727 15.1812869,8.56852533 C13.8601521,10.2630634 13.3614726,10.8577252 13.6108123,14.4029912 C13.7770388,16.7665018 14.7298797,23.7720881 16.4693349,35.4197501 L1.06665845,27.7022531 Z" id="Path-13" stroke="#373737" stroke-width="1.3" fill="#FFFFFF"></path>
                            <path d="M3.98686485,11.347482 C4.79349968,9.03033827 5.512641,8.16278357 6.40676933,7.15210568 C7.30089767,6.14142779 9.02843099,5.72865221 10.8076161,8.43243596 C12.5868013,11.1362197 12.8598479,13.453882 11.0449196,13.1704358 C9.22999123,12.8869897 8.62501511,12.8530757 6.40676933,13.1704358 C4.18852356,13.4877959 3.62910709,12.3751789 3.98686485,11.347482 Z" id="Path-14" stroke="none" fill="#373737"></path>
                            <path d="M5.96409961,6.31900056 C5.01797022,6.57767409 3.94857613,5.78183566 3.57554105,4.54144569 C3.20250598,3.30105571 3.66709071,2.08582464 4.6132201,1.82715111 C5.55934949,1.56847758 6.62874359,2.364316 7.00177866,3.60470598 C7.37481374,4.84509595 6.910229,6.06032703 5.96409961,6.31900056 Z" id="Oval" stroke="none" fill="#373737"></path>
                            <path d="M9.54430584,6.0701893 C8.58155636,5.87507332 8.02919584,4.6937022 8.31057408,3.43152305 C8.59195232,2.16934389 9.6005171,1.30431826 10.5632666,1.49943423 C11.526016,1.69455021 12.0783766,2.87592133 11.7969983,4.13810049 C11.5156201,5.40027964 10.5070553,6.26530527 9.54430584,6.0701893 Z" id="Oval" stroke="none" fill="#373737"></path>
                            <path d="M12.2891047,8.50561405 C11.6563495,8.14310863 11.5800324,7.15637706 12.1186459,6.3016874 C12.6572593,5.44699775 13.6068412,5.0480036 14.2395964,5.41050903 C14.8723517,5.77301445 14.9486687,6.75974602 14.4100553,7.61443568 C13.8714419,8.46912533 12.92186,8.86811948 12.2891047,8.50561405 Z" id="Oval" stroke="none" fill="#373737"></path>
                            <path d="M3.79803506,8.83044224 C3.17201155,9.20342167 2.21527099,8.82028959 1.66109521,7.97469278 C1.10691943,7.12909597 1.16516352,6.14124475 1.79118703,5.76826532 C2.41721054,5.39528589 3.3739511,5.77841797 3.92812688,6.62401478 C4.48230266,7.46961158 4.42405857,8.45746281 3.79803506,8.83044224 Z" id="Oval" stroke="none" fill="#373737"></path>
                            <path d="M4.016983,2.47016119 C4.03402429,1.58004638 4.11063759,1.13498897 4.24682289,1.13498897 C4.45110084,1.13498897 4.67387041,1.40814563 5.11940954,2.04535497 C5.41643562,2.47016119 5.04896011,2.61176326 4.016983,2.47016119 Z" id="Path-15" stroke="none" fill="#373737"></path>
                            <path d="M11.0109942,2.04535497 C9.97901707,2.18695704 9.61154156,2.04535497 9.90856765,1.62054874 C10.3541068,0.983339409 10.5768763,0.710182747 10.7811543,0.710182747 C10.9173396,0.710182747 10.9939529,1.15524015 11.0109942,2.04535497 Z" id="Path-15" stroke="none" fill="#373737"></path>
                            <path d="M14.323646,6.09990549 C13.482885,5.98023794 13.2333732,5.78208697 13.5751106,5.50545257 C14.0877168,5.09050097 14.3322158,4.91983769 14.4913628,4.96622962 C14.5974608,4.99715758 14.5415552,5.37504953 14.323646,6.09990549 Z" id="Path-15" stroke="none" fill="#373737"></path>
                            <path d="M1.45232495,6.43861197 C1.23441574,5.71375602 1.17851013,5.33586406 1.28460813,5.30493611 C1.44375513,5.25854417 1.68825417,5.42920745 2.20086028,5.84415905 C2.54259769,6.12079345 2.29308591,6.31894442 1.45232495,6.43861197 Z" id="Path-15" stroke="none" fill="#373737"></path>
                        </g>
                    </g>
                    <path d="M33.9655991,89.5239242 L26.0783521,88.5576172 C29.4839715,90.7590712 32.5542967,91.9990588 35.2893279,92.27758 C38.024359,92.5561012 37.5831161,91.638216 33.9655991,89.5239242 Z" id="Path-12" fill="#FFFFFF" fill-rule="nonzero" mask="url(#mask-2)"></path>
                    <path d="M66.9655991,89.5239242 L59.0783521,88.5576172 C62.4839715,90.7590712 65.5542967,91.9990588 68.2893279,92.27758 C71.024359,92.5561012 70.5831161,91.638216 66.9655991,89.5239242 Z" id="Path-12" fill="#FFFFFF" fill-rule="nonzero" mask="url(#mask-2)" transform="translate(64.566997, 90.441913) scale(-1, 1) translate(-64.566997, -90.441913) "></path>
                </g>
                <circle id="Oval" stroke="#373737" stroke-width="1.6" fill-rule="nonzero" cx="73" cy="48" r="47.2"></circle>
                <rect id="Rectangle" fill="#373737" transform="translate(10.400237, 25.660191) rotate(-345.000000) translate(-10.400237, -25.660191) " x="2.90023703" y="24.1601908" width="15" height="3" rx="1.5"></rect>
                <rect id="Rectangle" fill="#373737" transform="translate(7.930551, 44.951707) rotate(-361.000000) translate(-7.930551, -44.951707) " x="0.430551128" y="43.4517066" width="15" height="3" rx="1.5"></rect>
                <rect id="Rectangle" fill="#373737" transform="translate(11.329455, 67.339809) rotate(-392.000000) translate(-11.329455, -67.339809) " x="4.82945471" y="65.8398092" width="13" height="3" rx="1.5"></rect>
                <g id="Group-8" transform="translate(41.000000, 21.000000)" fill-rule="nonzero">
                    <g id="Group" transform="translate(35.046943, 38.953711) rotate(-10.000000) translate(-35.046943, -38.953711) translate(6.546943, 4.453711)">
                        <path d="M35.2897801,25.5115876 C40.8480948,18.6132584 45.8802878,13.8315283 50.386359,11.1663971 C57.1454659,7.1687004 56.2508346,9.38157087 56.2272797,11.3405151 C56.2037249,13.2994594 54.6404554,23.7972745 54.1693205,25.101314 C53.6981855,26.4053535 52.7108628,29.507354 51.3501453,30.5421976 C52.5297896,32.2437188 51.7414378,34.1835954 50.5212376,35.1987269 C49.3010374,36.2138584 48.5387712,36.451799 48.6351819,37.1209028 C48.7315926,37.7900065 48.6094369,38.5694625 48.2545411,39.1104224 C48.0179438,39.4710624 47.6397806,39.9156334 47.1200514,40.4441354 C46.1434556,45.516504 45.65642,48.9296787 45.6589448,50.6836595 C45.6627321,53.3146307 46.3273405,56.5263989 43.690835,59.9775136 C41.0670759,63.4119436 37.6614022,69.1724558 20.8089219,65.3299602 C3.66867136,63.1326736 1.83238439,56.2976922 0.532853166,52.1663618 C-0.77299652,48.0149445 0.941928047,45.225866 1.83870285,42.7548667 C2.43655272,41.1075338 3.13766349,37.7323865 3.94203515,32.6294248 C3.63307616,31.9537182 3.42865104,31.4056588 3.32875979,30.9852465 C3.17892292,30.3546281 3.32875979,29.5800893 3.6465173,28.9845565 C3.9642748,28.3890237 3.32875979,27.9027874 2.52678432,26.5284455 C1.72480886,25.1541036 1.64258952,23.0595826 3.32875979,21.8671321 C2.40143354,20.4258505 2.52678432,17.170733 2.52678432,15.7830032 C2.52678432,14.3952734 4.62180483,3.99191613 5.26473306,2.14299464 C5.90766129,0.294073155 5.81825338,-2.09359774 10.8125163,3.99191613 C14.1420249,8.04892537 17.2473398,14.2761668 20.128461,22.6736404 C23.0095772,23.0581235 25.6507443,23.509878 28.0519624,24.028904 C30.2454817,24.4237422 32.6580876,24.91797 35.2897801,25.5115876 Z" id="Path" fill="#373737"></path>
                        <path d="M41.5626691,60.9158386 C41.294989,62.4844116 38.8837083,63.4644297 37.1167153,64.9217325 C34.6627198,66.945631 30.8429291,65.61928 28.638388,65.337393 C26.1848067,65.0236621 24.0612085,67.5518438 20.4820366,66.7938804 C16.7887732,66.222937 15.7915974,63.6064232 13.3214566,63.0395036 C11.2238327,62.55808 6.63096002,61.6058296 5.06283794,59.6999528 C3.84455748,58.2192694 2.07925544,57.975688 2.76408422,53.7121959 C3.44891301,49.4487039 8.03097747,49.335986 11.293918,47.4410329 C15.4960221,45.0006604 17.6260161,41.8733627 24.5525941,43.5828649 C30.3397116,44.3476679 31.9867012,48.4116442 34.4832031,51.5522002 C37.5258426,55.3797877 42.8614848,53.3049359 41.5626691,60.9158386 Z" id="Path" fill="#FFFFFF"></path>
                        <path d="M7.84542506,60.893425 C10.4173863,62.1201652 12.3241049,62.8435843 13.5655807,63.0636823 C15.4277944,63.3938292 17.0081064,64.7814543 20.484268,65.3977338 C23.9604295,66.0140133 26.5074207,65.5364347 27.3742165,65.511779 C28.2410124,65.4871232 34.7040177,65.4705894 35.4907847,65.4221965" id="Path-9" stroke="#373737" stroke-width="1.2"></path>
                        <path d="M21.5734933,59.0298381 C23.118901,59.4272622 24.2062562,60.0945508 24.8355591,61.031704 C25.4804273,61.992037 26.0120563,62.644724 26.4304461,62.9897649 C25.1660451,65.977172 23.0592674,67.2094517 20.110113,66.6866038 L20.1123855,66.6736459 C17.2388257,66.1220958 15.717223,64.2468336 15.5475775,61.0478594 C16.0581069,60.8675041 16.7796976,60.4369972 17.7123495,59.7563385 C18.6450014,59.0756799 19.9332414,58.8267158 21.5770695,59.0094462 C21.5758783,59.0162385 21.5746863,59.0230358 21.5734933,59.0298381 Z" id="Combined-Shape" stroke="#373737" stroke-width="1.3" fill="#FF6B00"></path>
                        <path d="M22.5693623,53.4240796 C22.2426573,55.0383094 21.7972264,57.9310307 21.6185506,58.8457707 C21.4101364,59.9127582 21.7270736,58.1055278 22.5693623,53.4240796 Z" id="Line-2" stroke="#373737" stroke-width="1.1757312" stroke-linecap="square"></path>
                        <path d="M24.2981774,46.0899231 C25.920713,46.4694042 27.3096296,46.9517613 28.4649271,47.5369945 C30.4617337,48.5485067 28.7950265,51.9780641 26.8222497,51.5925065 C25.7387384,52.5371945 25.3652573,54.0593488 22.8037239,53.8200949 L22.7967639,53.8560959 C22.6629074,53.8299351 22.5350896,53.8019539 22.4129913,53.7722489 C22.2918489,53.7541059 22.1662891,53.7324062 22.0360725,53.7069568 L22.0428573,53.6718621 C19.5787043,52.9289008 19.7995388,51.3769134 19.1468939,50.0929128 C17.1741171,49.7073552 16.9065483,45.8997648 19.1348217,45.7139981 C20.4240395,45.6065186 21.8915359,45.682416 23.5373107,45.9416904 L23.5407815,45.9237375 C23.6718663,45.9506833 23.8015517,45.9782454 23.9298376,46.0064237 C24.0527547,46.0275858 24.1766332,46.0497368 24.3014729,46.0728766 L24.2981774,46.0899231 Z" id="Path" fill="#373737"></path>
                        <path d="M28.0793575,24.0487242 L28.0799949,24.0454829 L32.7529671,24.9602412 C33.5810537,25.4509094 33.8909864,26.9337624 33.6827653,29.4088005 C33.3704337,33.1213576 31.9604318,38.0060336 30.0037714,40.258053 C28.6993311,41.7593992 28.4973674,43.7164882 29.3978804,46.1293198 L24.2446248,44.2309901 L18.660419,44.1791892 C20.4699932,42.1878432 21.0482242,40.2491664 20.3951122,38.3631588 C19.4154441,35.5341474 19.9181951,30.4711956 21.004344,26.9106945 C21.7284432,24.537027 22.5468925,23.2948526 23.4596918,23.1841713 L28.0793575,24.0487242 Z" id="Path" fill="#FFFFFF"></path>
                        <path d="M42.4076751,63.1939261 C40.3372054,62.7558491 38.5163814,63.1577765 36.9452031,64.3997085 C34.5884356,66.2626064 26.1911142,65.1257462 23.8595533,61.0277003 C21.2309449,56.4075518 22.4920336,53.1434635 27.6428193,51.2354354" id="Path-6" stroke="#373737" stroke-width="1.3" stroke-linecap="square" transform="translate(32.467471, 58.251985) scale(-1, 1) rotate(-22.000000) translate(-32.467471, -58.251985) "></path>
                        <path d="M21.637801,59.4834898 C19.5681508,59.0415572 17.7493798,59.4406901 16.1814879,60.6808886 C13.8296501,62.5411864 5.43673548,61.3891735 3.09999656,57.2840556 C0.46555057,52.6559343 1.72016418,49.3915203 6.86383738,47.4908134" id="Path-6" stroke="#373737" stroke-width="1.3" stroke-linecap="square" transform="translate(11.699684, 54.517547) rotate(-2.000000) translate(-11.699684, -54.517547) "></path>
                        <path d="M21.6464979,48.3475911 L21.3643141,49.9598122 C21.3509637,50.0360879 21.3009165,50.1009014 21.2304978,50.1331105 L19.652459,50.8548966" id="Path-7" stroke="#FFFFFF" stroke-width="1.152"></path>
                        <path d="M26.7437225,49.239419 L26.4554532,50.8513365 C26.4418948,50.927151 26.3920693,50.9915203 26.3220735,51.023649 L24.738441,51.7505514" id="Path-7" stroke="#FFFFFF" stroke-width="1.152" transform="translate(25.741082, 50.494985) scale(-1, 1) rotate(-20.000000) translate(-25.741082, -50.494985) "></path>
                        <g id="Group-2" transform="translate(31.394665, 40.848284)">
                            <path d="M9.77667084,3.48690648 C9.47429948,1.56647253 8.17029991,-0.527701496 3.99955568,0.120114631 C-0.171188555,0.767930757 -0.171188555,3.06437152 0.211391574,4.73585276 C0.593971704,6.40733401 3.00236406,9.35776425 6.01838368,7.79706369 C9.0344033,6.23636314 9.99616525,5.13512806 9.77667084,3.48690648 Z" id="Path-11" fill="#FFFFFF"></path>
                            <ellipse id="Oval-2" fill="#373737" cx="3.91430752" cy="3.42744851" rx="3.33626374" ry="3.3091922"></ellipse>
                            <ellipse id="Oval-2" fill="#FFFFFF" cx="4.06595587" cy="5.58343737" rx="1" ry="1"></ellipse>
                        </g>
                        <g id="Group-2" transform="translate(12.446132, 41.119858) scale(-1, 1) rotate(-22.000000) translate(-12.446132, -41.119858) translate(7.446132, 36.619858)">
                            <path d="M9.77667084,3.48690648 C9.47429948,1.56647253 8.17029991,-0.527701496 3.99955568,0.120114631 C-0.171188555,0.767930757 -0.171188555,3.06437152 0.211391574,4.73585276 C0.593971704,6.40733401 3.00236406,9.35776425 6.01838368,7.79706369 C9.0344033,6.23636314 9.99616525,5.13512806 9.77667084,3.48690648 Z" id="Path-11" fill="#FFFFFF"></path>
                            <ellipse id="Oval-2" fill="#373737" cx="3.94857103" cy="3.43410867" rx="3.33626374" ry="3.3091922"></ellipse>
                            <ellipse id="Oval-2" fill="#FFFFFF" cx="4.10021938" cy="5.59009752" rx="1" ry="1"></ellipse>
                        </g>
                        <path d="M29.9862537,43.0770123 L38.8230926,39.0309727" id="Path-16" stroke="#373737" stroke-width="1.3"></path>
                        <path d="M11.2749064,39.7776969 L20.1117453,35.7316573" id="Path-16" stroke="#373737" stroke-width="1.3" transform="translate(15.693326, 37.754677) scale(-1, 1) rotate(-11.000000) translate(-15.693326, -37.754677) "></path>
                    </g>
                </g>
                <text id="採用" transform="translate(70.620701, 20.610293) rotate(-15.000000) translate(-70.620701, -20.610293) " font-family="HiraKakuPro-W6, Hiragino Kaku Gothic Pro" font-size="17" font-weight="500" fill="#FF6B00">
                    <tspan x="53.6207009" y="27.1102933">採用</tspan>
                </text>
            </g>
        </g>
    </g>
</svg>