<?xml version="1.0" encoding="UTF-8"?>
<svg width="77px" height="48px" viewBox="0 0 77 48" version="1.1" xmlns="http://www.w3.org/2000/svg" xmlns:xlink="http://www.w3.org/1999/xlink">
    <!-- Generator: sketchtool 52.2 (67145) - http://www.bohemiancoding.com/sketch -->
    <title>B3B99D24-718D-4D72-A375-C7445CED62C1</title>
    <desc>Created with sketchtool.</desc>
    <g id="Login&amp;Signup" stroke="none" stroke-width="1" fill="none" fill-rule="evenodd">
        <g id="SO-02-03-Forget-Password-sent" transform="translate(-682.000000, -206.000000)" fill="#373737" fill-rule="nonzero">
            <g id="ic_sent" transform="translate(682.000000, 206.000000)">
                <rect id="Rectangle-4" x="10" y="46" width="14" height="1.5"></rect>
                <rect id="Rectangle-4" x="0" y="28" width="5" height="1.5"></rect>
                <rect id="Rectangle-4" x="0" y="16" width="8" height="1.5"></rect>
                <rect id="Rectangle-4" x="0" y="4" width="12" height="1.5"></rect>
                <path d="M20.8323848,1.509375 L10.7599136,38.7273438 L64.9303986,38.7273438 L74.9468392,1.509375 L20.8323848,1.509375 Z M19.684375,0.009375 L76.9039063,0.009375 L66.0800781,40.2273438 L8.8,40.2273438 L19.684375,0.009375 Z" id="Path-9"></path>
                <polygon id="Path-10" points="75.4727643 0.275114554 76.3131243 1.51761006 41.6191625 24.9828199 19.8095415 1.40565313 20.9106734 0.387071484 41.8456812 23.0187426"></polygon>
                <polygon id="Path-11" points="10.3356236 40.2165129 9.51300925 38.9621981 38.0886928 20.2214754 38.9113072 21.4757902"></polygon>
                <polygon id="Path-12" points="66.0869096 39.2909016 65.023442 40.3487469 46.2817428 21.5074383 47.3452104 20.449593"></polygon>
            </g>
        </g>
    </g>
</svg>