<?xml version="1.0" encoding="UTF-8"?>
<svg width="19px" height="19px" viewBox="0 0 19 19" version="1.1" xmlns="http://www.w3.org/2000/svg" xmlns:xlink="http://www.w3.org/1999/xlink">
    <!-- Generator: sketchtool 52.2 (67145) - http://www.bohemiancoding.com/sketch -->
    <title>661016B2-155F-4D12-8B85-BC4EED081A62@1x</title>
    <desc>Created with sketchtool.</desc>
    <g id="Search" stroke="none" stroke-width="1" fill="none" fill-rule="evenodd">
        <g id="SP-06-05-Search_Detail_close" transform="translate(-617.000000, -290.000000)" fill="#FF6B00">
            <g id="Group" transform="translate(344.000000, 128.000000)">
                <g id="Group-7" transform="translate(24.000000, 133.000000)">
                    <g transform="translate(0.000000, 24.000000)" id="ic_trial">
                        <path d="M267.755932,15.5491461 C268.204867,16.1527424 268.014148,17.00132 267.350653,17.3594483 L266.917411,17.5970812 C266.444586,17.8539369 266.190243,18.3795226 266.289576,18.9013611 L266.380963,19.3802281 C266.520079,20.1121062 265.97181,20.797217 265.212856,20.8401885 L264.71619,20.8673437 C264.175868,20.8945477 263.714863,21.2605111 263.571923,21.7745144 L263.440753,22.245595 C263.238213,22.9619002 262.443548,23.3473784 261.74027,23.0632215 L261.279265,22.8763465 C260.778726,22.6738987 260.202544,22.8061711 259.844945,23.2071249 L259.519033,23.5732343 C259.022368,24.137655 258.136317,24.1416455 257.627831,23.5886125 L257.297995,23.2266884 C256.936373,22.8295791 256.356268,22.7050445 255.859602,22.9151328 L255.40272,23.1059496 C254.703514,23.4017863 253.900903,23.032027 253.690217,22.3157217 L253.5513,21.8484858 C253.400165,21.3384243 252.931412,20.980296 252.390891,20.956888 L251.894226,20.9375192 C251.13547,20.9063247 250.575182,20.2288057 250.702229,19.4969276 L250.785668,19.0180606 C250.877055,18.4924749 250.614964,17.970831 250.138066,17.7216158 L249.700951,17.491964 C249.029509,17.1376316 248.826969,16.2928012 249.264034,15.6854577 L249.550014,15.2883485 C249.863957,14.8522583 249.85596,14.2722648 249.538194,13.843961 L249.244068,13.4508424 C248.795133,12.8512853 248.985852,12.0024644 249.649347,11.6403455 L250.08239,11.4029073 C250.555365,11.1459056 250.809558,10.6204659 250.710225,10.0986274 L250.618838,9.61976038 C250.479722,8.88788225 251.02819,8.20277151 251.786946,8.15980001 L252.283611,8.13264475 C252.824132,8.10544082 253.284889,7.73933143 253.428077,7.22547404 L253.559048,6.7543935 C253.761787,6.03813694 254.556452,5.65261007 255.25973,5.93681569 L255.720685,6.12369062 C256.221274,6.32613845 256.797456,6.19381738 257.155005,5.7927176 L257.480768,5.4267542 C257.981506,4.86238219 258.867557,4.85839163 259.372169,5.41118129 L259.702005,5.77330013 C260.063428,6.17040935 260.643534,6.29494397 261.140199,6.08470967 L261.59728,5.89403885 C262.296486,5.59805622 263.099097,5.96796151 263.309584,6.68426673 L263.4487,7.15155138 C263.599637,7.6615642 264.068588,8.01969248 264.608861,8.04310051 L265.105526,8.06246932 C265.86453,8.09366381 266.424818,8.77118275 266.297523,9.50306088 L266.214133,9.98192788 C266.122747,10.5075623 266.385036,11.0291575 266.861934,11.2783727 L267.29885,11.5080245 C267.970292,11.8623568 268.173031,12.7071872 267.735916,13.3145308 L267.449986,13.71164 C267.136043,14.1475355 267.14399,14.7277237 267.461806,15.1560274 L267.755932,15.5491461 Z M254.532,13.016 L255.282,13.016 C255.714,13.016 255.942,13.028 256.164,13.058 L256.164,12.254 C255.936,12.284 255.714,12.296 255.282,12.296 L252.906,12.296 C252.564,12.296 252.306,12.284 252.09,12.254 L252.09,13.058 C252.3,13.028 252.558,13.016 252.912,13.016 L253.722,13.016 L253.722,16.292 C253.722,16.616 253.71,16.82 253.674,17.072 L254.58,17.072 C254.544,16.826 254.532,16.616 254.532,16.292 L254.532,13.016 Z M258.4,13.628 C258.13,13.58 257.986,13.562 257.842,13.562 C257.302,13.562 256.93,13.766 256.714,14.192 L256.714,13.628 L255.898,13.628 C255.934,13.874 255.94,14.042 255.94,14.408 L255.94,16.292 C255.94,16.604 255.928,16.778 255.898,17.072 L256.756,17.072 C256.726,16.79 256.714,16.616 256.714,16.292 L256.714,15.182 C256.75,14.894 256.81,14.756 256.96,14.582 C257.128,14.384 257.356,14.288 257.656,14.288 C257.812,14.288 257.938,14.312 258.19,14.384 L258.4,13.628 Z M258.638,12.296 L258.638,13.058 L259.52,13.058 L259.52,12.296 L258.638,12.296 Z M258.638,13.628 C258.674,13.874 258.686,14.078 258.686,14.408 L258.686,16.292 C258.686,16.592 258.674,16.802 258.638,17.072 L259.514,17.072 C259.484,16.82 259.472,16.616 259.472,16.286 L259.472,14.414 C259.472,14.048 259.484,13.85 259.514,13.628 L258.638,13.628 Z M262.344,17.072 L263.154,17.072 C263.118,16.802 263.106,16.64 263.106,16.322 L263.106,14.708 C263.106,14.3 263.028,14.072 262.824,13.88 C262.566,13.628 262.218,13.526 261.642,13.526 C261.126,13.526 260.79,13.616 260.496,13.832 C260.268,13.994 260.16,14.15 260.022,14.498 L260.79,14.636 C260.862,14.42 260.916,14.336 261.03,14.252 C261.168,14.144 261.414,14.078 261.654,14.078 C262.11,14.078 262.344,14.258 262.344,14.606 L262.344,14.912 C261.486,14.93 261.042,14.99 260.652,15.152 C260.238,15.326 259.974,15.704 259.974,16.124 C259.974,16.754 260.418,17.132 261.15,17.132 C261.342,17.132 261.534,17.108 261.708,17.06 C261.954,16.994 262.104,16.91 262.344,16.682 L262.344,17.072 Z M262.344,15.734 C262.344,15.944 262.272,16.118 262.128,16.262 C261.924,16.46 261.612,16.58 261.294,16.58 C260.958,16.58 260.748,16.406 260.748,16.124 C260.748,15.656 261.198,15.458 262.344,15.434 L262.344,15.734 Z M263.668,12.296 C263.698,12.524 263.71,12.716 263.71,13.076 L263.71,16.292 C263.71,16.64 263.698,16.814 263.668,17.072 L264.538,17.072 C264.508,16.808 264.496,16.61 264.496,16.292 L264.496,13.082 C264.496,12.722 264.508,12.53 264.538,12.296 L263.668,12.296 Z"></path>
                    </g>
                </g>
            </g>
        </g>
    </g>
</svg>