<?xml version="1.0" encoding="UTF-8"?>
<svg width="124px" height="167px" viewBox="0 0 124 167" version="1.1" xmlns="http://www.w3.org/2000/svg" xmlns:xlink="http://www.w3.org/1999/xlink">
    <!-- Generator: sketchtool 52.2 (67145) - http://www.bohemiancoding.com/sketch -->
    <title>25226AF5-6F01-4416-97DE-D81282FAE713</title>
    <desc>Created with sketchtool.</desc>
    <defs>
        <rect id="path-1" x="0" y="0" width="110" height="153" rx="1.70575693"></rect>
        <filter x="-10.9%" y="-5.9%" width="121.8%" height="115.7%" filterUnits="objectBoundingBox" id="filter-2">
            <feOffset dx="0" dy="3" in="SourceAlpha" result="shadowOffsetOuter1"></feOffset>
            <feGaussianBlur stdDeviation="3.5" in="shadowOffsetOuter1" result="shadowBlurOuter1"></feGaussianBlur>
            <feColorMatrix values="0 0 0 0 0   0 0 0 0 0   0 0 0 0 0  0 0 0 0.05 0" type="matrix" in="shadowBlurOuter1"></feColorMatrix>
        </filter>
    </defs>
    <g id="Profile" stroke="none" stroke-width="1" fill="none" fill-rule="evenodd">
        <g id="SP-05-13-Edit_Residence" transform="translate(-512.000000, -1066.000000)">
            <g id="img_doc" transform="translate(441.000000, 1062.000000)">
                <g id="img_tailieu" transform="translate(78.000000, 8.000000)">
                    <g id="Rectangle-15" fill-rule="nonzero">
                        <use fill="black" fill-opacity="1" filter="url(#filter-2)" xlink:href="#path-1"></use>
                        <use fill="#F0F0F0" xlink:href="#path-1"></use>
                    </g>
                    <polygon id="Rectangle-16" fill="#D8D8D8" points="22 4 89 4 89 12 22 12"></polygon>
                    <rect id="Rectangle-16" fill-opacity="0.399003623" fill="#B5B5B5" x="4" y="16" width="12" height="8"></rect>
                    <polygon id="Rectangle-16" fill-opacity="0.399003623" fill="#B5B5B5" points="4 42 107 42 107 57 4 57"></polygon>
                    <path d="M4.42643923,59.4264392 L4.42643923,149.573561 L106.573561,149.573561 L106.573561,59.4264392 L4.42643923,59.4264392 Z" id="Rectangle-16" stroke="#D8D8D8" stroke-width="0.852878465"></path>
                    <rect id="Rectangle-16" fill-opacity="0.399003623" fill="#B5B5B5" x="4" y="29" width="12" height="8"></rect>
                    <path d="M21.4264392,14.4264392 L21.4264392,24.5735608 L106.573561,24.5735608 L106.573561,14.4264392 L21.4264392,14.4264392 Z" id="Rectangle-10" stroke="#D8D8D8" stroke-width="0.852878465"></path>
                    <path d="M21.4264392,27.4264392 L21.4264392,37.5735608 L106.573561,37.5735608 L106.573561,27.4264392 L21.4264392,27.4264392 Z" id="Rectangle-10" stroke="#D8D8D8" stroke-width="0.852878465"></path>
                </g>
            </g>
        </g>
    </g>
</svg>