<?xml version="1.0" encoding="UTF-8"?>
<svg width="127px" height="23px" viewBox="0 0 127 23" version="1.1" xmlns="http://www.w3.org/2000/svg" xmlns:xlink="http://www.w3.org/1999/xlink">
    <!-- Generator: sketchtool 52.2 (67145) - http://www.bohemiancoding.com/sketch -->
    <title>657C86B1-2996-4D62-A9C7-12C3237F6ADF@1x</title>
    <desc>Created with sketchtool.</desc>
    <defs>
        <rect id="path-1" x="0" y="0.154832347" width="25" height="21.0100468"></rect>
    </defs>
    <g id="Company" stroke="none" stroke-width="1" fill="none" fill-rule="evenodd">
        <g id="SO-01-01-Contact_form_for_major" transform="translate(-151.000000, -15.000000)">
            <g id="Group-6">
                <g id="Group-10" transform="translate(150.000000, 15.000000)">
                    <text id="Match-Box" font-family="HiraKakuPro-W3, Hiragino Kaku Gothic Pro" font-size="17" font-weight="300" line-spacing="16" letter-spacing="1" fill="#373737">
                        <tspan x="0.5" y="19">Match Bo</tspan>
                        <tspan x="89.709" y="19">x</tspan>
                    </text>
                    <g id="Group-8" transform="translate(104.000000, 0.000000)">
                        <g id="Group">
                            <mask id="mask-2" fill="white">
                                <use xlink:href="#path-1"></use>
                            </mask>
                            <g id="Mask" fill-rule="nonzero" transform="translate(12.500000, 10.659856) scale(1, -1) translate(-12.500000, -10.659856) "></g>
                            <g mask="url(#mask-2)" fill-rule="nonzero">
                                <g transform="translate(13.488604, 13.828667) rotate(-10.000000) translate(-13.488604, -13.828667) translate(1.228429, -1.380283)">
                                    <path d="M12.2039787,10.3409213 C13.1582671,10.5108412 14.207869,10.7235339 15.3527842,10.9789992 C17.7709236,8.01027962 19.9601742,5.95244564 21.9205361,4.80549731 C24.8610789,3.08507481 24.4718704,4.0373912 24.4616229,4.88042959 C24.4513754,5.72346797 23.7712766,10.2412387 23.5663098,10.8024366 C23.361343,11.3636345 22.9318092,12.698591 22.3398304,13.1439395 C22.8530335,13.876195 22.5100618,14.7110276 21.9792149,15.1478929 C21.448368,15.5847582 21.1167448,15.6871567 21.1586882,15.9751078 C21.2006316,16.263059 21.1474879,16.5985005 20.9930908,16.8313045 C20.8901594,16.9865071 20.7256399,17.1778297 20.4995322,17.4052724 C20.0746651,19.5881836 19.8627808,21.0570551 19.8638792,21.8118867 C19.8655268,22.9441342 20.1546641,24.3263297 19.0076549,25.8115287 C17.8661911,27.2895474 16.1275155,30.4404276 8.79586051,28.7867965 C1.33901136,27.8411871 0.797177066,24.2279051 0.231817248,22.4499728 C-0.336291378,20.6633961 0.409784873,19.4631066 0.799925874,18.3997036 C1.06001987,17.6907682 1.36503742,16.238262 1.71497853,14.0421849 C1.58056622,13.7513922 1.49163127,13.515533 1.44817368,13.3346071 C1.3829873,13.0632183 1.44817368,12.7298929 1.58641377,12.4736033 C1.72465387,12.2173138 1.44817368,12.0080603 1.09927504,11.4166075 C0.750376403,10.8251548 0.714606962,9.92377047 1.44817368,9.41059531 C1.04474131,8.79033482 1.09927504,7.38948386 1.09927504,6.79226956 C1.09927504,6.19505527 2.01071166,1.7179348 2.29041695,0.922245095 C2.57012225,0.126555391 2.53122543,-0.900986968 4.70397461,1.7179348 C6.15247406,3.46388264 7.50343826,6.14379736 8.75686721,9.75767893 C10.010294,9.92314255 11.1593312,10.1175567 12.2039787,10.3409213 Z" id="Combined-Shape" stroke="none" fill="#373737"></path>
                                    <path d="M10.6394571,18.9936459 C16.225587,19.7239169 16.8957915,26.5916657 16.3272365,28.1537577 C15.7538019,29.7292563 14.2784999,29.935453 12.6288309,29.7267923 C11.5614028,29.5917771 10.2491311,29.3611734 8.69201585,29.0349813 C7.08526524,28.7892738 5.74457377,28.5444322 4.66994145,28.3004564 C3.04839348,27.9323134 1.73258654,27.2339688 1.73258654,25.5573582 C1.73258654,23.8807476 5.05248232,17.6154376 10.6422881,18.9801299 C10.6413445,18.9846342 10.6404009,18.9891395 10.6394571,18.9936459 Z" id="Combined-Shape" stroke="none" fill="#FFFFFF"></path>
                                    <path d="M5.40411742,18.8184092 C6.34371738,18.8184092 7.39684663,18.368015 7.39684663,17.08915 C7.39684663,15.8102849 6.34371738,15.3598907 5.40411742,15.3598907 C4.46451746,15.3598907 3.7028212,16.1341065 3.7028212,17.08915 C3.7028212,18.0441935 4.46451746,18.8184092 5.40411742,18.8184092 Z" id="Oval" stroke="none" fill="#FFFFFF"></path>
                                    <ellipse id="Oval-2" stroke="none" fill="#373737" cx="5.60426992" cy="17.2925922" rx="1.50114373" ry="1.52581696"></ellipse>
                                    <ellipse id="Oval-2" stroke="none" fill="#FFFFFF" cx="5.85446054" cy="18.1572218" rx="1" ry="1"></ellipse>
                                    <path d="M15.7604455,20.769786 C16.7000454,20.769786 17.7531747,20.3193919 17.7531747,19.0405268 C17.7531747,17.7616617 16.7000454,17.3112676 15.7604455,17.3112676 C14.8208455,17.3112676 14.0591492,18.0854833 14.0591492,19.0405268 C14.0591492,19.9955703 14.8208455,20.769786 15.7604455,20.769786 Z" id="Oval" stroke="none" fill="#FFFFFF" transform="translate(15.906162, 19.040527) scale(-1, 1) rotate(-24.000000) translate(-15.906162, -19.040527) "></path>
                                    <ellipse id="Oval-2" stroke="none" fill="#373737" cx="15.7478382" cy="19.1889363" rx="1.50114373" ry="1.52581696"></ellipse>
                                    <ellipse id="Oval-2" stroke="none" fill="#FFFFFF" cx="15.2616279" cy="19.8864811" rx="1" ry="1"></ellipse>
                                    <path d="M9.81877895,22.9912359 C9.67664625,23.6859253 9.54871057,24.4464019 9.47097783,24.8400634 C9.38030741,25.2992451 9.49624112,24.6829693 9.81877895,22.9912359 Z" id="Line-2" stroke="#373737" stroke-width="0.5103" fill="none" stroke-linecap="square"></path>
                                    <path d="M10.2481373,19.7717558 C10.9723814,19.7981056 11.6053506,19.8872032 12.1470451,20.0390487 C13.0833053,20.3014972 12.6546777,21.8879097 11.7803594,21.8879097 C11.3956344,22.3764474 11.3618086,23.0503119 10.2481373,23.1607267 C10.2481373,23.1659992 10.2481373,23.1712602 10.2481373,23.1765098 C10.1888133,23.1765098 10.1319177,23.1752422 10.0773224,23.1727742 C10.0240899,23.1751115 9.96867728,23.1763111 9.91096638,23.1763111 L9.91096638,23.1609253 C8.79729514,23.0505106 8.76346928,22.3766461 8.37874428,21.8881084 C7.50442599,21.8881084 7.07579844,20.3016958 8.01205866,20.0392474 C8.5537531,19.8874019 9.18672234,19.7983043 9.91096638,19.7719545 L9.91096638,19.7640838 C9.96917161,19.7646442 10.0268301,19.7655806 10.0839418,19.7668928 C10.1381815,19.7656843 10.1929133,19.7648142 10.2481373,19.7642824 C10.2481373,19.7667744 10.2481373,19.7692656 10.2481373,19.7717558 Z" id="Combined-Shape" stroke="none" fill="#373737" transform="translate(10.079552, 21.470297) rotate(11.000000) translate(-10.079552, -21.470297) "></path>
                                    <path d="M12.215897,10.3494509 L12.2161742,10.348056 L14.2491462,10.7417254 C14.6094045,10.9528861 14.7442404,11.5910371 14.653654,12.6561782 C14.5177745,14.2538899 13.9043545,16.3560269 13.0531113,17.3251912 C12.4856158,17.9713007 12.3977518,18.8135407 12.789519,19.851911 L10.5476003,19.0349583 L8.11819701,19.0126656 C8.90545047,18.1556831 9.15700932,17.3213668 8.87287357,16.509717 C8.44666993,15.2922422 8.66539127,13.1133835 9.13791926,11.5811097 C9.45293792,10.5595938 9.80900347,10.0250197 10.2061159,9.97738763 L12.215897,10.3494509 Z" id="Combined-Shape" stroke="none" fill="#FFFFFF"></path>
                                    <path d="M16.3565977,26.5594953 C15.6243855,26.3889962 15.0301108,26.5286458 14.5737735,26.9784439 C13.8892676,27.6531411 12.2319431,30.0009963 10.1717475,28.7788862 C9.09324601,28.139118 8.71843313,26.9975925 9.04730889,25.3543097" id="Path-6" stroke="#373737" stroke-width="0.5103" fill="none" stroke-linecap="square" transform="translate(12.644315, 27.240008) scale(-1, 1) rotate(-22.000000) translate(-12.644315, -27.240008) "></path>
                                    <path d="M9.41728769,20.8065517 L9.29462549,21.4998024 C9.28875566,21.532977 9.26689249,21.5611176 9.2361983,21.5750054 L8.54978301,21.8855792" id="Path-7" stroke="#FFFFFF" stroke-width="0.5" fill="none"></path>
                                    <path d="M11.6323847,21.1911763 L11.5097225,21.8844271 C11.5038527,21.9176016 11.4819895,21.9457422 11.4512953,21.95963 L10.76488,22.2702039" id="Path-7" stroke="#FFFFFF" stroke-width="0.5" fill="none" transform="translate(11.198632, 21.730690) scale(-1, 1) rotate(-20.000000) translate(-11.198632, -21.730690) "></path>
                                </g>
                            </g>
                        </g>
                        <ellipse id="Oval-3" fill="#000000" fill-rule="nonzero" opacity="0.202287946" cx="17.943314" cy="17.0584628" rx="3.00145349" ry="2.99109344"></ellipse>
                        <path d="M20.8652798,19.2875245 L23.4883721,21.9015627 L22.7014444,22.6857742 L20.1021984,20.0717359 L20.1021984,19.6677482 L19.9352743,19.5251643 C19.29937,20.0638173 18.5601423,20.3331398 17.717569,20.3331398 C16.7796101,20.3331398 15.9807673,20.0044079 15.3210165,19.3469344 C14.6612658,18.6894609 14.3313953,17.8933754 14.3313953,16.958654 C14.3313953,16.0239327 14.6612658,15.2238865 15.3210165,14.5584917 C15.9807673,13.8930968 16.7716615,13.5604043 17.6937227,13.5604043 C18.6316817,13.5604043 19.4305245,13.8930968 20.0902753,14.5584917 C20.750026,15.2238865 21.0798964,16.0239327 21.0798964,16.958654 C21.0798964,17.798319 20.8096411,18.5349951 20.2691225,19.1687045 L20.4360465,19.2875245 L20.8652798,19.2875245 Z M16.0483285,18.6221329 C16.5093591,19.0657295 17.0657671,19.2875245 17.717569,19.2875245 C18.369371,19.2875245 18.9257789,19.0617689 19.3868096,18.6102509 C19.8478402,18.158733 20.0783521,17.6082062 20.0783521,16.958654 C20.0783521,16.3091019 19.8478402,15.7546145 19.3868096,15.2951752 C18.9257789,14.8357358 18.369371,14.6060196 17.717569,14.6060196 C17.0657671,14.6060196 16.5133335,14.8357358 16.0602516,15.2951752 C15.6071698,15.7546145 15.3806323,16.3091019 15.3806323,16.958654 C15.3806323,17.6082062 15.6031954,18.1626936 16.0483285,18.6221329 Z" id="" stroke="#FF6B00" stroke-width="0.5" fill="#FFFFFF"></path>
                    </g>
                </g>
            </g>
        </g>
    </g>
</svg>