<?xml version="1.0" encoding="UTF-8"?>
<svg width="33px" height="33px" viewBox="0 0 33 33" version="1.1" xmlns="http://www.w3.org/2000/svg" xmlns:xlink="http://www.w3.org/1999/xlink">
    <!-- Generator: sketchtool 52.2 (67145) - http://www.bohemiancoding.com/sketch -->
    <title>2907E4B0-9688-4D55-948D-34A20AE8FABA@1x</title>
    <desc>Created with sketchtool.</desc>
    <g id="Signup" stroke="none" stroke-width="1" fill="none" fill-rule="evenodd">
        <g id="SPM-02-09--Partner_login_middlebox" transform="translate(-150.000000, -11.000000)" fill-rule="nonzero">
            <g id="Group-7">
                <g id="Group-2" transform="translate(150.000000, 11.000000)">
                    <g id="logo_mediumbox">
                        <path d="M0.239,3.1592 C0.239,3.13 0.239,3.13 0.2682,3.1008 C0.2682,3.1008 6.5468,0.0346 16.4172,0.0346 C26.3168,0.0346 32.9164,3.13 32.9164,3.13 L28.8574,16.3588 L32.8288,29.7628 C32.8288,29.7628 27.1342,32.9164 16.0082,32.9164 C4.8822,32.9164 0.0346,29.9672 0.0346,29.9672 L4.1812,16.3296 L0.239,3.1592 Z" id="Shape" fill="#337BD2"></path>
                        <path d="M4.7654,16.388 L0.7648,29.3832 C0.7356,29.4414 0.7356,29.5582 0.7648,29.6168 C0.7648,29.646 0.794,29.7044 0.8524,29.7336 C0.8524,29.7336 7.4814,32.3618 16.5048,32.3618 C25.5286,32.3618 32.1282,29.3832 32.1282,29.3832 L28.2734,16.242 L32.1866,3.5974 C32.1866,3.5682 32.1574,3.4806 32.128,3.4514 C32.128,3.4514 26.0538,0.5896 16.3586,0.5896 C7.8316,0.5896 0.9106,3.5098 0.9106,3.5098 C0.8814,3.539 0.8814,3.6266 0.8814,3.685 L4.7654,16.388 Z" id="Shape" fill="#FFFFFF"></path>
                        <path d="M1.8744,4.1814 C1.8744,4.1522 1.8452,4.0938 1.8744,4.0354 C1.9036,3.977 1.962,3.9188 2.0204,3.9188 C2.0204,3.9188 7.8024,1.378 16.4172,1.378 C25.032,1.378 31.2226,3.8894 31.2226,3.8894 C31.2226,3.8894 31.2518,3.9186 31.2518,3.9478 L31.2518,4.123 L27.514,16.1836 C27.514,16.242 27.4558,16.3296 27.4848,16.388 L31.2226,28.8282 C31.2226,28.8574 31.2226,28.8868 31.1936,28.916 C31.1936,28.916 25.2654,31.6024 16.3586,31.6024 C7.4518,31.6024 1.8742,29.2372 1.8742,29.2372 C1.845,29.2372 1.7866,29.1786 1.7574,29.1496 C1.7282,29.1204 1.699,29.091 1.699,29.0328 L5.554,16.5046 C5.5832,16.4464 5.554,16.3588 5.554,16.2712 L1.8744,4.1814 Z" id="Shape" fill="#337BD2"></path>
                        <path d="M15.7164,6.5468 C15.9208,6.5176 16.242,6.5176 16.388,6.4884 C16.4464,6.4884 16.5048,6.4008 16.5632,6.3716 C16.5632,6.3424 16.5924,6.3132 16.5924,6.284 C16.6214,6.138 16.6214,5.9628 16.5924,5.846 C16.593475,5.78459849 16.5594837,5.72794631 16.5048,5.7 C16.4172,5.6416 16.2712,5.6124 16.2128,5.554 C16.1836,5.5248 16.1836,5.5248 16.2128,5.4956 L17.0012,3.6558 C17.0345201,3.61978206 17.0740931,3.59010226 17.118,3.5682 C17.1766,3.539 17.2934,3.539 17.3516,3.5098 C17.4102,3.4806 17.4976,3.4514 17.527,3.393 C17.5562,3.3638 17.5852,3.3054 17.5852,3.2472 C17.6144,3.1304 17.5852,2.9844 17.5852,2.8676 C17.5852,2.8384 17.5562,2.78 17.5562,2.78 C17.527,2.7216 17.4684,2.6924 17.4102,2.6632 C17.381,2.634 17.3226,2.634 17.2934,2.634 C16.9724,2.6048 16.6216,2.6048 16.3004,2.6048 C16.2128,2.6048 16.096,2.6048 16.0084,2.634 C15.9543074,2.63505014 15.9024601,2.65581751 15.8626,2.6924 C15.8334,2.7508 15.775,2.8384 15.775,2.8968 C15.7458,3.0136 15.7458,3.1594 15.775,3.2472 C15.775,3.3056 15.8334,3.4224 15.8918,3.4514 C15.9502,3.5098 16.067,3.4806 16.1254,3.539 C16.1838,3.539 16.1838,3.5682 16.1838,3.5974 C16.1546,3.7142 16.0962,3.8018 16.067,3.9186 C15.921,4.2398 15.7166,4.6778 15.6582,4.7946 C15.6582,4.8238 15.629,4.7946 15.629,4.7946 C15.5998,4.7946 15.5706,4.8238 15.5706,4.7946 C15.5122,4.707 15.3954,4.4734 15.2786,4.2982 C15.191,4.094 15.045,3.831 14.9866,3.685 C14.9574,3.6558 14.9574,3.6266 14.9866,3.5974 C14.9866,3.5974 15.2494,3.539 15.337,3.2178 C15.337,2.8966 15.3078,2.7506 15.1326,2.6922 C14.9282,2.6338 13.76,2.6922 13.614,2.809 C13.468,2.8966 13.468,2.955 13.4972,3.2762 C13.4972,3.5974 13.8476,3.6558 13.8476,3.6558 C13.8768,3.685 13.8768,3.6558 13.8768,3.685 L13.3804,4.97 L12.6504,3.831 C12.6504,3.8018 12.6504,3.8018 12.6796,3.8018 C12.6796,3.8018 12.9424,3.685 13.0008,3.539 C13.0592,3.4222 13.0592,2.955 12.8256,2.8966 C12.6212,2.8382 11.4532,2.955 11.278,3.0718 C11.132,3.1594 11.1904,3.539 11.1904,3.539 L11.278,3.8018 C11.3072,3.831 11.3656,3.8602 11.4238,3.8894 C11.5114,3.8894 11.599,3.8894 11.6866,3.9186 C11.7742,3.9186 11.8034,3.9478 11.8326,4.0062 L12.8838,5.7292 L12.8838,5.8168 C12.8546,5.846 12.8546,5.8168 12.8254,5.846 C12.7962,5.8752 12.7378,5.8752 12.7086,5.9044 C12.6502,5.9336 12.5918,5.992 12.5918,6.0504 C12.5626,6.1672 12.5626,6.3424 12.5918,6.4884 C12.5918,6.4884 12.5626,6.5468 12.7378,6.6928 C12.9422,6.8096 14.2564,6.5176 14.2564,6.5176 C14.2856,6.5176 14.344,6.4592 14.344,6.43 C14.3732,6.3716 14.4024,6.2548 14.4024,6.1964 C14.4024,6.0796 14.3732,5.9628 14.3148,5.846 C14.3148,5.8168 14.2564,5.7876 14.2272,5.7584 C14.1688,5.7292 14.052,5.7292 13.9936,5.6708 L14.4316,4.4734 L15.1032,5.5538 L15.1032,5.6122 C15.0448,5.6998 14.928,5.6998 14.8696,5.758 C14.8112,5.8456 14.782,5.9916 14.782,6.0792 C14.782,6.196 14.8404,6.3128 14.8696,6.4004 C14.8696,6.4296 14.928,6.4588 14.9572,6.488 C15.074,6.5172 15.1908,6.5464 15.3368,6.5464 L15.7164,6.5464 L15.7164,6.5468 Z M20.1258,6.6928 C20.2136,6.6928 20.3594,6.6636 20.4762,6.6052 C20.564,6.576 20.6516,6.4884 20.7098,6.4008 C20.739,6.3716 20.7684,6.284 20.7684,6.2548 C20.827,5.9628 20.856,5.7 20.8852,5.408 C20.9144,5.2036 20.8852,4.9408 20.8852,4.7948 C20.856,4.7364 20.827,4.678 20.827,4.6488 C20.7684,4.5612 20.681,4.4736 20.5934,4.4444 C20.5348,4.386 20.418,4.3568 20.3306,4.3568 L18.6368,4.1818 C18.6076,4.1818 18.5782,4.1818 18.549,4.1526 L18.52,4.1234 L18.52,3.7438 C18.52,3.7146 18.52,3.7146 18.549,3.6854 C18.5782,3.6562 18.5782,3.627 18.6368,3.627 L19.863,3.6854 C19.9508,3.7146 20.0384,3.7146 20.1258,3.7438 C20.1844,3.773 20.1844,3.773 20.2136,3.8314 C20.2426,3.9482 20.2426,4.0942 20.3012,4.1818 C20.3304,4.2402 20.4472,4.2694 20.4762,4.2694 L20.7098,4.2694 C20.739,4.2694 20.827,4.2694 20.8558,4.2402 C20.9144,4.1818 20.9436,4.065 20.9726,3.9774 C21.0312,3.8606 21.0312,3.6854 21.0312,3.5394 C21.0312,3.4226 21.002,3.3058 20.9726,3.189 C20.9726,3.1598 20.9436,3.1014 20.9144,3.0722 C20.8558,3.0138 20.7976,2.9554 20.739,2.9262 C20.6808,2.897 20.5932,2.8386 20.5054,2.8386 L18.5198,2.6634 C18.4612,2.6634 18.3738,2.6634 18.2862,2.6926 C18.257,2.6926 18.1694,2.7218 18.1402,2.751 C18.0524,2.7802 17.9942,2.8094 17.9356,2.8678 C17.8774,2.9554 17.8188,3.0722 17.7898,3.189 C17.7606,3.335 17.702,4.065 17.702,4.211 C17.702,4.3278 17.7312,4.4738 17.7898,4.5614 C17.8188,4.649 17.8774,4.7366 17.9356,4.795 C18.0234,4.8242 18.111,4.8826 18.2278,4.8826 C18.4032,4.9118 19.5418,4.9994 19.9216,5.0578 C19.9802,5.0578 20.0092,5.087 20.0676,5.087 L20.0676,5.1162 C20.0968,5.2038 20.0968,5.233 20.0968,5.2914 C20.0968,5.4374 20.0968,5.5834 20.0382,5.7002 C20.0382,5.7294 20.009,5.7586 19.98,5.7586 L18.5198,5.6418 L18.432,5.6418 C18.403,5.6126 18.403,5.6126 18.403,5.5542 C18.3738,5.4374 18.3738,5.2622 18.3444,5.1162 C18.3444,5.087 18.2862,5.0286 18.2568,5.0286 C18.1692,4.9994 18.0522,4.9994 17.994,4.9994 C17.9354,4.9994 17.848,4.9702 17.7898,4.9994 C17.7312,5.0286 17.673,5.1162 17.6438,5.1746 C17.6146,5.3206 17.5852,5.5834 17.5852,5.7878 C17.5852,5.9046 17.6144,6.0214 17.6144,6.1382 C17.6144,6.1674 17.6436,6.2258 17.6436,6.255 C17.7018,6.3134 17.7896,6.401 17.8772,6.4594 L20.1258,6.6928 Z M24.7398,4.0062 C24.769,3.9186 24.7106,3.802 24.6816,3.7142 C24.6524,3.6558 24.623,3.5974 24.5938,3.5682 C24.5356,3.5098 24.4188,3.4222 24.3602,3.4222 L22.1118,3.0426 C22.0532,3.0426 22.0242,3.0718 21.9658,3.0718 C21.9366,3.101 21.849,3.101 21.8198,3.1302 C21.7616,3.1886 21.6738,3.247 21.6448,3.3346 C21.5862,3.4222 21.557,3.5682 21.528,3.685 L21.0898,6.2548 C21.0898,6.3424 21.1484,6.4592 21.1776,6.5468 C21.1776,6.6052 21.2944,6.7512 21.3526,6.7804 L23.5136,7.16 C23.6088107,7.18920512 23.7105893,7.18920512 23.8058,7.16 C23.864,7.16 23.9518,7.1016 23.9808,7.0724 C24.0686,7.014 24.1562,6.9556 24.2144,6.868 C24.2436,6.7804 24.3022,6.6636 24.3022,6.576 L24.7398,4.0062 Z M10.5476,7.014 C10.7228,7.0724 12.066,6.9264 12.1536,6.693 C12.2412,6.4594 12.212,6.5178 12.1828,6.4302 C12.1828,6.3134 12.1536,6.1674 12.0952,6.0798 C12.066,6.0214 11.9492,6.0214 11.92,5.9922 C11.8032,5.963 11.7156,5.9922 11.628,5.9338 L11.2192,5.4666 L10.1972,4.1526 C10.1972,4.0942 10.2264,4.0942 10.2556,4.065 C10.2848,4.0358 10.3432,4.0358 10.3724,4.0066 C10.3724,4.0066 10.5476,3.8024 10.46,3.5686 C10.46,3.3642 10.3724,3.2766 10.2556,3.2182 C10.168,3.189 8.854,3.3642 8.7372,3.481 C8.6204,3.5686 8.6496,3.5686 8.6204,3.7438 C8.6204,3.9482 8.708,4.1526 8.708,4.1526 C8.7372,4.211 8.7956,4.2402 8.854,4.2694 C8.9124,4.2986 8.9708,4.2694 9.0292,4.3278 C9.0584,4.3278 9.0584,4.357 9.0584,4.3862 L8.2408,6.5472 C8.1824,6.6348 8.0656,6.6348 7.978,6.6932 C7.9488,6.6932 7.9196,6.7516 7.8904,6.7808 C7.8904,6.7808 7.832,7.0436 7.8904,7.1312 C7.9488,7.248 7.9488,7.3356 8.0364,7.4232 C8.124,7.5108 9.5842,7.3064 9.701,7.0728 C9.701,7.0728 9.7302,6.5472 9.6134,6.4888 C9.4966,6.4304 9.4676,6.4012 9.409,6.372 C9.3506,6.372 9.2922,6.372 9.2338,6.3428 C9.2046,6.3428 9.2046,6.3428 9.2046,6.3136 C9.2338,6.226 9.2338,6.1676 9.2922,6.1384 L10.4312,5.934 C10.4896,5.934 10.548,5.934 10.6064,5.9632 C10.6356,5.9924 10.6648,5.9924 10.694,6.0508 C10.694,6.08 10.7232,6.08 10.694,6.1092 C10.6064,6.1968 10.4896,6.1968 10.402,6.2844 C10.3728,6.3136 10.3436,6.4012 10.3436,6.4596 C10.343,6.4592 10.3724,6.9264 10.5476,7.014 Z M27.777,4.2982 C27.631,4.415 27.6602,4.415 27.631,4.4734 C27.5744973,4.59204161 27.5446001,4.72159626 27.5434,4.853 C27.5434,4.9114 27.5726,4.999 27.6016,5.0574 C27.6894,5.1158 27.8062,5.145 27.8938,5.2032 C27.923,5.2324 27.923,5.2616 27.923,5.2908 L27.6894,6.2252 C27.6602,6.2544 27.6894,6.2836 27.6602,6.3128 L27.5726,6.3128 C27.514,6.2836 27.514,6.2544 27.4848,6.196 L26.6966,4.9402 C26.6674,4.911 26.638,4.911 26.638,4.8526 C26.638,4.8234 26.6672,4.8526 26.6966,4.8234 C26.7258,4.7942 26.8134,4.7942 26.872,4.765 C26.901,4.7066 26.9596,4.6482 26.9596,4.5898 C27.0178,4.473 27.0178,4.3562 27.0472,4.2394 C27.0472,4.181 27.018,4.0642 26.9304,4.0058 C26.8136,3.9182 25.5288,3.6554 25.5288,3.6554 C25.4996,3.6554 25.412,3.6554 25.3828,3.6846 C25.3536,3.7138 25.295,3.8014 25.266,3.8598 C25.2074,3.9766 25.2074,4.0934 25.1782,4.2102 C25.1782,4.2686 25.2074,4.327 25.2368,4.3854 C25.2368,4.4146 25.295,4.4438 25.3244,4.473 C25.4122,4.5314 25.4998,4.5022 25.558,4.5898 C25.6166,4.6482 25.5872,4.6774 25.558,4.7358 L25.0908,6.4588 C25.0618,6.5172 25.0326,6.5464 24.974,6.5464 C24.8864,6.5756 24.799,6.5464 24.7112,6.5464 C24.6822,6.5464 24.6236,6.5464 24.6236,6.5756 C24.5944,6.6048 24.536,6.634 24.536,6.6632 C24.5068,6.7216 24.4484,6.8384 24.4484,6.8968 C24.4192,7.0134 24.4192,7.1304 24.4484,7.218 C24.4484,7.2764 24.536,7.3348 24.5652,7.3348 C24.711,7.3932 24.9156,7.4516 25.0616,7.51 C25.324,7.5684 25.733,7.656 25.8792,7.6852 C25.9084,7.6852 26.025,7.656 26.0542,7.6268 C26.1128,7.5684 26.171,7.481 26.2002,7.3932 C26.2294,7.3056 26.2588,7.1888 26.2588,7.1012 C26.2588,7.072 26.2296,6.9844 26.2002,6.9552 C26.1708,6.926 26.1126,6.8676 26.0834,6.8676 C26.0248,6.8384 25.9666,6.8384 25.9084,6.8092 C25.8792,6.78 25.8792,6.7508 25.8498,6.7216 L25.8498,6.634 C25.879,6.488 26.0834,5.7578 26.1416,5.641 C26.1416,5.6118 26.1416,5.6118 26.1708,5.6118 L26.2294,5.6702 L27.1344,7.0718 C27.1344,7.101 27.1344,7.101 27.1054,7.1302 C27.0468,7.1594 26.9882,7.1302 26.93,7.1886 C26.8718,7.2178 26.8132,7.3054 26.784,7.3638 C26.7548,7.4806 26.6964,7.5972 26.6964,7.7142 C26.6964,7.7726 26.7546,7.8894 26.784,7.9184 L28.1566,8.3274 C28.2148,8.3274 28.2734,8.2982 28.3316,8.269 C28.3608,8.269 28.4194,8.2106 28.4194,8.1522 C28.4776,8.0354 28.5362,7.8894 28.5652,7.7726 C28.5652,7.7142 28.5362,7.6558 28.507,7.6266 C28.4778,7.5682 28.3902,7.5098 28.3316,7.4808 C28.3316,7.4808 28.2734,7.4808 28.2734,7.4516 C28.2148,7.4224 28.2148,7.4224 28.1858,7.364 L28.1858,7.2472 L28.653,5.5826 C28.6822,5.5534 28.6822,5.5242 28.7112,5.495 C28.7404,5.4658 28.7698,5.4658 28.828,5.4658 C28.9158,5.4366 28.974,5.4658 29.0616,5.4658 C29.0908,5.4658 29.1494,5.4366 29.1494,5.4366 C29.2076,5.3782 29.2662,5.3198 29.2952,5.2614 C29.3244,5.1738 29.383,5.028 29.383,4.911 C29.383,4.8526 29.383,4.7942 29.3244,4.7068 C29.2954,4.6486 28.0106,4.123 27.777,4.2982 Z M4.3858,5.4664 C4.4442,5.4956 4.4734,5.5248 4.4734,5.554 C4.5318,5.7292 4.9114,7.1602 4.9406,7.3354 C4.9406,7.3646 4.9406,7.3938 4.8822,7.423 C4.8822,7.423 4.5318,7.5106 4.5318,7.7734 C4.561,8.0362 4.7362,8.299 4.7362,8.299 C4.7946,8.3282 4.8822,8.3574 4.9114,8.3574 L7.5396,7.6858 C7.598,7.6566 7.6856,7.6274 7.744,7.569 C7.7732,7.5106 7.8024,7.3938 7.8024,7.3062 C7.7732,7.1602 7.5688,6.4302 7.5104,6.255 C7.5104,6.255 7.452,6.0214 7.1016,6.109 C6.7804,6.1966 6.7804,6.401 6.7804,6.401 C6.8096,6.547 6.868,6.6638 6.868,6.8098 C6.868,6.839 6.868,6.8682 6.8388,6.8974 L5.8752,7.1894 C5.846,7.1894 5.8168,7.1602 5.7876,7.1602 C5.7584,7.131 5.7584,7.131 5.7584,7.1018 L5.262,5.3204 C5.262,5.2912 5.262,5.262 5.2912,5.2328 C5.2912,5.2328 5.7,5.1744 5.6708,4.7364 C5.6416,4.2692 5.262,4.2984 5.262,4.2984 L3.948,4.6488 C3.948,4.6488 3.8312,4.678 3.802,4.824 C3.7436,4.9992 3.8896,5.3496 4.0064,5.4372 C4.0938,5.5248 4.3858,5.4664 4.3858,5.4664 Z M23.718,4.1814 C23.8056,4.1814 23.8638,4.2106 23.9222,4.269 C23.9514,4.2982 23.9804,4.3858 23.9514,4.4442 L23.63,6.1672 C23.63,6.1964 23.601,6.2548 23.5718,6.284 C23.5426,6.3132 23.484,6.3132 23.4258,6.3132 L22.0242,6.0796 C21.9656,6.0504 21.9074,6.0212 21.8782,5.9628 C21.849,5.8752 21.8782,5.8168 21.8782,5.7584 L22.1992,4.0354 L22.2868,3.9478 L23.718,4.1814 Z M9.8174,4.9114 C9.8758,4.9406 9.905,4.999 9.9634,5.0282 C9.9926,5.0866 9.9926,5.145 10.0218,5.2032 C10.0218,5.2324 10.051,5.2616 10.0218,5.2616 C9.9342,5.32 9.7882,5.3492 9.6714,5.3492 L9.613,5.3492 C9.5838,5.32 9.5546,5.32 9.5546,5.2908 L9.5546,5.1448 C9.5838,5.0572 9.613,4.9696 9.6422,4.9112 C9.6714,4.882 9.7006,4.882 9.7298,4.882 C9.759,4.8824 9.7882,4.8824 9.8174,4.9114 Z M12.2998,24.1852 C12.2998,24.1852 12.3874,24.5648 12.7962,24.7984 C13.643,25.207 19.4252,25.0026 20.0676,24.7984 C20.6808,24.5938 20.6516,24.302 20.6516,24.302 C20.6516,24.302 21.2356,17.4978 20.7392,15.1616 C20.5056,13.6138 18.9286,12.3582 18.9286,12.3582 C18.8996,12.329 18.8996,12.2706 18.8996,12.2122 C18.8996,12.183 18.9872,12.183 19.016,12.183 C19.1038,12.1538 19.162,12.183 19.2788,12.2122 C19.3374,12.2122 19.3666,12.2706 19.3956,12.2998 C19.4542,12.329 19.4834,12.3874 19.5416,12.4166 C19.5708,12.4458 19.6584,12.475 19.6876,12.4458 C19.7458,12.4458 19.8044,12.3874 19.8336,12.329 C19.8918,12.2998 19.8918,12.2124 19.9504,12.154 C19.9796,12.0956 20.038,12.0956 20.0964,12.0664 C20.1546,12.008 20.2422,11.9204 20.2714,11.8328 C20.3006,11.7744 20.2714,11.6868 20.2714,11.6284 C20.2422,11.5408 20.2132,11.4824 20.1546,11.424 C20.0378,11.2782 19.8918,11.1612 19.8042,11.0152 C19.8042,10.986 19.8042,10.9276 19.8334,10.8984 C19.8624,10.7524 20.067,10.2268 20.1838,9.9056 L20.4466,9.2048 C20.4756,9.1464 20.4756,9.0588 20.4756,8.9712 C20.4756,8.9128 20.4756,8.8252 20.4466,8.7668 C20.4155133,8.67923616 20.3656868,8.59951374 20.3006,8.5332 C20.2290212,8.48278911 20.150276,8.44341649 20.067,8.4164 C19.8334,8.3288 19.5998,8.2412 19.3662,8.1828 C18.9572,8.0952 18.5194,8.0368 18.1104,7.9492 C17.8182,7.92 17.5264,7.8908 17.2342,7.8908 C16.8546,7.8616 16.475,7.8908 16.0954,7.8908 C15.9202,7.8908 15.7158,7.8908 15.5406,7.92 C15.109106,7.95161863 14.6800055,8.01013234 14.2558,8.0952 C13.9054,8.1536 13.5258,8.2704 13.2046,8.3872 C13.117,8.4164 13.0294,8.4456 12.9418,8.5038 C12.8834,8.5622 12.825,8.6498 12.7958,8.7082 C12.7374,8.7958 12.7082,8.8834 12.7082,8.971 C12.7374,9.117 12.7958,9.2922 12.825,9.4674 C12.8834,9.6134 12.971,9.7594 13.0294,9.9054 L13.2046,10.431 C13.263,10.6062 13.3506,10.8106 13.3798,10.9274 C13.3798,10.9858 13.3506,11.0734 13.3214,11.1026 C13.2338,11.2486 13.0878,11.3362 13.0002,11.4822 C12.9454824,11.51011 12.911477,11.5667857 12.9126,11.6282 C12.8834,11.6866 12.9126,11.7742 12.9126,11.8326 C12.9126,11.891 12.9418,11.9786 13.0002,12.0078 C13.0586,12.0662 13.1462,12.0954 13.2046,12.1246 C13.2338,12.183 13.263,12.2122 13.3214,12.2706 C13.3214,12.2998 13.3214,12.3872 13.3506,12.4166 C13.409,12.4458 13.4674,12.475 13.5258,12.4458 C13.5842,12.4458 13.6718,12.3874 13.7302,12.3582 C13.7594,12.329 13.7886,12.2706 13.847,12.2414 C13.8762,12.2414 13.9054,12.2122 13.9346,12.2122 C14.0514,12.183 14.1098,12.2122 14.1974,12.2122 C14.2266,12.2122 14.285,12.2706 14.285,12.2706 C14.3142,12.329 14.2558,12.329 14.2558,12.3582 C14.2558,12.3582 12.7372,13.5554 12.3868,15.22 C12.0368,16.8844 12.2998,24.1852 12.2998,24.1852 Z M18.432,11.8616 C18.4612,11.8616 18.4612,11.8908 18.4906,11.92 L18.4906,12.066 C18.4614,12.066 18.4614,12.0952 18.432,12.0952 L14.7818,12.0952 C14.7526,12.0952 14.7234,12.066 14.7234,12.066 C14.6942,12.0076 14.6942,11.9494 14.6942,11.92 C14.7234,11.8908 14.7526,11.8616 14.7818,11.8616 L18.432,11.8616 Z M14.665,10.197 C14.6942,10.2262 14.6942,10.2554 14.6942,10.2846 L14.7234,11.044 L14.4606,11.5112 C14.4314,11.5696 14.4606,11.6572 14.4022,11.7156 L14.081,11.7156 C14.0444514,11.6756388 14.0236932,11.6237433 14.0226,11.5696 L13.5846,10.2556 L13.1466,8.9414 L13.1466,8.883 C13.1466,8.883 14.4314,8.2406 16.4172,8.2114 C18.0234,8.1822 19.3376,8.5326 19.3376,8.5326 L20.009,8.8246 C20.0382,8.8538 20.0676,8.883 20.0676,8.9122 L19.1332,11.7156 L18.8118,11.7156 C18.7828,11.7156 18.7828,11.7156 18.7536,11.6864 C18.7536,11.628 18.7536,11.5404 18.7244,11.482 L18.4908,11.2192 L18.4908,10.314 L18.695,9.8468 C18.6658,9.7884 18.6368,9.7592 18.6074,9.7592 C18.4906,9.7008 18.4032,9.7008 18.3152,9.7008 C17.9066,9.6716 17.4684,9.6424 17.0598,9.6424 C16.5632,9.6424 16.0668,9.6132 15.5704,9.6424 C15.2784,9.6424 14.8112,9.7008 14.6652,9.73 C14.6068,9.73 14.5484,9.7884 14.5192,9.8468 L14.665,10.197 Z M13.5262,11.6864 C13.5262,11.7156 13.5262,11.7156 13.497,11.7156 C13.497,11.6864 13.4678,11.6864 13.4678,11.6572 C13.4678,11.628 13.4386,11.628 13.4678,11.5988 C13.497,11.5988 13.5554,11.5696 13.5554,11.5988 C13.5846,11.628 13.5554,11.6864 13.5262,11.6864 Z M19.746,11.6864 C19.746,11.6864 19.717,11.7156 19.6878,11.7156 C19.6586,11.7156 19.6586,11.6864 19.6296,11.6572 L19.6296,11.5988 C19.6586,11.5988 19.6878,11.5988 19.7172,11.628 C19.746,11.628 19.746,11.6572 19.746,11.6864 Z M27.952,25.8496 C27.952,25.791 27.923,25.762 27.952,25.7036 C27.952,25.6744 27.952,25.6454 27.9812,25.616 C28.069,25.5574 28.1566,25.5574 28.2148,25.4992 C28.2734,25.47 28.3026,25.4116 28.3316,25.3532 L28.3316,25.149 C28.3026,25.0322 28.2734,24.8862 28.2148,24.7986 C28.1858,24.7694 27.952,24.7108 27.923,24.7108 L26.5504,25.0904 C26.4922,25.1196 26.4628,25.2364 26.4628,25.2946 C26.4628,25.4118 26.492,25.5286 26.5504,25.5868 C26.5504,25.6744 26.609,25.7622 26.6672,25.8204 C26.7258,25.8496 26.8132,25.8496 26.8718,25.879 C26.9594,25.879 27.0468,25.8498 27.1342,25.8498 C27.1634,25.8498 27.1634,25.879 27.1634,25.9084 C27.1926,26.0252 27.397,26.8428 27.4262,26.9888 C27.4262,27.0178 27.4554,27.0178 27.4262,27.0178 C27.397,27.047 27.3676,27.047 27.3386,27.0178 L25.8198,26.2296 C25.7906,26.2296 25.7906,26.2296 25.7906,26.2004 C25.7906,26.1712 25.8198,26.2004 25.8198,26.1712 C25.849,26.1422 25.9076,26.113 25.9658,26.0544 C25.9658,25.9962 25.995,25.9376 25.995,25.8794 C25.9658,25.7334 25.9074,25.529 25.849,25.4122 C25.849,25.383 25.7614,25.3536 25.7322,25.3244 L25.528,25.3244 L24.3596,25.6166 C24.3304,25.6458 24.272,25.6748 24.2428,25.6748 L24.126,25.7916 L24.126,26.0544 C24.1552,26.1712 24.1846,26.3172 24.2428,26.4048 C24.272,26.434 24.3596,26.4634 24.4182,26.4926 L24.7392,26.4926 C24.7684,26.4926 24.7684,26.4926 24.7684,26.5216 L25.2062,28.5076 C25.148,28.5658 25.0312,28.5658 24.9434,28.6244 C24.9144,28.6536 24.8852,28.683 24.8558,28.712 L24.8558,29.0334 C24.885,29.121 24.9434,29.2376 24.9726,29.3252 C25.0018,29.3544 25.0604,29.3838 25.0894,29.3838 C25.1186,29.4128 25.177,29.4128 25.2062,29.4128 L26.4914,29.121 C26.5204,29.0918 26.579,29.0624 26.6082,29.0334 C26.6372,29.0334 26.6664,28.9748 26.6664,28.9456 L26.6664,28.566 C26.6372,28.5078 26.6082,28.4202 26.5788,28.3618 C26.5496,28.3326 26.462,28.2742 26.4328,28.2742 C26.316,28.2742 26.17,28.3034 26.0532,28.2742 C26.024,28.2742 26.024,28.245 25.995,28.2156 C25.9658,28.0698 25.7614,27.2812 25.7322,27.1644 C25.7322,27.1352 25.7322,27.1062 25.7614,27.1062 C25.7904,27.077 25.7904,27.077 25.8196,27.1062 L27.309,27.8652 C27.3672,27.8944 27.3672,27.9238 27.3672,27.953 C27.3964,27.982 27.3672,27.982 27.3672,27.982 C27.3382,28.0406 27.2504,28.0698 27.2504,28.1574 C27.2214,28.2156 27.2214,28.3034 27.2504,28.3616 C27.2504,28.4784 27.309,28.5952 27.3672,28.712 C27.3964,28.7412 27.4258,28.7998 27.455,28.7998 C27.5501048,28.8288016 27.6516952,28.8288016 27.7468,28.7998 L28.944,28.4202 C28.9732,28.4202 29.0318,28.3616 29.0608,28.3034 C29.09,28.2156 29.0608,28.0988 29.0608,28.0112 C29.0318,27.9236 29.0026,27.807 28.944,27.7194 C28.944,27.6902 28.8858,27.6316 28.8564,27.6316 C28.7396,27.6024 28.5642,27.6316 28.4474,27.6024 C28.4184,27.6024 28.4184,27.5734 28.3892,27.5442 L27.952,25.8496 Z M4.4734,26.346 L4.4734,26.6088 C4.5026,26.667 4.5026,26.7546 4.5318,26.813 C4.6194,26.9006 4.707,27.0172 4.7946,27.0466 C4.999,27.1052 6.43,27.5138 6.6052,27.5724 C6.6344,27.5724 6.6344,27.6014 6.6636,27.6306 C6.6636,27.6598 6.6928,27.6892 6.6928,27.7184 C6.6636,27.8642 6.6344,27.9808 6.576,28.0976 C6.5468,28.1562 6.5468,28.2144 6.4884,28.2436 C6.4008,28.2728 6.3716,28.2436 6.284,28.2144 L5.0282,27.8934 C4.9698,27.8642 4.9406,27.8642 4.9114,27.8058 C4.8822,27.7766 4.8822,27.7766 4.8822,27.7472 C4.8822,27.6304 4.9406,27.543 4.9406,27.4554 C4.9406,27.3968 4.9406,27.3386 4.9114,27.3094 C4.9114,27.2508 4.853,27.2218 4.7946,27.1926 C4.7072055,27.1370352 4.60614853,27.1067181 4.5026,27.105 C4.4442,27.0758 4.3566,27.105 4.3274,27.134 C4.2982,27.1632 4.2398,27.2218 4.2106,27.28 C4.1814,27.426 4.0938,27.6596 4.0646,27.835 C4.0354,27.9226 4.0062,28.01 4.0354,28.1268 C4.0354,28.2144 4.0646,28.331 4.0938,28.3896 C4.1522,28.4772 4.2396,28.5938 4.3274,28.6232 L6.3132,29.1778 C6.43,29.1778 6.5468,29.207 6.6636,29.1778 C6.7512,29.1778 6.8388,29.1488 6.9264,29.0902 C7.014,29.032 7.1016,28.9442 7.1308,28.8566 L7.4812,27.3382 C7.452,27.2796 7.4228,27.1628 7.3936,27.1046 C7.3352,27.046 7.2476,26.9586 7.1892,26.9292 L5.3494,26.4034 C5.3202,26.4034 5.291,26.4034 5.291,26.3744 C5.2618,26.2866 5.2618,26.2284 5.291,26.1698 C5.3202,26.053 5.3494,25.9948 5.3786,25.9074 C5.4078,25.8782 5.4078,25.8488 5.437,25.8488 C5.4662,25.8196 5.4954,25.7902 5.5246,25.8196 L6.8386,26.17 C6.897,26.17 6.9262,26.1992 6.9554,26.1992 C7.0138,26.2284 7.043,26.2284 7.043,26.2868 C7.0722,26.3746 7.0138,26.4914 7.043,26.6082 C7.043,26.6664 7.0722,26.725 7.1306,26.754 C7.2182,26.8126 7.3642,26.8418 7.481,26.8712 C7.5394,26.8712 7.5978,26.842 7.627,26.8126 C7.6562,26.7832 7.7146,26.725 7.7438,26.6666 C7.773,26.5498 7.8314,26.4038 7.8606,26.258 C7.8898,26.1702 7.919,26.0534 7.919,25.9658 C7.919,25.9076 7.8898,25.8198 7.8606,25.7616 L7.773,25.5862 L7.6562,25.4694 L5.612,24.8854 C5.5244,24.8562 5.4076,24.8562 5.32,24.8562 C5.2616,24.8562 5.174,24.8854 5.1156,24.8854 C5.0572,24.9146 4.9988,24.9146 4.9696,24.9436 C4.9404,25.0022 4.8528,25.0608 4.8236,25.119 L4.4734,26.346 Z M9.9926,29.9086 C10.0218,29.9086 10.1094,29.8796 10.1386,29.8504 C10.1678,29.8212 10.2262,29.7628 10.2554,29.7044 C10.3138,29.5876 10.3138,29.4708 10.343,29.3834 C10.343,29.2956 10.3138,29.208 10.2846,29.1498 C10.2554,29.1206 10.197,29.0912 10.1678,29.062 C10.1094,29.033 10.0218,29.033 9.9634,29.0038 C9.9342,28.9746 9.9342,28.9452 9.9342,28.9162 C9.905,28.887 9.905,28.887 9.905,28.8576 L10.2262,27.1932 C10.2554,27.1056 10.2554,27.0472 10.3138,26.9596 C10.343,26.9304 10.3722,26.9304 10.4306,26.9304 C10.5764,26.9596 10.8102,27.018 10.9562,27.0472 C10.9854,27.0472 10.9854,27.0472 10.9854,27.0764 C11.0146,27.164 10.9854,27.2806 10.9854,27.3682 L10.9854,27.6604 C11.0146,27.719 11.073,27.7772 11.1022,27.8064 C11.1898,27.8356 11.2774,27.8356 11.365,27.8356 C11.3942,27.8646 11.4818,27.8646 11.5402,27.8356 C11.5694,27.8064 11.657,27.7188 11.657,27.6602 C11.7154,27.5142 11.803,27.193 11.8614,26.9594 C11.8906,26.8426 11.8906,26.6966 11.8906,26.5798 L11.8906,26.4338 C11.8614,26.3756 11.803,26.2878 11.7738,26.2878 L8.6784,25.6746 C8.5616,25.6456 8.474,25.6746 8.3572,25.6746 L8.2988,25.7038 C8.2404,25.7624 8.182,25.8206 8.1528,25.9084 C8.1236,26.0542 8.036,26.638 7.9776,26.9596 C7.9776,27.0178 7.9776,27.1056 8.0068,27.1346 C8.0068,27.1932 8.0944,27.2514 8.1236,27.2514 C8.182,27.2806 8.2988,27.31 8.3864,27.31 C8.4156,27.31 8.5032,27.31 8.5324,27.2808 C8.5908,27.2226 8.6492,27.1058 8.7076,27.0472 L8.7952,26.6968 L8.8244,26.6676 L8.912,26.6676 C9.058,26.6968 9.3208,26.7552 9.4668,26.7844 C9.496,26.7844 9.496,26.7844 9.496,26.8136 L9.1748,28.5656 C9.1456,28.6242 9.1456,28.7116 9.1164,28.7702 C9.1164,28.7994 9.1164,28.7994 9.0872,28.7994 C8.9704,28.8284 8.8244,28.8284 8.7076,28.8576 C8.6784,28.8576 8.62,28.8868 8.62,28.8868 C8.5616,29.0036 8.5324,29.1204 8.5032,29.2078 C8.474,29.2952 8.474,29.3832 8.5032,29.4414 C8.5032,29.5 8.5324,29.5874 8.5616,29.6168 L9.9926,29.9086 Z M23.9516,26.2292 C23.9224,26.1706 23.8638,26.0832 23.8348,26.0538 C23.8056,25.9956 23.718,25.937 23.6594,25.908 C23.5718,25.8788 23.4552,25.8494 23.3672,25.8202 L21.323,26.1416 C21.2062,26.1706 21.0606,26.2292 20.9726,26.2874 C20.9144,26.3166 20.885,26.3752 20.8558,26.4042 C20.8268,26.492 20.7682,26.5796 20.739,26.667 C20.739,26.813 20.739,26.9884 20.7682,27.1342 L21.1478,29.558 C21.1478,29.6748 21.2354,29.7916 21.3228,29.8502 C21.3814,29.9084 21.4982,29.967 21.5856,29.967 L24.1262,29.558 C24.1554,29.558 24.2138,29.4998 24.2138,29.4704 C24.2724,29.4118 24.3306,29.3244 24.3306,29.2662 C24.3598,29.1494 24.3892,29.0326 24.3598,28.9158 L23.9516,26.2292 Z M15.0156,30.2882 C15.0448,30.259 15.074,30.2006 15.074,30.1422 C15.1032,30.0546 15.1324,29.9086 15.1032,29.7918 C15.1032,29.7336 15.074,29.646 15.0448,29.6168 C15.0448,29.5876 14.9864,29.5582 14.928,29.5292 C14.8696,29.5 14.7528,29.5292 14.6944,29.4706 C14.6068,29.383 14.5776,29.2952 14.5484,29.2078 L13.76,27.4266 C13.7308,27.368 13.76,27.368 13.76,27.3098 L13.7892,27.3098 C13.8476,27.2806 13.906,27.2806 13.9644,27.2512 C13.9936,27.2222 14.0812,27.193 14.0812,27.1344 C14.1396,27.0468 14.1688,26.872 14.1688,26.7548 C14.1688,26.6966 14.1104,26.5798 14.0812,26.5212 C14.0812,26.4922 13.9936,26.4336 13.9644,26.4336 L12.5044,26.3168 C12.446,26.346 12.3876,26.4336 12.3584,26.4922 C12.3292,26.5798 12.3,26.6964 12.3,26.784 C12.3,26.8718 12.3292,26.9594 12.3584,27.0468 C12.3876,27.076 12.4168,27.1344 12.4752,27.1344 C12.5044,27.193 12.5628,27.1636 12.592,27.2222 C12.6212,27.2512 12.592,27.2512 12.592,27.2804 L11.278,29.1784 C11.278,29.1784 11.2488,29.1784 11.2196,29.2076 C11.1028,29.2076 10.9568,29.2076 10.84,29.2368 C10.7816,29.266 10.7524,29.3828 10.7232,29.441 C10.694,29.5288 10.6648,29.6164 10.6648,29.7038 C10.6648,29.7624 10.7232,29.8792 10.7524,29.9374 C10.7524,29.9666 10.8108,30.025 10.8692,30.0542 L12.3002,30.171 C12.3586,30.171 12.417,30.1128 12.417,30.0542 C12.4754,29.9374 12.5046,29.7914 12.5338,29.6746 C12.5338,29.6164 12.5046,29.5288 12.4754,29.4996 C12.4462,29.441 12.3586,29.3828 12.3002,29.3536 C12.271,29.3244 12.2126,29.3536 12.2126,29.295 C12.1834,29.266 12.1834,29.2368 12.2126,29.2074 C12.2418,29.1492 12.271,29.1198 12.3294,29.0906 C12.3878,29.0324 12.417,29.0324 12.5046,29.0324 C12.6506,29.0614 13.5558,29.12 13.6726,29.1492 C13.731,29.1782 13.731,29.2368 13.7602,29.295 C13.7894,29.3536 13.8186,29.3536 13.7894,29.4118 C13.7894,29.441 13.7894,29.441 13.7602,29.441 C13.6434,29.4996 13.4974,29.4996 13.4098,29.5288 C13.3514,29.5578 13.3222,29.6456 13.3222,29.6746 C13.2929996,29.8289645 13.2929996,29.9874355 13.3222,30.1418 C13.3222,30.2004 13.4098,30.2878 13.4682,30.3172 L15.0156,30.2882 Z M20.6516,29.9672 C20.6808,29.8504 20.6808,29.6462 20.6516,29.5294 C20.6516,29.4708 20.5934,29.354 20.5348,29.3248 C20.418,29.2666 20.2426,29.2956 20.1258,29.2666 L20.1258,29.208 L19.9508,27.4268 C19.9508,27.3682 19.9508,27.31 19.98,27.2514 C19.98,27.2224 20.009,27.2224 20.0382,27.1932 C20.1258,27.164 20.2424,27.1346 20.3304,27.1056 C20.3594,27.0764 20.418,27.047 20.418,27.0178 C20.4472,26.9596 20.4762,26.872 20.4762,26.7842 C20.4762,26.6966 20.4472,26.58 20.418,26.4632 C20.418,26.434 20.3888,26.3756 20.3304,26.3464 C20.3012,26.3172 20.2136,26.2878 20.1258,26.2878 L18.7828,26.4338 C18.7536,26.4338 18.695,26.4924 18.6656,26.5214 C18.6366,26.58 18.6074,26.6968 18.6074,26.7842 C18.6366,26.901 18.6656,27.047 18.695,27.1346 C18.695,27.1932 18.7828,27.2224 18.8118,27.2224 C18.9286,27.2806 19.0454,27.2514 19.1332,27.31 C19.1914,27.31 19.1914,27.3392 19.1914,27.3976 L19.3374,29.2082 C19.3374,29.2668 19.3082,29.2958 19.2788,29.325 L19.2788,29.3542 C19.162,29.4124 19.0452,29.4124 18.9578,29.471 C18.9286,29.471 18.8702,29.5586 18.8702,29.5878 C18.841,29.6754 18.8702,29.792 18.8702,29.88 C18.8702,29.9676 18.841,29.9968 18.9578,30.1718 C19.0746,30.3758 20.7098,30.1422 20.6516,29.9672 Z M17.2054,30.3468 C17.2346,30.3468 17.264,30.3176 17.2932,30.2882 L17.41,30.1714 C17.4392,30.1132 17.4392,30.0254 17.4392,29.9378 C17.4392,29.8502 17.41,29.7042 17.3806,29.6168 C17.3514,29.5876 17.3224,29.5582 17.293,29.5292 C17.1762,29.5 17.0594,29.5 16.9426,29.4706 C16.9134,29.4414 16.9134,29.4414 16.9134,29.383 L16.972,27.3678 C17.1178,27.3388 17.4974,27.3388 17.6142,27.3678 C17.6434,27.3678 17.6434,27.397 17.6434,27.4556 C17.6726,27.6014 17.6726,27.8352 17.731,27.952 C17.7602,28.0102 17.8478,28.0396 17.9064,28.0688 C17.9646,28.0978 18.0522,28.0688 18.14,28.0688 C18.1692,28.0688 18.1982,28.0396 18.2276,28.0396 L18.3444,27.9228 L18.403,26.7256 C18.403,26.667 18.3738,26.6088 18.3444,26.5796 C18.315,26.5504 18.2862,26.492 18.2568,26.492 L14.9568,26.4334 C14.9276,26.4334 14.8692,26.4334 14.84,26.4626 C14.7778332,26.4955782 14.7269782,26.5464332 14.694,26.6086 C14.694,26.6376 14.6648,26.6962 14.6648,26.7254 L14.6648,27.7766 C14.6648,27.8352 14.694,27.9226 14.7232,27.952 C14.7524,27.981 14.8108,28.0396 14.84,28.0396 C14.9568,28.0688 15.0736,28.0688 15.1612,28.0396 C15.2196,28.0104 15.3364,27.952 15.3364,27.8936 C15.3948,27.7768 15.3948,27.5432 15.424,27.3972 L15.424,27.368 C15.5408,27.339 15.6868,27.339 15.8328,27.339 C15.9204,27.339 16.008,27.339 16.0956,27.368 C16.1248,27.368 16.1248,27.368 16.1248,27.3972 L16.1248,29.1202 C16.1248,29.237 16.154,29.3244 16.0956,29.412 C16.0956,29.4412 16.0664,29.4412 16.0372,29.4706 C15.9204,29.5292 15.7744,29.5292 15.6868,29.5874 C15.6284,29.646 15.5992,29.7916 15.5992,29.8796 C15.5992,29.9672 15.6284,30.1132 15.6576,30.23 L15.7744,30.3468 L17.2054,30.3468 Z M21.9656,29.091 C21.9364,29.091 21.7906,29.0618 21.7906,29.0328 L21.5278,27.2222 C21.4986,27.193 21.4986,27.1344 21.5278,27.0762 C21.5278,27.047 21.5568,26.9886 21.586,26.9886 L23.1336,26.7258 L23.2508,26.7258 L23.3384,26.8134 L23.6012,28.6532 C23.6012,28.7114 23.572,28.77 23.572,28.8282 C23.5428,28.8574 23.5428,28.8868 23.5134,28.8868 L21.9656,29.091 Z M13.205,27.923 C13.2634,28.0398 13.3218,28.1858 13.351,28.3026 C13.351,28.3316 13.3802,28.3902 13.351,28.3902 C13.2634,28.4194 13.1174,28.4194 13.0298,28.4194 C12.9714,28.4194 12.913,28.4194 12.8546,28.3902 C12.8254,28.361 12.7962,28.3316 12.7962,28.3026 C12.8254,28.244 12.8546,28.1858 12.913,28.098 C12.9422,28.069 12.9714,28.0104 13.0006,27.9522 C13.0298,27.923 13.0882,27.8936 13.1174,27.8936 C13.1466,27.8938 13.1756,27.8938 13.205,27.923 Z" id="Shape" fill="#FFFFFF"></path>
                    </g>
                </g>
            </g>
        </g>
    </g>
</svg>