<?xml version="1.0" encoding="UTF-8"?>
<svg width="54px" height="54px" viewBox="0 0 54 54" version="1.1" xmlns="http://www.w3.org/2000/svg" xmlns:xlink="http://www.w3.org/1999/xlink">
    <!-- Generator: sketchtool 52.2 (67145) - http://www.bohemiancoding.com/sketch -->
    <title>E239E02B-5B00-4AED-8F14-FA8CF1B15845@1x</title>
    <desc>Created with sketchtool.</desc>
    <g id="Signup" stroke="none" stroke-width="1" fill="none" fill-rule="evenodd">
        <g id="SPM-02-10-Sign-Up-finish_middlebox" transform="translate(-693.000000, -205.000000)" fill="#FF6B00">
            <g id="ic_sent" transform="translate(678.000000, 190.000000)">
                <path d="M68.8264522,35.836873 C69.0857221,35.1567373 68.8836936,34.3856924 68.3146467,33.9244123 L63.1898577,29.7695241 L62.1527782,23.2476292 C62.0382954,22.5270894 61.4726157,21.964799 60.7520475,21.8503207 L54.2298948,20.8133874 L50.0782097,15.6853286 C49.6202785,15.1163043 48.8323674,14.9142838 48.1690406,15.1735434 L42.0004378,17.5405502 L35.8352021,15.1769104 C35.1516725,14.9142838 34.3873314,15.1230383 33.9260331,15.6886957 L29.7709807,20.8166492 L23.2488281,21.8536877 C22.531627,21.968166 21.9659473,22.5338234 21.8514645,23.2509962 L20.814385,29.7728911 L15.6862289,33.9277793 C15.1205491,34.3856924 14.9151535,35.1567373 15.1744234,35.836873 L17.5381565,42.0018651 L15.1744234,48.1668572 C14.9117864,48.8469928 15.1205491,49.6180377 15.6862289,50.0759509 L20.814385,54.227472 L21.8514645,60.749367 C21.9659473,61.4699067 22.5282599,62.0355641 23.2488281,62.1500424 L29.7709807,63.187081 L33.9260331,68.3116675 C34.3873314,68.8840589 35.1584068,69.0860794 35.8385693,68.8234528 L42.0004378,66.46318 L48.1656734,68.8268198 C48.3609676,68.9008939 48.5629961,68.937931 48.7683917,68.937931 C49.2633615,68.937931 49.751597,68.7190755 50.0782097,68.3116675 L54.2298948,63.187081 L60.7520475,62.1500424 C61.4726157,62.0355641 62.0382954,61.4699067 62.1527782,60.749367 L63.1898577,54.227472 L68.3146467,50.0759509 C68.8836936,49.6146707 69.0857221,48.8469928 68.8264522,48.1668572 L66.462719,42.0018651 L68.8264522,35.836873 Z" id="bg_sent"></path>
            </g>
        </g>
    </g>
</svg>